%
M48
M72
T01C0.0236
T02C0.0280
T03C0.0315
T04C0.0320
T05C0.0400
T06C0.0433
T07C0.0472
%
T01
X16430Y8380
X17430Y8380
X18430Y8380
X19430Y8380
X23930Y9380
X26430Y8880
T02
X3180Y10030
X3180Y10730
X7180Y10730
X7180Y10030
T03
X3930Y16880
X5180Y16880
X6430Y16880
X6430Y15880
X6430Y15130
X5180Y15130
X3930Y15130
X3930Y15880
X5180Y12380
X3930Y12380
X6430Y12380
X7180Y9130
X5180Y9130
X3180Y9130
X5180Y6380
X4680Y5130
X3680Y5130
X2680Y5130
X3180Y4380
X4180Y4380
X5180Y4380
X6180Y4380
X7180Y4380
X6680Y3630
X5680Y3630
X4680Y3630
X3680Y3630
X2680Y3630
X5680Y5130
X6680Y5130
X7680Y5130
X7680Y3630
X26680Y10380
X27930Y10380
T04
X8930Y15130
X9930Y15130
X11430Y16380
X12430Y16380
X13430Y16380
X14430Y16380
X15430Y16380
X16430Y16380
X17430Y16380
X18430Y16380
X19430Y16380
X20430Y16380
X21430Y16380
X22430Y16380
X23430Y16380
X24430Y16380
X23930Y13380
X22930Y13380
X21930Y13380
X20930Y13380
X19930Y13380
X18930Y13380
X17930Y13380
X16930Y13380
X15930Y13380
X14930Y13380
X13930Y13380
X12930Y13380
X11930Y13380
X10930Y13380
X9930Y13380
X8930Y13380
X5930Y10880
X5930Y9880
X4430Y9880
X4430Y10880
X4430Y8380
X3180Y8380
X3180Y7380
X4430Y7380
X5930Y7380
X7180Y7380
X8930Y7380
X9930Y7380
X10930Y7380
X11930Y7380
X12930Y7380
X13930Y7380
X14930Y7380
X15930Y7380
X16930Y7380
X17930Y7380
X18930Y7380
X19930Y7380
X20930Y7380
X21930Y7380
X22930Y7380
X23930Y7380
X24930Y7380
X25930Y7380
X26930Y7380
X27930Y7380
X29680Y7380
X29680Y8380
X29680Y9380
X29680Y10380
X29680Y11380
X29680Y12380
X29680Y13380
X27930Y13380
X26930Y13380
X25930Y13380
X24930Y13380
X24430Y10380
X23430Y10380
X22430Y10380
X21430Y10380
X20430Y10380
X19430Y10380
X18430Y10380
X17430Y10380
X16430Y10380
X15430Y10380
X14430Y10380
X13430Y10380
X12430Y10380
X11430Y10380
X7180Y8380
X5930Y8380
X29680Y5880
X30680Y5880
X31680Y5880
X32680Y5880
X32680Y4880
X31680Y4880
X30680Y4630
X31680Y4130
X32680Y4130
X30680Y3630
X32680Y7380
X32680Y8380
X32680Y9380
X32680Y10380
X32680Y11380
X32680Y12380
X32680Y13380
X31680Y14630
X30680Y14630
T05
X12930Y4630
X13930Y4630
X14930Y4630
X15930Y4630
X16930Y4630
X17930Y4630
X18930Y4630
X19930Y4630
X20930Y4630
X21930Y4630
X22930Y4630
X23930Y4630
X24930Y4630
X25930Y4630
X26930Y4630
X27930Y4630
X28930Y4630
X28930Y3630
X27930Y3630
X26930Y3630
X25930Y3630
X24930Y3630
X23930Y3630
X22930Y3630
X21930Y3630
X20930Y3630
X19930Y3630
X18930Y3630
X17930Y3630
X16930Y3630
X15930Y3630
X14930Y3630
X13930Y3630
X12930Y3630
T06
X3211Y13949
X4196Y13949
X6164Y13949
X7149Y13949
X5180Y15917
T07
X3211Y16902
X3211Y15917
X5180Y13949
X7149Y15917
X7149Y16902
M30
