G75*
G70*
%OFA0B0*%
%FSLAX24Y24*%
%IPPOS*%
%LPD*%
%AMOC8*
5,1,8,0,0,1.08239X$1,22.5*
%
%ADD10C,0.0000*%
D10*
X002180Y003130D02*
X002180Y017500D01*
X033922Y017500D01*
X033922Y003130D01*
X002180Y003130D01*
X004944Y013949D02*
X004946Y013979D01*
X004952Y014009D01*
X004961Y014038D01*
X004974Y014065D01*
X004991Y014090D01*
X005010Y014113D01*
X005033Y014134D01*
X005058Y014151D01*
X005084Y014165D01*
X005113Y014175D01*
X005142Y014182D01*
X005172Y014185D01*
X005203Y014184D01*
X005233Y014179D01*
X005262Y014170D01*
X005289Y014158D01*
X005315Y014143D01*
X005339Y014124D01*
X005360Y014102D01*
X005378Y014078D01*
X005393Y014051D01*
X005404Y014023D01*
X005412Y013994D01*
X005416Y013964D01*
X005416Y013934D01*
X005412Y013904D01*
X005404Y013875D01*
X005393Y013847D01*
X005378Y013820D01*
X005360Y013796D01*
X005339Y013774D01*
X005315Y013755D01*
X005289Y013740D01*
X005262Y013728D01*
X005233Y013719D01*
X005203Y013714D01*
X005172Y013713D01*
X005142Y013716D01*
X005113Y013723D01*
X005084Y013733D01*
X005058Y013747D01*
X005033Y013764D01*
X005010Y013785D01*
X004991Y013808D01*
X004974Y013833D01*
X004961Y013860D01*
X004952Y013889D01*
X004946Y013919D01*
X004944Y013949D01*
X002975Y015917D02*
X002977Y015947D01*
X002983Y015977D01*
X002992Y016006D01*
X003005Y016033D01*
X003022Y016058D01*
X003041Y016081D01*
X003064Y016102D01*
X003089Y016119D01*
X003115Y016133D01*
X003144Y016143D01*
X003173Y016150D01*
X003203Y016153D01*
X003234Y016152D01*
X003264Y016147D01*
X003293Y016138D01*
X003320Y016126D01*
X003346Y016111D01*
X003370Y016092D01*
X003391Y016070D01*
X003409Y016046D01*
X003424Y016019D01*
X003435Y015991D01*
X003443Y015962D01*
X003447Y015932D01*
X003447Y015902D01*
X003443Y015872D01*
X003435Y015843D01*
X003424Y015815D01*
X003409Y015788D01*
X003391Y015764D01*
X003370Y015742D01*
X003346Y015723D01*
X003320Y015708D01*
X003293Y015696D01*
X003264Y015687D01*
X003234Y015682D01*
X003203Y015681D01*
X003173Y015684D01*
X003144Y015691D01*
X003115Y015701D01*
X003089Y015715D01*
X003064Y015732D01*
X003041Y015753D01*
X003022Y015776D01*
X003005Y015801D01*
X002992Y015828D01*
X002983Y015857D01*
X002977Y015887D01*
X002975Y015917D01*
X002975Y016902D02*
X002977Y016932D01*
X002983Y016962D01*
X002992Y016991D01*
X003005Y017018D01*
X003022Y017043D01*
X003041Y017066D01*
X003064Y017087D01*
X003089Y017104D01*
X003115Y017118D01*
X003144Y017128D01*
X003173Y017135D01*
X003203Y017138D01*
X003234Y017137D01*
X003264Y017132D01*
X003293Y017123D01*
X003320Y017111D01*
X003346Y017096D01*
X003370Y017077D01*
X003391Y017055D01*
X003409Y017031D01*
X003424Y017004D01*
X003435Y016976D01*
X003443Y016947D01*
X003447Y016917D01*
X003447Y016887D01*
X003443Y016857D01*
X003435Y016828D01*
X003424Y016800D01*
X003409Y016773D01*
X003391Y016749D01*
X003370Y016727D01*
X003346Y016708D01*
X003320Y016693D01*
X003293Y016681D01*
X003264Y016672D01*
X003234Y016667D01*
X003203Y016666D01*
X003173Y016669D01*
X003144Y016676D01*
X003115Y016686D01*
X003089Y016700D01*
X003064Y016717D01*
X003041Y016738D01*
X003022Y016761D01*
X003005Y016786D01*
X002992Y016813D01*
X002983Y016842D01*
X002977Y016872D01*
X002975Y016902D01*
X006913Y016902D02*
X006915Y016932D01*
X006921Y016962D01*
X006930Y016991D01*
X006943Y017018D01*
X006960Y017043D01*
X006979Y017066D01*
X007002Y017087D01*
X007027Y017104D01*
X007053Y017118D01*
X007082Y017128D01*
X007111Y017135D01*
X007141Y017138D01*
X007172Y017137D01*
X007202Y017132D01*
X007231Y017123D01*
X007258Y017111D01*
X007284Y017096D01*
X007308Y017077D01*
X007329Y017055D01*
X007347Y017031D01*
X007362Y017004D01*
X007373Y016976D01*
X007381Y016947D01*
X007385Y016917D01*
X007385Y016887D01*
X007381Y016857D01*
X007373Y016828D01*
X007362Y016800D01*
X007347Y016773D01*
X007329Y016749D01*
X007308Y016727D01*
X007284Y016708D01*
X007258Y016693D01*
X007231Y016681D01*
X007202Y016672D01*
X007172Y016667D01*
X007141Y016666D01*
X007111Y016669D01*
X007082Y016676D01*
X007053Y016686D01*
X007027Y016700D01*
X007002Y016717D01*
X006979Y016738D01*
X006960Y016761D01*
X006943Y016786D01*
X006930Y016813D01*
X006921Y016842D01*
X006915Y016872D01*
X006913Y016902D01*
X006913Y015917D02*
X006915Y015947D01*
X006921Y015977D01*
X006930Y016006D01*
X006943Y016033D01*
X006960Y016058D01*
X006979Y016081D01*
X007002Y016102D01*
X007027Y016119D01*
X007053Y016133D01*
X007082Y016143D01*
X007111Y016150D01*
X007141Y016153D01*
X007172Y016152D01*
X007202Y016147D01*
X007231Y016138D01*
X007258Y016126D01*
X007284Y016111D01*
X007308Y016092D01*
X007329Y016070D01*
X007347Y016046D01*
X007362Y016019D01*
X007373Y015991D01*
X007381Y015962D01*
X007385Y015932D01*
X007385Y015902D01*
X007381Y015872D01*
X007373Y015843D01*
X007362Y015815D01*
X007347Y015788D01*
X007329Y015764D01*
X007308Y015742D01*
X007284Y015723D01*
X007258Y015708D01*
X007231Y015696D01*
X007202Y015687D01*
X007172Y015682D01*
X007141Y015681D01*
X007111Y015684D01*
X007082Y015691D01*
X007053Y015701D01*
X007027Y015715D01*
X007002Y015732D01*
X006979Y015753D01*
X006960Y015776D01*
X006943Y015801D01*
X006930Y015828D01*
X006921Y015857D01*
X006915Y015887D01*
X006913Y015917D01*
M02*
