G75*
G70*
%OFA0B0*%
%FSLAX24Y24*%
%IPPOS*%
%LPD*%
%AMOC8*
5,1,8,0,0,1.08239X$1,22.5*
%
%ADD10C,0.0000*%
%ADD11C,0.0520*%
%ADD12OC8,0.0520*%
%ADD13OC8,0.0600*%
%ADD14C,0.0650*%
%ADD15OC8,0.0480*%
%ADD16C,0.0480*%
%ADD17R,0.0500X0.0250*%
%ADD18C,0.0160*%
%ADD19OC8,0.0472*%
%ADD20OC8,0.0356*%
D10*
X002180Y003130D02*
X002180Y017500D01*
X033922Y017500D01*
X033922Y003130D01*
X002180Y003130D01*
X004944Y013949D02*
X004946Y013979D01*
X004952Y014009D01*
X004961Y014038D01*
X004974Y014065D01*
X004991Y014090D01*
X005010Y014113D01*
X005033Y014134D01*
X005058Y014151D01*
X005084Y014165D01*
X005113Y014175D01*
X005142Y014182D01*
X005172Y014185D01*
X005203Y014184D01*
X005233Y014179D01*
X005262Y014170D01*
X005289Y014158D01*
X005315Y014143D01*
X005339Y014124D01*
X005360Y014102D01*
X005378Y014078D01*
X005393Y014051D01*
X005404Y014023D01*
X005412Y013994D01*
X005416Y013964D01*
X005416Y013934D01*
X005412Y013904D01*
X005404Y013875D01*
X005393Y013847D01*
X005378Y013820D01*
X005360Y013796D01*
X005339Y013774D01*
X005315Y013755D01*
X005289Y013740D01*
X005262Y013728D01*
X005233Y013719D01*
X005203Y013714D01*
X005172Y013713D01*
X005142Y013716D01*
X005113Y013723D01*
X005084Y013733D01*
X005058Y013747D01*
X005033Y013764D01*
X005010Y013785D01*
X004991Y013808D01*
X004974Y013833D01*
X004961Y013860D01*
X004952Y013889D01*
X004946Y013919D01*
X004944Y013949D01*
X002975Y015917D02*
X002977Y015947D01*
X002983Y015977D01*
X002992Y016006D01*
X003005Y016033D01*
X003022Y016058D01*
X003041Y016081D01*
X003064Y016102D01*
X003089Y016119D01*
X003115Y016133D01*
X003144Y016143D01*
X003173Y016150D01*
X003203Y016153D01*
X003234Y016152D01*
X003264Y016147D01*
X003293Y016138D01*
X003320Y016126D01*
X003346Y016111D01*
X003370Y016092D01*
X003391Y016070D01*
X003409Y016046D01*
X003424Y016019D01*
X003435Y015991D01*
X003443Y015962D01*
X003447Y015932D01*
X003447Y015902D01*
X003443Y015872D01*
X003435Y015843D01*
X003424Y015815D01*
X003409Y015788D01*
X003391Y015764D01*
X003370Y015742D01*
X003346Y015723D01*
X003320Y015708D01*
X003293Y015696D01*
X003264Y015687D01*
X003234Y015682D01*
X003203Y015681D01*
X003173Y015684D01*
X003144Y015691D01*
X003115Y015701D01*
X003089Y015715D01*
X003064Y015732D01*
X003041Y015753D01*
X003022Y015776D01*
X003005Y015801D01*
X002992Y015828D01*
X002983Y015857D01*
X002977Y015887D01*
X002975Y015917D01*
X002975Y016902D02*
X002977Y016932D01*
X002983Y016962D01*
X002992Y016991D01*
X003005Y017018D01*
X003022Y017043D01*
X003041Y017066D01*
X003064Y017087D01*
X003089Y017104D01*
X003115Y017118D01*
X003144Y017128D01*
X003173Y017135D01*
X003203Y017138D01*
X003234Y017137D01*
X003264Y017132D01*
X003293Y017123D01*
X003320Y017111D01*
X003346Y017096D01*
X003370Y017077D01*
X003391Y017055D01*
X003409Y017031D01*
X003424Y017004D01*
X003435Y016976D01*
X003443Y016947D01*
X003447Y016917D01*
X003447Y016887D01*
X003443Y016857D01*
X003435Y016828D01*
X003424Y016800D01*
X003409Y016773D01*
X003391Y016749D01*
X003370Y016727D01*
X003346Y016708D01*
X003320Y016693D01*
X003293Y016681D01*
X003264Y016672D01*
X003234Y016667D01*
X003203Y016666D01*
X003173Y016669D01*
X003144Y016676D01*
X003115Y016686D01*
X003089Y016700D01*
X003064Y016717D01*
X003041Y016738D01*
X003022Y016761D01*
X003005Y016786D01*
X002992Y016813D01*
X002983Y016842D01*
X002977Y016872D01*
X002975Y016902D01*
X006913Y016902D02*
X006915Y016932D01*
X006921Y016962D01*
X006930Y016991D01*
X006943Y017018D01*
X006960Y017043D01*
X006979Y017066D01*
X007002Y017087D01*
X007027Y017104D01*
X007053Y017118D01*
X007082Y017128D01*
X007111Y017135D01*
X007141Y017138D01*
X007172Y017137D01*
X007202Y017132D01*
X007231Y017123D01*
X007258Y017111D01*
X007284Y017096D01*
X007308Y017077D01*
X007329Y017055D01*
X007347Y017031D01*
X007362Y017004D01*
X007373Y016976D01*
X007381Y016947D01*
X007385Y016917D01*
X007385Y016887D01*
X007381Y016857D01*
X007373Y016828D01*
X007362Y016800D01*
X007347Y016773D01*
X007329Y016749D01*
X007308Y016727D01*
X007284Y016708D01*
X007258Y016693D01*
X007231Y016681D01*
X007202Y016672D01*
X007172Y016667D01*
X007141Y016666D01*
X007111Y016669D01*
X007082Y016676D01*
X007053Y016686D01*
X007027Y016700D01*
X007002Y016717D01*
X006979Y016738D01*
X006960Y016761D01*
X006943Y016786D01*
X006930Y016813D01*
X006921Y016842D01*
X006915Y016872D01*
X006913Y016902D01*
X006913Y015917D02*
X006915Y015947D01*
X006921Y015977D01*
X006930Y016006D01*
X006943Y016033D01*
X006960Y016058D01*
X006979Y016081D01*
X007002Y016102D01*
X007027Y016119D01*
X007053Y016133D01*
X007082Y016143D01*
X007111Y016150D01*
X007141Y016153D01*
X007172Y016152D01*
X007202Y016147D01*
X007231Y016138D01*
X007258Y016126D01*
X007284Y016111D01*
X007308Y016092D01*
X007329Y016070D01*
X007347Y016046D01*
X007362Y016019D01*
X007373Y015991D01*
X007381Y015962D01*
X007385Y015932D01*
X007385Y015902D01*
X007381Y015872D01*
X007373Y015843D01*
X007362Y015815D01*
X007347Y015788D01*
X007329Y015764D01*
X007308Y015742D01*
X007284Y015723D01*
X007258Y015708D01*
X007231Y015696D01*
X007202Y015687D01*
X007172Y015682D01*
X007141Y015681D01*
X007111Y015684D01*
X007082Y015691D01*
X007053Y015701D01*
X007027Y015715D01*
X007002Y015732D01*
X006979Y015753D01*
X006960Y015776D01*
X006943Y015801D01*
X006930Y015828D01*
X006921Y015857D01*
X006915Y015887D01*
X006913Y015917D01*
D11*
X008930Y013640D02*
X008930Y013120D01*
X009930Y013120D02*
X009930Y013640D01*
X010930Y013640D02*
X010930Y013120D01*
X011930Y013120D02*
X011930Y013640D01*
X012930Y013640D02*
X012930Y013120D01*
X013930Y013120D02*
X013930Y013640D01*
X014930Y013640D02*
X014930Y013120D01*
X015930Y013120D02*
X015930Y013640D01*
X016930Y013640D02*
X016930Y013120D01*
X017930Y013120D02*
X017930Y013640D01*
X018930Y013640D02*
X018930Y013120D01*
X019930Y013120D02*
X019930Y013640D01*
X020930Y013640D02*
X020930Y013120D01*
X021930Y013120D02*
X021930Y013640D01*
X022930Y013640D02*
X022930Y013120D01*
X023930Y013120D02*
X023930Y013640D01*
X024930Y013640D02*
X024930Y013120D01*
X025930Y013120D02*
X025930Y013640D01*
X026930Y013640D02*
X026930Y013120D01*
X027930Y013120D02*
X027930Y013640D01*
X029420Y013380D02*
X029940Y013380D01*
X029940Y012380D02*
X029420Y012380D01*
X029420Y011380D02*
X029940Y011380D01*
X029940Y010380D02*
X029420Y010380D01*
X029420Y009380D02*
X029940Y009380D01*
X029940Y008380D02*
X029420Y008380D01*
X027930Y007640D02*
X027930Y007120D01*
X026930Y007120D02*
X026930Y007640D01*
X025930Y007640D02*
X025930Y007120D01*
X024930Y007120D02*
X024930Y007640D01*
X023930Y007640D02*
X023930Y007120D01*
X022930Y007120D02*
X022930Y007640D01*
X021930Y007640D02*
X021930Y007120D01*
X020930Y007120D02*
X020930Y007640D01*
X019930Y007640D02*
X019930Y007120D01*
X018930Y007120D02*
X018930Y007640D01*
X017930Y007640D02*
X017930Y007120D01*
X016930Y007120D02*
X016930Y007640D01*
X015930Y007640D02*
X015930Y007120D01*
X014930Y007120D02*
X014930Y007640D01*
X013930Y007640D02*
X013930Y007120D01*
X012930Y007120D02*
X012930Y007640D01*
X011930Y007640D02*
X011930Y007120D01*
X010930Y007120D02*
X010930Y007640D01*
X009930Y007640D02*
X009930Y007120D01*
X008930Y007120D02*
X008930Y007640D01*
X011430Y010120D02*
X011430Y010640D01*
X012430Y010640D02*
X012430Y010120D01*
X013430Y010120D02*
X013430Y010640D01*
X014430Y010640D02*
X014430Y010120D01*
X015430Y010120D02*
X015430Y010640D01*
X016430Y010640D02*
X016430Y010120D01*
X017430Y010120D02*
X017430Y010640D01*
X018430Y010640D02*
X018430Y010120D01*
X019430Y010120D02*
X019430Y010640D01*
X020430Y010640D02*
X020430Y010120D01*
X021430Y010120D02*
X021430Y010640D01*
X022430Y010640D02*
X022430Y010120D01*
X023430Y010120D02*
X023430Y010640D01*
X024430Y010640D02*
X024430Y010120D01*
X029420Y007380D02*
X029940Y007380D01*
X032420Y007380D02*
X032940Y007380D01*
X032940Y008380D02*
X032420Y008380D01*
X032420Y009380D02*
X032940Y009380D01*
X032940Y010380D02*
X032420Y010380D01*
X032420Y011380D02*
X032940Y011380D01*
X032940Y012380D02*
X032420Y012380D01*
X032420Y013380D02*
X032940Y013380D01*
X024430Y016120D02*
X024430Y016640D01*
X023430Y016640D02*
X023430Y016120D01*
X022430Y016120D02*
X022430Y016640D01*
X021430Y016640D02*
X021430Y016120D01*
X020430Y016120D02*
X020430Y016640D01*
X019430Y016640D02*
X019430Y016120D01*
X018430Y016120D02*
X018430Y016640D01*
X017430Y016640D02*
X017430Y016120D01*
X016430Y016120D02*
X016430Y016640D01*
X015430Y016640D02*
X015430Y016120D01*
X014430Y016120D02*
X014430Y016640D01*
X013430Y016640D02*
X013430Y016120D01*
X012430Y016120D02*
X012430Y016640D01*
X011430Y016640D02*
X011430Y016120D01*
D12*
X009930Y015130D03*
X008930Y015130D03*
X005930Y010880D03*
X005930Y009880D03*
X004430Y009880D03*
X004430Y010880D03*
X004430Y008380D03*
X003180Y008380D03*
X003180Y007380D03*
X004430Y007380D03*
X005930Y007380D03*
X007180Y007380D03*
X007180Y008380D03*
X005930Y008380D03*
X029680Y005880D03*
X030680Y005880D03*
X031680Y005880D03*
X032680Y005880D03*
X032680Y004880D03*
X031680Y004880D03*
X030680Y004630D03*
X031680Y004130D03*
X032680Y004130D03*
X030680Y003630D03*
X030680Y014630D03*
X031680Y014630D03*
D13*
X028930Y004630D03*
X027930Y004630D03*
X026930Y004630D03*
X025930Y004630D03*
X024930Y004630D03*
X023930Y004630D03*
X022930Y004630D03*
X021930Y004630D03*
X020930Y004630D03*
X019930Y004630D03*
X018930Y004630D03*
X017930Y004630D03*
X016930Y004630D03*
X015930Y004630D03*
X014930Y004630D03*
X013930Y004630D03*
X012930Y004630D03*
X012930Y003630D03*
X013930Y003630D03*
X014930Y003630D03*
X015930Y003630D03*
X016930Y003630D03*
X017930Y003630D03*
X018930Y003630D03*
X019930Y003630D03*
X020930Y003630D03*
X021930Y003630D03*
X022930Y003630D03*
X023930Y003630D03*
X024930Y003630D03*
X025930Y003630D03*
X026930Y003630D03*
X027930Y003630D03*
X028930Y003630D03*
D14*
X007149Y013624D02*
X007149Y014274D01*
X006164Y014274D02*
X006164Y013624D01*
X004196Y013624D02*
X004196Y014274D01*
X003211Y014274D02*
X003211Y013624D01*
X004855Y015917D02*
X005505Y015917D01*
D15*
X007180Y010030D03*
X003180Y010030D03*
D16*
X003180Y010730D03*
X007180Y010730D03*
D17*
X022930Y014218D03*
X022930Y014538D03*
D18*
X022930Y014583D02*
X022930Y014843D01*
X022656Y014843D01*
X022611Y014831D01*
X022569Y014807D01*
X022536Y014773D01*
X022512Y014732D01*
X022500Y014687D01*
X022500Y014538D01*
X022536Y014538D01*
X022536Y014538D01*
X022500Y014538D01*
X022500Y014502D01*
X022477Y014478D01*
X022440Y014390D01*
X022440Y014045D01*
X022477Y013957D01*
X022508Y013925D01*
X022506Y013923D01*
X022430Y013739D01*
X022430Y013021D01*
X022506Y012837D01*
X022647Y012696D01*
X022831Y012620D01*
X023029Y012620D01*
X023213Y012696D01*
X023354Y012837D01*
X023430Y013021D01*
X023506Y012837D01*
X023647Y012696D01*
X023831Y012620D01*
X024029Y012620D01*
X024213Y012696D01*
X024354Y012837D01*
X024430Y013021D01*
X024430Y013739D01*
X024354Y013923D01*
X024213Y014064D01*
X024029Y014140D01*
X023831Y014140D01*
X023647Y014064D01*
X023506Y013923D01*
X023430Y013739D01*
X023430Y013021D01*
X023430Y013739D01*
X023354Y013923D01*
X023352Y013925D01*
X023383Y013957D01*
X023420Y014045D01*
X023420Y014390D01*
X023383Y014478D01*
X023360Y014502D01*
X023360Y014538D01*
X023360Y014687D01*
X023348Y014732D01*
X023324Y014773D01*
X023291Y014807D01*
X023249Y014831D01*
X023204Y014843D01*
X022930Y014843D01*
X022930Y014583D01*
X022930Y014583D01*
X022930Y014701D02*
X022930Y014701D01*
X022504Y014701D02*
X022247Y014701D01*
X022250Y014694D02*
X022201Y014811D01*
X022111Y014901D01*
X021750Y015263D01*
X021750Y015733D01*
X021854Y015837D01*
X021930Y016021D01*
X022006Y015837D01*
X022147Y015696D01*
X022331Y015620D01*
X022529Y015620D01*
X022713Y015696D01*
X022854Y015837D01*
X022930Y016021D01*
X023006Y015837D01*
X023147Y015696D01*
X023172Y015686D01*
X023409Y015449D01*
X023499Y015359D01*
X023616Y015310D01*
X025047Y015310D01*
X025610Y014747D01*
X025610Y014027D01*
X025506Y013923D01*
X025430Y013739D01*
X025430Y013021D01*
X025506Y012837D01*
X025647Y012696D01*
X025831Y012620D01*
X026029Y012620D01*
X026213Y012696D01*
X026354Y012837D01*
X026430Y013021D01*
X026506Y012837D01*
X026647Y012696D01*
X026831Y012620D01*
X027029Y012620D01*
X027213Y012696D01*
X027354Y012837D01*
X027430Y013021D01*
X027506Y012837D01*
X027647Y012696D01*
X027831Y012620D01*
X028029Y012620D01*
X028213Y012696D01*
X028354Y012837D01*
X028430Y013021D01*
X028430Y013739D01*
X028354Y013923D01*
X028213Y014064D01*
X028029Y014140D01*
X027831Y014140D01*
X027647Y014064D01*
X027506Y013923D01*
X027430Y013739D01*
X027430Y013021D01*
X027430Y013739D01*
X027354Y013923D01*
X027250Y014027D01*
X027250Y014944D01*
X027201Y015061D01*
X027111Y015151D01*
X025611Y016651D01*
X025494Y016700D01*
X024930Y016700D01*
X024930Y016739D01*
X024854Y016923D01*
X024713Y017064D01*
X024529Y017140D01*
X024331Y017140D01*
X024147Y017064D01*
X024006Y016923D01*
X023930Y016739D01*
X023854Y016923D01*
X023713Y017064D01*
X023529Y017140D01*
X023331Y017140D01*
X023147Y017064D01*
X023006Y016923D01*
X022930Y016739D01*
X022930Y016021D01*
X022930Y016739D01*
X022854Y016923D01*
X022713Y017064D01*
X022529Y017140D01*
X022331Y017140D01*
X022147Y017064D01*
X022006Y016923D01*
X021930Y016739D01*
X021930Y016021D01*
X021930Y016739D01*
X021854Y016923D01*
X021713Y017064D01*
X021529Y017140D01*
X021331Y017140D01*
X021147Y017064D01*
X021006Y016923D01*
X020930Y016739D01*
X020854Y016923D01*
X020713Y017064D01*
X020529Y017140D01*
X020331Y017140D01*
X020147Y017064D01*
X020006Y016923D01*
X019930Y016739D01*
X019930Y016021D01*
X020006Y015837D01*
X020147Y015696D01*
X020331Y015620D01*
X020529Y015620D01*
X020713Y015696D01*
X020854Y015837D01*
X020930Y016021D01*
X020930Y016739D01*
X020930Y016021D01*
X021006Y015837D01*
X021110Y015733D01*
X021110Y015066D01*
X021159Y014949D01*
X021610Y014497D01*
X021610Y014027D01*
X021506Y013923D01*
X021430Y013739D01*
X021354Y013923D01*
X021213Y014064D01*
X021029Y014140D01*
X020831Y014140D01*
X020647Y014064D01*
X020506Y013923D01*
X020430Y013739D01*
X020430Y013021D01*
X020506Y012837D01*
X020647Y012696D01*
X020831Y012620D01*
X021029Y012620D01*
X021213Y012696D01*
X021354Y012837D01*
X021430Y013021D01*
X021430Y013739D01*
X021430Y013021D01*
X021506Y012837D01*
X021610Y012733D01*
X021610Y011816D01*
X021659Y011699D01*
X022159Y011199D01*
X022249Y011109D01*
X022252Y011107D01*
X022147Y011064D01*
X022006Y010923D01*
X021930Y010739D01*
X021854Y010923D01*
X021713Y011064D01*
X021529Y011140D01*
X021331Y011140D01*
X021147Y011064D01*
X021006Y010923D01*
X020930Y010739D01*
X020930Y010021D01*
X021006Y009837D01*
X021147Y009696D01*
X021331Y009620D01*
X021529Y009620D01*
X021713Y009696D01*
X021854Y009837D01*
X021930Y010021D01*
X021930Y010739D01*
X021930Y010021D01*
X022006Y009837D01*
X022147Y009696D01*
X022331Y009620D01*
X022529Y009620D01*
X022713Y009696D01*
X022854Y009837D01*
X022930Y010021D01*
X023006Y009837D01*
X023147Y009696D01*
X023331Y009620D01*
X023529Y009620D01*
X023614Y009655D01*
X023512Y009553D01*
X023512Y009207D01*
X023757Y008962D01*
X024103Y008962D01*
X024201Y009060D01*
X026019Y009060D01*
X026012Y009053D01*
X026012Y008707D01*
X026019Y008700D01*
X020563Y008700D01*
X020250Y009013D01*
X020250Y009653D01*
X020331Y009620D01*
X020529Y009620D01*
X020713Y009696D01*
X020854Y009837D01*
X020930Y010021D01*
X020930Y010739D01*
X020854Y010923D01*
X020713Y011064D01*
X020529Y011140D01*
X020331Y011140D01*
X020250Y011107D01*
X020250Y012733D01*
X020354Y012837D01*
X020430Y013021D01*
X020430Y013739D01*
X020354Y013923D01*
X020250Y014027D01*
X020250Y014694D01*
X020201Y014811D01*
X020111Y014901D01*
X019750Y015263D01*
X019750Y015733D01*
X019854Y015837D01*
X019930Y016021D01*
X019930Y016739D01*
X019854Y016923D01*
X019713Y017064D01*
X019529Y017140D01*
X019331Y017140D01*
X019147Y017064D01*
X019006Y016923D01*
X018930Y016739D01*
X018854Y016923D01*
X018713Y017064D01*
X018529Y017140D01*
X018331Y017140D01*
X018147Y017064D01*
X018006Y016923D01*
X017930Y016739D01*
X017854Y016923D01*
X017713Y017064D01*
X017529Y017140D01*
X017331Y017140D01*
X017147Y017064D01*
X017006Y016923D01*
X016930Y016739D01*
X016854Y016923D01*
X016713Y017064D01*
X016529Y017140D01*
X016331Y017140D01*
X016147Y017064D01*
X016006Y016923D01*
X015930Y016739D01*
X015854Y016923D01*
X015713Y017064D01*
X015529Y017140D01*
X015331Y017140D01*
X015147Y017064D01*
X015006Y016923D01*
X014930Y016739D01*
X014854Y016923D01*
X014713Y017064D01*
X014529Y017140D01*
X014331Y017140D01*
X014147Y017064D01*
X014006Y016923D01*
X013930Y016739D01*
X013854Y016923D01*
X013713Y017064D01*
X013529Y017140D01*
X013331Y017140D01*
X013147Y017064D01*
X013006Y016923D01*
X012930Y016739D01*
X012854Y016923D01*
X012713Y017064D01*
X012529Y017140D01*
X012331Y017140D01*
X012147Y017064D01*
X012006Y016923D01*
X011930Y016739D01*
X011854Y016923D01*
X011713Y017064D01*
X011529Y017140D01*
X011331Y017140D01*
X011147Y017064D01*
X011006Y016923D01*
X010930Y016739D01*
X010930Y016021D01*
X011006Y015837D01*
X011110Y015733D01*
X011110Y015066D01*
X011159Y014949D01*
X011249Y014859D01*
X011610Y014497D01*
X011610Y014027D01*
X011506Y013923D01*
X011430Y013739D01*
X011354Y013923D01*
X011213Y014064D01*
X011029Y014140D01*
X010831Y014140D01*
X010647Y014064D01*
X010506Y013923D01*
X010430Y013739D01*
X010354Y013923D01*
X010213Y014064D01*
X010029Y014140D01*
X009831Y014140D01*
X009647Y014064D01*
X009506Y013923D01*
X009430Y013739D01*
X009430Y013021D01*
X009506Y012837D01*
X009647Y012696D01*
X009831Y012620D01*
X010029Y012620D01*
X010213Y012696D01*
X010354Y012837D01*
X010430Y013021D01*
X010430Y013739D01*
X010430Y013021D01*
X010506Y012837D01*
X010610Y012733D01*
X010610Y012066D01*
X010659Y011949D01*
X011110Y011497D01*
X011110Y011027D01*
X011006Y010923D01*
X010930Y010739D01*
X010930Y010021D01*
X011006Y009837D01*
X011110Y009733D01*
X011110Y009263D01*
X010547Y008700D01*
X008116Y008700D01*
X007999Y008651D01*
X007680Y008333D01*
X007680Y008587D01*
X007387Y008880D01*
X006973Y008880D01*
X006793Y008700D01*
X006317Y008700D01*
X006250Y008767D01*
X006250Y009493D01*
X006430Y009673D01*
X006430Y009710D01*
X006821Y009710D01*
X006981Y009550D01*
X007379Y009550D01*
X007660Y009831D01*
X007660Y010229D01*
X007509Y010380D01*
X007587Y010458D01*
X007660Y010635D01*
X007660Y010825D01*
X007587Y011002D01*
X007469Y011120D01*
X007469Y013145D01*
X007627Y013304D01*
X007713Y013512D01*
X007713Y014386D01*
X007627Y014594D01*
X007468Y014753D01*
X007261Y014839D01*
X007036Y014839D01*
X006829Y014753D01*
X006670Y014594D01*
X006656Y014562D01*
X006643Y014594D01*
X006484Y014753D01*
X006277Y014839D01*
X006052Y014839D01*
X005844Y014753D01*
X005685Y014594D01*
X005599Y014386D01*
X005599Y014181D01*
X005584Y014219D01*
X005450Y014353D01*
X005275Y014425D01*
X005085Y014425D01*
X004910Y014353D01*
X004776Y014219D01*
X004761Y014181D01*
X004761Y014386D01*
X004675Y014594D01*
X004516Y014753D01*
X004308Y014839D01*
X004083Y014839D01*
X003876Y014753D01*
X003717Y014594D01*
X003704Y014562D01*
X003690Y014594D01*
X003531Y014753D01*
X003324Y014839D01*
X003099Y014839D01*
X002892Y014753D01*
X002733Y014594D01*
X002647Y014386D01*
X002647Y013512D01*
X002733Y013304D01*
X002891Y013145D01*
X002891Y011120D01*
X002773Y011002D01*
X002700Y010825D01*
X002700Y010635D01*
X002773Y010458D01*
X002851Y010380D01*
X002700Y010229D01*
X002700Y009831D01*
X002981Y009550D01*
X003379Y009550D01*
X003539Y009710D01*
X003930Y009710D01*
X003930Y009673D01*
X004110Y009493D01*
X004110Y008767D01*
X004043Y008700D01*
X003567Y008700D01*
X003387Y008880D01*
X002973Y008880D01*
X002680Y008587D01*
X002680Y008173D01*
X002973Y007880D01*
X002680Y007587D01*
X002680Y007173D01*
X002860Y006993D01*
X002860Y006316D01*
X002909Y006199D01*
X003409Y005699D01*
X003499Y005609D01*
X003616Y005560D01*
X011244Y005560D01*
X011361Y005609D01*
X012111Y006359D01*
X012201Y006449D01*
X012250Y006566D01*
X012250Y006733D01*
X012354Y006837D01*
X012430Y007021D01*
X012430Y007739D01*
X012354Y007923D01*
X012213Y008064D01*
X012029Y008140D01*
X011831Y008140D01*
X011647Y008064D01*
X011506Y007923D01*
X011430Y007739D01*
X011430Y007021D01*
X011506Y006837D01*
X011595Y006748D01*
X011047Y006200D01*
X003813Y006200D01*
X003500Y006513D01*
X003500Y006993D01*
X003680Y007173D01*
X003680Y007587D01*
X003387Y007880D01*
X002973Y007880D01*
X003387Y007880D01*
X003567Y008060D01*
X004043Y008060D01*
X004223Y007880D01*
X004637Y007880D01*
X004930Y008173D01*
X004930Y008587D01*
X004750Y008767D01*
X004750Y009493D01*
X004930Y009673D01*
X004930Y010087D01*
X004637Y010380D01*
X004223Y010380D01*
X004193Y010350D01*
X003539Y010350D01*
X003509Y010380D01*
X003587Y010458D01*
X003660Y010635D01*
X003660Y010825D01*
X003587Y011002D01*
X003531Y011057D01*
X003531Y013145D01*
X003690Y013304D01*
X003704Y013336D01*
X003717Y013304D01*
X003876Y013145D01*
X004083Y013059D01*
X004308Y013059D01*
X004516Y013145D01*
X004675Y013304D01*
X004761Y013512D01*
X004761Y013717D01*
X004776Y013679D01*
X004910Y013545D01*
X005085Y013473D01*
X005275Y013473D01*
X005450Y013545D01*
X005584Y013679D01*
X005599Y013717D01*
X005599Y013512D01*
X005685Y013304D01*
X005844Y013145D01*
X006052Y013059D01*
X006277Y013059D01*
X006484Y013145D01*
X006643Y013304D01*
X006656Y013336D01*
X006670Y013304D01*
X006829Y013145D01*
X006829Y011057D01*
X006773Y011002D01*
X006700Y010825D01*
X006700Y010635D01*
X006773Y010458D01*
X006851Y010380D01*
X006821Y010350D01*
X006167Y010350D01*
X006137Y010380D01*
X005723Y010380D01*
X005430Y010087D01*
X005430Y009673D01*
X005610Y009493D01*
X005610Y008767D01*
X005430Y008587D01*
X005430Y008173D01*
X005723Y007880D01*
X005543Y007700D01*
X004817Y007700D01*
X004637Y007880D01*
X004223Y007880D01*
X003930Y007587D01*
X003930Y007173D01*
X004223Y006880D01*
X004637Y006880D01*
X004817Y007060D01*
X005543Y007060D01*
X005723Y006880D01*
X005727Y006880D01*
X006159Y006449D01*
X006249Y006359D01*
X006366Y006310D01*
X010744Y006310D01*
X010861Y006359D01*
X011111Y006609D01*
X011188Y006686D01*
X011213Y006696D01*
X011354Y006837D01*
X011430Y007021D01*
X011430Y007739D01*
X011354Y007923D01*
X011213Y008064D01*
X011029Y008140D01*
X010893Y008140D01*
X010951Y008199D01*
X011680Y008927D01*
X012499Y008109D01*
X012616Y008060D01*
X012643Y008060D01*
X012506Y007923D01*
X012430Y007739D01*
X012430Y007021D01*
X012506Y006837D01*
X012647Y006696D01*
X012831Y006620D01*
X013029Y006620D01*
X013213Y006696D01*
X013354Y006837D01*
X013430Y007021D01*
X013506Y006837D01*
X013647Y006696D01*
X013831Y006620D01*
X014029Y006620D01*
X014213Y006696D01*
X014354Y006837D01*
X014430Y007021D01*
X014506Y006837D01*
X014647Y006696D01*
X014831Y006620D01*
X015029Y006620D01*
X015213Y006696D01*
X015354Y006837D01*
X015430Y007021D01*
X015506Y006837D01*
X015647Y006696D01*
X015831Y006620D01*
X016029Y006620D01*
X016177Y006681D01*
X017499Y005359D01*
X017616Y005310D01*
X021547Y005310D01*
X021610Y005247D01*
X021610Y005074D01*
X021430Y004894D01*
X021154Y005170D01*
X020706Y005170D01*
X020430Y004894D01*
X020154Y005170D01*
X019706Y005170D01*
X019430Y004894D01*
X019154Y005170D01*
X018706Y005170D01*
X018430Y004894D01*
X018154Y005170D01*
X017706Y005170D01*
X017430Y004894D01*
X017154Y005170D01*
X016706Y005170D01*
X016430Y004894D01*
X016154Y005170D01*
X015706Y005170D01*
X015430Y004894D01*
X015154Y005170D01*
X014706Y005170D01*
X014430Y004894D01*
X014154Y005170D01*
X013706Y005170D01*
X013430Y004894D01*
X013154Y005170D01*
X012706Y005170D01*
X012390Y004854D01*
X012390Y004406D01*
X012666Y004130D01*
X012390Y003854D01*
X012390Y003406D01*
X012426Y003370D01*
X002420Y003370D01*
X002420Y017260D01*
X002896Y017260D01*
X002808Y017171D01*
X002735Y016996D01*
X002735Y016807D01*
X002808Y016632D01*
X002942Y016498D01*
X003117Y016425D01*
X003306Y016425D01*
X003481Y016498D01*
X003615Y016632D01*
X003688Y016807D01*
X003688Y016996D01*
X003615Y017171D01*
X003527Y017260D01*
X006833Y017260D01*
X006745Y017171D01*
X006672Y016996D01*
X006672Y016807D01*
X006745Y016632D01*
X006879Y016498D01*
X007054Y016425D01*
X007243Y016425D01*
X007418Y016498D01*
X007552Y016632D01*
X007625Y016807D01*
X007625Y016996D01*
X007552Y017171D01*
X007464Y017260D01*
X033682Y017260D01*
X033682Y003370D01*
X031042Y003370D01*
X031120Y003448D01*
X031120Y003630D01*
X031120Y003810D01*
X031293Y003810D01*
X031473Y003630D01*
X031887Y003630D01*
X032180Y003923D01*
X032473Y003630D01*
X032887Y003630D01*
X033180Y003923D01*
X033180Y004337D01*
X033012Y004505D01*
X033180Y004673D01*
X033180Y005087D01*
X032887Y005380D01*
X033180Y005673D01*
X033180Y006087D01*
X032887Y006380D01*
X032473Y006380D01*
X032180Y006087D01*
X031887Y006380D01*
X031473Y006380D01*
X031180Y006087D01*
X031180Y005673D01*
X031473Y005380D01*
X031887Y005380D01*
X032180Y005673D01*
X032180Y006087D01*
X032180Y005673D01*
X032473Y005380D01*
X032887Y005380D01*
X032473Y005380D01*
X032293Y005200D01*
X032067Y005200D01*
X031887Y005380D01*
X031473Y005380D01*
X031180Y005087D01*
X031180Y004673D01*
X031348Y004505D01*
X031293Y004450D01*
X031180Y004450D01*
X031180Y004837D01*
X030887Y005130D01*
X030883Y005130D01*
X030633Y005380D01*
X030887Y005380D01*
X031180Y005673D01*
X031180Y006087D01*
X030887Y006380D01*
X030473Y006380D01*
X030180Y006087D01*
X029887Y006380D01*
X029473Y006380D01*
X029293Y006200D01*
X027366Y006200D01*
X027249Y006151D01*
X027159Y006061D01*
X026659Y005561D01*
X026610Y005444D01*
X026610Y005074D01*
X026430Y004894D01*
X026154Y005170D01*
X025706Y005170D01*
X025430Y004894D01*
X025250Y005074D01*
X025250Y006194D01*
X025201Y006311D01*
X024951Y006561D01*
X024893Y006620D01*
X025029Y006620D01*
X025213Y006696D01*
X025354Y006837D01*
X025430Y007021D01*
X025506Y006837D01*
X025647Y006696D01*
X025831Y006620D01*
X026029Y006620D01*
X026213Y006696D01*
X026354Y006837D01*
X026430Y007021D01*
X026506Y006837D01*
X026647Y006696D01*
X026831Y006620D01*
X027029Y006620D01*
X027213Y006696D01*
X027354Y006837D01*
X027430Y007021D01*
X027506Y006837D01*
X027647Y006696D01*
X027831Y006620D01*
X028029Y006620D01*
X028213Y006696D01*
X028354Y006837D01*
X028430Y007021D01*
X028430Y007739D01*
X028354Y007923D01*
X028217Y008060D01*
X029033Y008060D01*
X029137Y007956D01*
X029321Y007880D01*
X029137Y007804D01*
X028996Y007663D01*
X028920Y007479D01*
X028920Y007281D01*
X028996Y007097D01*
X029137Y006956D01*
X029321Y006880D01*
X030039Y006880D01*
X030223Y006956D01*
X030364Y007097D01*
X030440Y007281D01*
X030440Y007479D01*
X030364Y007663D01*
X030223Y007804D01*
X030039Y007880D01*
X029321Y007880D01*
X030039Y007880D01*
X030223Y007956D01*
X030364Y008097D01*
X030440Y008281D01*
X030440Y008479D01*
X030407Y008560D01*
X031953Y008560D01*
X031920Y008479D01*
X031920Y008281D01*
X031996Y008097D01*
X032137Y007956D01*
X032321Y007880D01*
X032137Y007804D01*
X031996Y007663D01*
X031920Y007479D01*
X031920Y007281D01*
X031996Y007097D01*
X032137Y006956D01*
X032321Y006880D01*
X033039Y006880D01*
X033223Y006956D01*
X033364Y007097D01*
X033440Y007281D01*
X033440Y007479D01*
X033364Y007663D01*
X033223Y007804D01*
X033039Y007880D01*
X032321Y007880D01*
X033039Y007880D01*
X033223Y007956D01*
X033364Y008097D01*
X033440Y008281D01*
X033440Y008479D01*
X033364Y008663D01*
X033223Y008804D01*
X033039Y008880D01*
X033223Y008956D01*
X033364Y009097D01*
X033440Y009281D01*
X033440Y009479D01*
X033364Y009663D01*
X033223Y009804D01*
X033039Y009880D01*
X033223Y009956D01*
X033364Y010097D01*
X033440Y010281D01*
X033440Y010479D01*
X033364Y010663D01*
X033223Y010804D01*
X033039Y010880D01*
X033223Y010956D01*
X033364Y011097D01*
X033440Y011281D01*
X033440Y011479D01*
X033364Y011663D01*
X033223Y011804D01*
X033039Y011880D01*
X033223Y011956D01*
X033364Y012097D01*
X033440Y012281D01*
X033440Y012479D01*
X033364Y012663D01*
X033223Y012804D01*
X033039Y012880D01*
X032321Y012880D01*
X032137Y012804D01*
X031996Y012663D01*
X031920Y012479D01*
X031920Y012281D01*
X031996Y012097D01*
X032137Y011956D01*
X032321Y011880D01*
X032137Y011804D01*
X031996Y011663D01*
X031920Y011479D01*
X031920Y011281D01*
X031996Y011097D01*
X032137Y010956D01*
X032321Y010880D01*
X033039Y010880D01*
X032321Y010880D01*
X032137Y010804D01*
X032033Y010700D01*
X031500Y010700D01*
X031500Y012444D01*
X031451Y012561D01*
X031361Y012651D01*
X031244Y012700D01*
X030327Y012700D01*
X030223Y012804D01*
X030039Y012880D01*
X030223Y012956D01*
X030364Y013097D01*
X030440Y013281D01*
X030440Y013479D01*
X030364Y013663D01*
X030223Y013804D01*
X030039Y013880D01*
X029321Y013880D01*
X029137Y013804D01*
X028996Y013663D01*
X028920Y013479D01*
X028920Y013281D01*
X028996Y013097D01*
X029137Y012956D01*
X029321Y012880D01*
X030039Y012880D01*
X029321Y012880D01*
X029137Y012804D01*
X028996Y012663D01*
X028920Y012479D01*
X028920Y012281D01*
X028996Y012097D01*
X029137Y011956D01*
X029321Y011880D01*
X030039Y011880D01*
X030223Y011956D01*
X030327Y012060D01*
X030860Y012060D01*
X030860Y010700D01*
X030327Y010700D01*
X030223Y010804D01*
X030039Y010880D01*
X029321Y010880D01*
X029137Y010804D01*
X028996Y010663D01*
X028920Y010479D01*
X028920Y010281D01*
X028996Y010097D01*
X029137Y009956D01*
X029321Y009880D01*
X030039Y009880D01*
X030223Y009956D01*
X030327Y010060D01*
X032033Y010060D01*
X032137Y009956D01*
X032321Y009880D01*
X033039Y009880D01*
X032321Y009880D01*
X032137Y009804D01*
X031996Y009663D01*
X031920Y009479D01*
X031920Y009281D01*
X031953Y009200D01*
X030407Y009200D01*
X030440Y009281D01*
X030440Y009479D01*
X030364Y009663D01*
X030223Y009804D01*
X030039Y009880D01*
X029321Y009880D01*
X029137Y009804D01*
X029033Y009700D01*
X024717Y009700D01*
X024854Y009837D01*
X024930Y010021D01*
X024930Y010739D01*
X024854Y010923D01*
X024717Y011060D01*
X029033Y011060D01*
X029137Y010956D01*
X029321Y010880D01*
X030039Y010880D01*
X030223Y010956D01*
X030364Y011097D01*
X030440Y011281D01*
X030440Y011479D01*
X030364Y011663D01*
X030223Y011804D01*
X030039Y011880D01*
X029321Y011880D01*
X029137Y011804D01*
X029033Y011700D01*
X022563Y011700D01*
X022250Y012013D01*
X022250Y012733D01*
X022354Y012837D01*
X022430Y013021D01*
X022430Y013739D01*
X022354Y013923D01*
X022250Y014027D01*
X022250Y014694D01*
X022250Y014542D02*
X022500Y014542D01*
X022440Y014384D02*
X022250Y014384D01*
X022250Y014225D02*
X022440Y014225D01*
X022440Y014067D02*
X022250Y014067D01*
X022360Y013908D02*
X022500Y013908D01*
X022434Y013750D02*
X022426Y013750D01*
X022430Y013591D02*
X022430Y013591D01*
X022430Y013433D02*
X022430Y013433D01*
X022430Y013274D02*
X022430Y013274D01*
X022430Y013116D02*
X022430Y013116D01*
X022404Y012957D02*
X022456Y012957D01*
X022544Y012799D02*
X022316Y012799D01*
X022250Y012640D02*
X022782Y012640D01*
X023078Y012640D02*
X023782Y012640D01*
X023544Y012799D02*
X023316Y012799D01*
X023404Y012957D02*
X023456Y012957D01*
X023430Y013116D02*
X023430Y013116D01*
X023430Y013274D02*
X023430Y013274D01*
X023430Y013433D02*
X023430Y013433D01*
X023430Y013591D02*
X023430Y013591D01*
X023426Y013750D02*
X023434Y013750D01*
X023500Y013908D02*
X023360Y013908D01*
X023420Y014067D02*
X023653Y014067D01*
X023420Y014225D02*
X025610Y014225D01*
X025610Y014067D02*
X025041Y014067D01*
X025033Y014069D02*
X024965Y014080D01*
X024930Y014080D01*
X024930Y013380D01*
X025370Y013380D01*
X025370Y013675D01*
X025359Y013743D01*
X025338Y013809D01*
X025306Y013871D01*
X025266Y013927D01*
X025217Y013976D01*
X025161Y014016D01*
X025099Y014048D01*
X025033Y014069D01*
X024930Y014067D02*
X024930Y014067D01*
X024930Y014080D02*
X024895Y014080D01*
X024827Y014069D01*
X024761Y014048D01*
X024699Y014016D01*
X024643Y013976D01*
X024594Y013927D01*
X024554Y013871D01*
X024522Y013809D01*
X024501Y013743D01*
X024490Y013675D01*
X024490Y013380D01*
X024930Y013380D01*
X024930Y013380D01*
X024930Y013380D01*
X025370Y013380D01*
X025370Y013085D01*
X025359Y013017D01*
X025338Y012951D01*
X025306Y012889D01*
X025266Y012833D01*
X025217Y012784D01*
X025161Y012744D01*
X025099Y012712D01*
X025033Y012691D01*
X024965Y012680D01*
X024930Y012680D01*
X024930Y013380D01*
X024930Y013380D01*
X024930Y013380D01*
X024930Y014080D01*
X024819Y014067D02*
X024207Y014067D01*
X024360Y013908D02*
X024581Y013908D01*
X024503Y013750D02*
X024426Y013750D01*
X024430Y013591D02*
X024490Y013591D01*
X024490Y013433D02*
X024430Y013433D01*
X024490Y013380D02*
X024490Y013085D01*
X024501Y013017D01*
X024522Y012951D01*
X024554Y012889D01*
X024594Y012833D01*
X024643Y012784D01*
X024699Y012744D01*
X024761Y012712D01*
X024827Y012691D01*
X024895Y012680D01*
X024930Y012680D01*
X024930Y013380D01*
X024490Y013380D01*
X024490Y013274D02*
X024430Y013274D01*
X024430Y013116D02*
X024490Y013116D01*
X024520Y012957D02*
X024404Y012957D01*
X024316Y012799D02*
X024629Y012799D01*
X024930Y012799D02*
X024930Y012799D01*
X024930Y012957D02*
X024930Y012957D01*
X024930Y013116D02*
X024930Y013116D01*
X024930Y013274D02*
X024930Y013274D01*
X024930Y013433D02*
X024930Y013433D01*
X024930Y013591D02*
X024930Y013591D01*
X024930Y013750D02*
X024930Y013750D01*
X024930Y013908D02*
X024930Y013908D01*
X025279Y013908D02*
X025500Y013908D01*
X025434Y013750D02*
X025357Y013750D01*
X025370Y013591D02*
X025430Y013591D01*
X025430Y013433D02*
X025370Y013433D01*
X025370Y013274D02*
X025430Y013274D01*
X025430Y013116D02*
X025370Y013116D01*
X025340Y012957D02*
X025456Y012957D01*
X025544Y012799D02*
X025231Y012799D01*
X025782Y012640D02*
X024078Y012640D01*
X022930Y013380D02*
X022930Y014218D01*
X023324Y014538D02*
X023360Y014538D01*
X023324Y014538D01*
X023324Y014538D01*
X023360Y014542D02*
X025610Y014542D01*
X025610Y014384D02*
X023420Y014384D01*
X023356Y014701D02*
X025610Y014701D01*
X025498Y014859D02*
X022154Y014859D01*
X021995Y015018D02*
X025340Y015018D01*
X025181Y015176D02*
X021837Y015176D01*
X021750Y015335D02*
X023557Y015335D01*
X023364Y015493D02*
X021750Y015493D01*
X021750Y015652D02*
X022254Y015652D01*
X022033Y015810D02*
X021827Y015810D01*
X021908Y015969D02*
X021952Y015969D01*
X021930Y016127D02*
X021930Y016127D01*
X021930Y016286D02*
X021930Y016286D01*
X021930Y016444D02*
X021930Y016444D01*
X021930Y016603D02*
X021930Y016603D01*
X021921Y016761D02*
X021939Y016761D01*
X022005Y016920D02*
X021855Y016920D01*
X021679Y017078D02*
X022181Y017078D01*
X022679Y017078D02*
X023181Y017078D01*
X023005Y016920D02*
X022855Y016920D01*
X022921Y016761D02*
X022939Y016761D01*
X022930Y016603D02*
X022930Y016603D01*
X022930Y016444D02*
X022930Y016444D01*
X022930Y016286D02*
X022930Y016286D01*
X022930Y016127D02*
X022930Y016127D01*
X022908Y015969D02*
X022952Y015969D01*
X023033Y015810D02*
X022827Y015810D01*
X022606Y015652D02*
X023206Y015652D01*
X023430Y015880D02*
X023680Y015630D01*
X025180Y015630D01*
X025930Y014880D01*
X025930Y013380D01*
X026430Y013433D02*
X026430Y013433D01*
X026430Y013591D02*
X026430Y013591D01*
X026430Y013739D02*
X026430Y013021D01*
X026430Y013739D01*
X026506Y013923D01*
X026610Y014027D01*
X026610Y014747D01*
X025297Y016060D01*
X024930Y016060D01*
X024930Y016021D01*
X024901Y015950D01*
X025244Y015950D01*
X025361Y015901D01*
X026111Y015151D01*
X026201Y015061D01*
X026250Y014944D01*
X026250Y014027D01*
X026354Y013923D01*
X026430Y013739D01*
X026426Y013750D02*
X026434Y013750D01*
X026500Y013908D02*
X026360Y013908D01*
X026250Y014067D02*
X026610Y014067D01*
X026610Y014225D02*
X026250Y014225D01*
X026250Y014384D02*
X026610Y014384D01*
X026610Y014542D02*
X026250Y014542D01*
X026250Y014701D02*
X026610Y014701D01*
X026498Y014859D02*
X026250Y014859D01*
X026219Y015018D02*
X026340Y015018D01*
X026181Y015176D02*
X026087Y015176D01*
X026023Y015335D02*
X025928Y015335D01*
X025864Y015493D02*
X025770Y015493D01*
X025706Y015652D02*
X025611Y015652D01*
X025547Y015810D02*
X025453Y015810D01*
X025389Y015969D02*
X024908Y015969D01*
X024430Y016380D02*
X025430Y016380D01*
X026930Y014880D01*
X026930Y013380D01*
X027430Y013433D02*
X027430Y013433D01*
X027430Y013591D02*
X027430Y013591D01*
X027426Y013750D02*
X027434Y013750D01*
X027500Y013908D02*
X027360Y013908D01*
X027250Y014067D02*
X027653Y014067D01*
X027250Y014225D02*
X030378Y014225D01*
X030473Y014130D02*
X030887Y014130D01*
X031180Y014423D01*
X031180Y014837D01*
X030887Y015130D01*
X030473Y015130D01*
X030180Y014837D01*
X030180Y014423D01*
X030473Y014130D01*
X030219Y014384D02*
X027250Y014384D01*
X027250Y014542D02*
X030180Y014542D01*
X030180Y014701D02*
X027250Y014701D01*
X027250Y014859D02*
X030202Y014859D01*
X030360Y015018D02*
X027219Y015018D01*
X027111Y015151D02*
X027111Y015151D01*
X027087Y015176D02*
X033682Y015176D01*
X033682Y015018D02*
X031915Y015018D01*
X031862Y015070D02*
X031680Y015070D01*
X031680Y014630D01*
X032120Y014630D01*
X032120Y014812D01*
X031862Y015070D01*
X031680Y015070D02*
X031498Y015070D01*
X031240Y014812D01*
X031240Y014630D01*
X031680Y014630D01*
X031680Y014630D01*
X031680Y014630D01*
X032120Y014630D01*
X032120Y014448D01*
X031862Y014190D01*
X031680Y014190D01*
X031680Y014630D01*
X031680Y014630D01*
X031680Y014630D01*
X031680Y015070D01*
X031680Y015018D02*
X031680Y015018D01*
X031680Y014859D02*
X031680Y014859D01*
X031680Y014701D02*
X031680Y014701D01*
X031680Y014630D02*
X031240Y014630D01*
X031240Y014448D01*
X031498Y014190D01*
X031680Y014190D01*
X031680Y014630D01*
X031680Y014542D02*
X031680Y014542D01*
X031680Y014384D02*
X031680Y014384D01*
X031680Y014225D02*
X031680Y014225D01*
X031897Y014225D02*
X033682Y014225D01*
X033682Y014067D02*
X028207Y014067D01*
X028360Y013908D02*
X033682Y013908D01*
X033682Y013750D02*
X033180Y013750D01*
X033171Y013756D02*
X033109Y013788D01*
X033043Y013809D01*
X032975Y013820D01*
X032680Y013820D01*
X032680Y013380D01*
X032680Y013380D01*
X033380Y013380D01*
X033380Y013415D01*
X033369Y013483D01*
X033348Y013549D01*
X033316Y013611D01*
X033276Y013667D01*
X033227Y013716D01*
X033171Y013756D01*
X033326Y013591D02*
X033682Y013591D01*
X033682Y013433D02*
X033377Y013433D01*
X033380Y013380D02*
X032680Y013380D01*
X032680Y013380D01*
X032680Y013820D01*
X032385Y013820D01*
X032317Y013809D01*
X032251Y013788D01*
X032189Y013756D01*
X032133Y013716D01*
X032084Y013667D01*
X032044Y013611D01*
X032012Y013549D01*
X031991Y013483D01*
X031980Y013415D01*
X031980Y013380D01*
X032680Y013380D01*
X032680Y012940D01*
X032975Y012940D01*
X033043Y012951D01*
X033109Y012972D01*
X033171Y013004D01*
X033227Y013044D01*
X033276Y013093D01*
X033316Y013149D01*
X033348Y013211D01*
X033369Y013277D01*
X033380Y013345D01*
X033380Y013380D01*
X033368Y013274D02*
X033682Y013274D01*
X033682Y013116D02*
X033292Y013116D01*
X033062Y012957D02*
X033682Y012957D01*
X033682Y012799D02*
X033229Y012799D01*
X033373Y012640D02*
X033682Y012640D01*
X033682Y012482D02*
X033439Y012482D01*
X033440Y012323D02*
X033682Y012323D01*
X033682Y012165D02*
X033392Y012165D01*
X033273Y012006D02*
X033682Y012006D01*
X033682Y011848D02*
X033118Y011848D01*
X033039Y011880D02*
X033000Y011880D01*
X033039Y011880D01*
X033000Y011880D02*
X033000Y011880D01*
X033338Y011689D02*
X033682Y011689D01*
X033682Y011531D02*
X033419Y011531D01*
X033440Y011372D02*
X033682Y011372D01*
X033682Y011214D02*
X033412Y011214D01*
X033322Y011055D02*
X033682Y011055D01*
X033682Y010897D02*
X033079Y010897D01*
X033289Y010738D02*
X033682Y010738D01*
X033682Y010580D02*
X033399Y010580D01*
X033440Y010421D02*
X033682Y010421D01*
X033682Y010263D02*
X033433Y010263D01*
X033367Y010104D02*
X033682Y010104D01*
X033682Y009946D02*
X033198Y009946D01*
X033240Y009787D02*
X033682Y009787D01*
X033682Y009629D02*
X033378Y009629D01*
X033440Y009470D02*
X033682Y009470D01*
X033682Y009312D02*
X033440Y009312D01*
X033387Y009153D02*
X033682Y009153D01*
X033682Y008995D02*
X033262Y008995D01*
X033146Y008836D02*
X033682Y008836D01*
X033682Y008678D02*
X033350Y008678D01*
X033424Y008519D02*
X033682Y008519D01*
X033682Y008361D02*
X033440Y008361D01*
X033407Y008202D02*
X033682Y008202D01*
X033682Y008044D02*
X033311Y008044D01*
X033052Y007885D02*
X033682Y007885D01*
X033682Y007727D02*
X033301Y007727D01*
X033403Y007568D02*
X033682Y007568D01*
X033682Y007410D02*
X033440Y007410D01*
X033428Y007251D02*
X033682Y007251D01*
X033682Y007093D02*
X033360Y007093D01*
X033170Y006934D02*
X033682Y006934D01*
X033682Y006776D02*
X028293Y006776D01*
X028394Y006934D02*
X029190Y006934D01*
X029000Y007093D02*
X028430Y007093D01*
X028430Y007251D02*
X028932Y007251D01*
X028920Y007410D02*
X028430Y007410D01*
X028430Y007568D02*
X028957Y007568D01*
X029059Y007727D02*
X028430Y007727D01*
X028370Y007885D02*
X029308Y007885D01*
X029049Y008044D02*
X028234Y008044D01*
X027643Y008060D02*
X027506Y007923D01*
X027430Y007739D01*
X027430Y007021D01*
X027430Y007739D01*
X027354Y007923D01*
X027217Y008060D01*
X027643Y008060D01*
X027626Y008044D02*
X027234Y008044D01*
X027370Y007885D02*
X027490Y007885D01*
X027430Y007727D02*
X027430Y007727D01*
X027430Y007568D02*
X027430Y007568D01*
X027430Y007410D02*
X027430Y007410D01*
X027430Y007251D02*
X027430Y007251D01*
X027430Y007093D02*
X027430Y007093D01*
X027394Y006934D02*
X027466Y006934D01*
X027567Y006776D02*
X027293Y006776D01*
X026567Y006776D02*
X026293Y006776D01*
X026394Y006934D02*
X026466Y006934D01*
X026430Y007021D02*
X026430Y007739D01*
X026506Y007923D01*
X026643Y008060D01*
X026217Y008060D01*
X026354Y007923D01*
X026430Y007739D01*
X026430Y007021D01*
X026430Y007093D02*
X026430Y007093D01*
X026430Y007251D02*
X026430Y007251D01*
X026430Y007410D02*
X026430Y007410D01*
X026430Y007568D02*
X026430Y007568D01*
X026430Y007727D02*
X026430Y007727D01*
X026370Y007885D02*
X026490Y007885D01*
X026626Y008044D02*
X026234Y008044D01*
X025643Y008060D02*
X025506Y007923D01*
X025430Y007739D01*
X025430Y007021D01*
X025430Y007739D01*
X025354Y007923D01*
X025217Y008060D01*
X025643Y008060D01*
X025626Y008044D02*
X025234Y008044D01*
X025370Y007885D02*
X025490Y007885D01*
X025430Y007727D02*
X025430Y007727D01*
X025430Y007568D02*
X025430Y007568D01*
X025430Y007410D02*
X025430Y007410D01*
X025430Y007251D02*
X025430Y007251D01*
X025430Y007093D02*
X025430Y007093D01*
X025394Y006934D02*
X025466Y006934D01*
X025567Y006776D02*
X025293Y006776D01*
X024896Y006617D02*
X033682Y006617D01*
X033682Y006459D02*
X025054Y006459D01*
X025206Y006300D02*
X029393Y006300D01*
X029967Y006300D02*
X030393Y006300D01*
X030234Y006142D02*
X030126Y006142D01*
X030180Y006087D02*
X030180Y005833D01*
X030180Y005833D01*
X030180Y006087D01*
X030180Y005983D02*
X030180Y005983D01*
X029680Y005880D02*
X027430Y005880D01*
X026930Y005380D01*
X026930Y004630D01*
X027250Y005074D02*
X027430Y004894D01*
X027706Y005170D01*
X028154Y005170D01*
X028470Y004854D01*
X028470Y004849D01*
X028731Y005110D01*
X028910Y005110D01*
X028910Y004650D01*
X028950Y004650D01*
X029410Y004650D01*
X029410Y004829D01*
X029129Y005110D01*
X028950Y005110D01*
X028950Y004650D01*
X028950Y004610D01*
X029410Y004610D01*
X029410Y004450D01*
X030180Y004450D01*
X030180Y004837D01*
X030225Y004882D01*
X029727Y005380D01*
X029473Y005380D01*
X029293Y005560D01*
X027563Y005560D01*
X027250Y005247D01*
X027250Y005074D01*
X027292Y005032D02*
X027568Y005032D01*
X027250Y005191D02*
X029917Y005191D01*
X029758Y005349D02*
X027352Y005349D01*
X027510Y005508D02*
X029345Y005508D01*
X029207Y005032D02*
X030075Y005032D01*
X030216Y004874D02*
X029365Y004874D01*
X029410Y004715D02*
X030180Y004715D01*
X030180Y004557D02*
X029410Y004557D01*
X028950Y004715D02*
X028910Y004715D01*
X028910Y004874D02*
X028950Y004874D01*
X028950Y005032D02*
X028910Y005032D01*
X028653Y005032D02*
X028292Y005032D01*
X028450Y004874D02*
X028495Y004874D01*
X029680Y005880D02*
X030680Y004880D01*
X030680Y004630D01*
X031180Y004557D02*
X031296Y004557D01*
X031180Y004715D02*
X031180Y004715D01*
X031180Y004874D02*
X031144Y004874D01*
X031180Y005032D02*
X030985Y005032D01*
X030822Y005191D02*
X031283Y005191D01*
X031442Y005349D02*
X030664Y005349D01*
X031015Y005508D02*
X031345Y005508D01*
X031187Y005666D02*
X031173Y005666D01*
X031180Y005825D02*
X031180Y005825D01*
X031180Y005983D02*
X031180Y005983D01*
X031126Y006142D02*
X031234Y006142D01*
X031393Y006300D02*
X030967Y006300D01*
X031967Y006300D02*
X032393Y006300D01*
X032234Y006142D02*
X032126Y006142D01*
X032180Y005983D02*
X032180Y005983D01*
X032180Y005825D02*
X032180Y005825D01*
X032173Y005666D02*
X032187Y005666D01*
X032345Y005508D02*
X032015Y005508D01*
X031918Y005349D02*
X032442Y005349D01*
X032918Y005349D02*
X033682Y005349D01*
X033682Y005191D02*
X033077Y005191D01*
X033180Y005032D02*
X033682Y005032D01*
X033682Y004874D02*
X033180Y004874D01*
X033180Y004715D02*
X033682Y004715D01*
X033682Y004557D02*
X033064Y004557D01*
X033119Y004398D02*
X033682Y004398D01*
X033682Y004240D02*
X033180Y004240D01*
X033180Y004081D02*
X033682Y004081D01*
X033682Y003923D02*
X033180Y003923D01*
X033021Y003764D02*
X033682Y003764D01*
X033682Y003606D02*
X031120Y003606D01*
X031120Y003630D02*
X030680Y003630D01*
X031120Y003630D01*
X031120Y003764D02*
X031339Y003764D01*
X030680Y003630D02*
X030680Y003630D01*
X030680Y003630D01*
X030240Y003630D01*
X030240Y003810D01*
X029410Y003810D01*
X029410Y003650D01*
X028950Y003650D01*
X028950Y003610D01*
X029410Y003610D01*
X029410Y003431D01*
X029349Y003370D01*
X030318Y003370D01*
X030240Y003448D01*
X030240Y003630D01*
X030680Y003630D01*
X031119Y003447D02*
X033682Y003447D01*
X032680Y004130D02*
X032680Y004880D01*
X031680Y004880D01*
X032012Y004505D02*
X032067Y004560D01*
X032293Y004560D01*
X032348Y004505D01*
X032180Y004337D01*
X032180Y003923D01*
X032180Y004337D01*
X032012Y004505D01*
X032064Y004557D02*
X032296Y004557D01*
X032241Y004398D02*
X032119Y004398D01*
X032180Y004240D02*
X032180Y004240D01*
X032180Y004081D02*
X032180Y004081D01*
X032180Y003923D02*
X032180Y003923D01*
X032021Y003764D02*
X032339Y003764D01*
X031680Y004130D02*
X026430Y004130D01*
X025930Y004630D01*
X025568Y005032D02*
X025292Y005032D01*
X025250Y005191D02*
X026610Y005191D01*
X026610Y005349D02*
X025250Y005349D01*
X025250Y005508D02*
X026636Y005508D01*
X026763Y005666D02*
X025250Y005666D01*
X025250Y005825D02*
X026922Y005825D01*
X027080Y005983D02*
X025250Y005983D01*
X025250Y006142D02*
X027239Y006142D01*
X026568Y005032D02*
X026292Y005032D01*
X024930Y004630D02*
X024930Y006130D01*
X024680Y006380D01*
X019930Y006380D01*
X019430Y006880D01*
X019430Y007880D01*
X017930Y009380D01*
X017930Y013380D01*
X017930Y014630D01*
X017430Y015130D01*
X017430Y016380D01*
X017930Y016444D02*
X017930Y016444D01*
X017930Y016286D02*
X017930Y016286D01*
X017930Y016127D02*
X017930Y016127D01*
X017930Y016021D02*
X017930Y016739D01*
X017930Y016021D01*
X017854Y015837D01*
X017750Y015733D01*
X017750Y015263D01*
X018111Y014901D01*
X018201Y014811D01*
X018250Y014694D01*
X018250Y014027D01*
X018354Y013923D01*
X018430Y013739D01*
X018430Y013021D01*
X018354Y012837D01*
X018250Y012733D01*
X018250Y011107D01*
X018331Y011140D01*
X018529Y011140D01*
X018610Y011107D01*
X018610Y012733D01*
X018506Y012837D01*
X018430Y013021D01*
X018430Y013739D01*
X018506Y013923D01*
X018610Y014027D01*
X018610Y014497D01*
X018159Y014949D01*
X018110Y015066D01*
X018110Y015733D01*
X018006Y015837D01*
X017930Y016021D01*
X017908Y015969D02*
X017952Y015969D01*
X018033Y015810D02*
X017827Y015810D01*
X017750Y015652D02*
X018110Y015652D01*
X018110Y015493D02*
X017750Y015493D01*
X017750Y015335D02*
X018110Y015335D01*
X018110Y015176D02*
X017837Y015176D01*
X017995Y015018D02*
X018130Y015018D01*
X018154Y014859D02*
X018248Y014859D01*
X018247Y014701D02*
X018407Y014701D01*
X018250Y014542D02*
X018565Y014542D01*
X018610Y014384D02*
X018250Y014384D01*
X018250Y014225D02*
X018610Y014225D01*
X018610Y014067D02*
X018250Y014067D01*
X018360Y013908D02*
X018500Y013908D01*
X018434Y013750D02*
X018426Y013750D01*
X018430Y013591D02*
X018430Y013591D01*
X018430Y013433D02*
X018430Y013433D01*
X018430Y013274D02*
X018430Y013274D01*
X018430Y013116D02*
X018430Y013116D01*
X018404Y012957D02*
X018456Y012957D01*
X018544Y012799D02*
X018316Y012799D01*
X018250Y012640D02*
X018610Y012640D01*
X018610Y012482D02*
X018250Y012482D01*
X018250Y012323D02*
X018610Y012323D01*
X018610Y012165D02*
X018250Y012165D01*
X018250Y012006D02*
X018610Y012006D01*
X018610Y011848D02*
X018250Y011848D01*
X018250Y011689D02*
X018610Y011689D01*
X018610Y011531D02*
X018250Y011531D01*
X018250Y011372D02*
X018610Y011372D01*
X018610Y011214D02*
X018250Y011214D01*
X017610Y011214D02*
X017250Y011214D01*
X017250Y011107D02*
X017331Y011140D01*
X017529Y011140D01*
X017610Y011107D01*
X017610Y012733D01*
X017506Y012837D01*
X017430Y013021D01*
X017430Y013739D01*
X017354Y013923D01*
X017250Y014027D01*
X017250Y014694D01*
X017201Y014811D01*
X017111Y014901D01*
X016750Y015263D01*
X016750Y015733D01*
X016854Y015837D01*
X016930Y016021D01*
X016930Y016739D01*
X016930Y016021D01*
X017006Y015837D01*
X017110Y015733D01*
X017110Y015066D01*
X017159Y014949D01*
X017610Y014497D01*
X017610Y014027D01*
X017506Y013923D01*
X017430Y013739D01*
X017430Y013021D01*
X017354Y012837D01*
X017250Y012733D01*
X017250Y011107D01*
X017250Y011372D02*
X017610Y011372D01*
X017610Y011531D02*
X017250Y011531D01*
X017250Y011689D02*
X017610Y011689D01*
X017610Y011848D02*
X017250Y011848D01*
X017250Y012006D02*
X017610Y012006D01*
X017610Y012165D02*
X017250Y012165D01*
X017250Y012323D02*
X017610Y012323D01*
X017610Y012482D02*
X017250Y012482D01*
X017250Y012640D02*
X017610Y012640D01*
X017544Y012799D02*
X017316Y012799D01*
X017404Y012957D02*
X017456Y012957D01*
X017430Y013116D02*
X017430Y013116D01*
X017430Y013274D02*
X017430Y013274D01*
X017430Y013433D02*
X017430Y013433D01*
X017430Y013591D02*
X017430Y013591D01*
X017426Y013750D02*
X017434Y013750D01*
X017500Y013908D02*
X017360Y013908D01*
X017250Y014067D02*
X017610Y014067D01*
X017610Y014225D02*
X017250Y014225D01*
X017250Y014384D02*
X017610Y014384D01*
X017565Y014542D02*
X017250Y014542D01*
X017247Y014701D02*
X017407Y014701D01*
X017248Y014859D02*
X017154Y014859D01*
X017130Y015018D02*
X016995Y015018D01*
X017110Y015176D02*
X016837Y015176D01*
X016750Y015335D02*
X017110Y015335D01*
X017110Y015493D02*
X016750Y015493D01*
X016750Y015652D02*
X017110Y015652D01*
X017033Y015810D02*
X016827Y015810D01*
X016908Y015969D02*
X016952Y015969D01*
X016930Y016127D02*
X016930Y016127D01*
X016930Y016286D02*
X016930Y016286D01*
X016930Y016444D02*
X016930Y016444D01*
X016930Y016603D02*
X016930Y016603D01*
X016921Y016761D02*
X016939Y016761D01*
X017005Y016920D02*
X016855Y016920D01*
X016679Y017078D02*
X017181Y017078D01*
X017679Y017078D02*
X018181Y017078D01*
X018005Y016920D02*
X017855Y016920D01*
X017921Y016761D02*
X017939Y016761D01*
X017930Y016603D02*
X017930Y016603D01*
X018430Y016380D02*
X018430Y015130D01*
X018930Y014630D01*
X018930Y013380D01*
X018930Y008880D01*
X019430Y008380D01*
X019930Y008880D02*
X020430Y008380D01*
X029680Y008380D01*
X030311Y008044D02*
X032049Y008044D01*
X031953Y008202D02*
X030407Y008202D01*
X030440Y008361D02*
X031920Y008361D01*
X031936Y008519D02*
X030424Y008519D01*
X030052Y007885D02*
X032308Y007885D01*
X032059Y007727D02*
X030301Y007727D01*
X030403Y007568D02*
X031957Y007568D01*
X031920Y007410D02*
X030440Y007410D01*
X030428Y007251D02*
X031932Y007251D01*
X032000Y007093D02*
X030360Y007093D01*
X030170Y006934D02*
X032190Y006934D01*
X032967Y006300D02*
X033682Y006300D01*
X033682Y006142D02*
X033126Y006142D01*
X033180Y005983D02*
X033682Y005983D01*
X033682Y005825D02*
X033180Y005825D01*
X033173Y005666D02*
X033682Y005666D01*
X033682Y005508D02*
X033015Y005508D01*
X030240Y003764D02*
X029410Y003764D01*
X029410Y003606D02*
X030240Y003606D01*
X030241Y003447D02*
X029410Y003447D01*
X023930Y004630D02*
X023930Y005880D01*
X023680Y006130D01*
X019180Y006130D01*
X018430Y006880D01*
X018430Y007880D01*
X016930Y009380D01*
X016180Y009380D01*
X015930Y009630D01*
X015930Y013380D01*
X015930Y014630D01*
X015430Y015130D01*
X015430Y016380D01*
X015930Y016444D02*
X015930Y016444D01*
X015930Y016286D02*
X015930Y016286D01*
X015930Y016127D02*
X015930Y016127D01*
X015930Y016021D02*
X015930Y016739D01*
X015930Y016021D01*
X015854Y015837D01*
X015750Y015733D01*
X015750Y015263D01*
X016111Y014901D01*
X016201Y014811D01*
X016250Y014694D01*
X016250Y014027D01*
X016354Y013923D01*
X016430Y013739D01*
X016430Y013021D01*
X016354Y012837D01*
X016250Y012733D01*
X016250Y011042D01*
X016261Y011048D01*
X016327Y011069D01*
X016395Y011080D01*
X016430Y011080D01*
X016430Y010380D01*
X016610Y010380D01*
X016610Y010380D01*
X016430Y010380D01*
X016430Y010380D01*
X016430Y010380D01*
X016250Y010380D01*
X016250Y010380D01*
X016430Y010380D01*
X016430Y010380D01*
X016430Y009700D01*
X016430Y009700D01*
X016430Y010380D01*
X016430Y010380D01*
X016430Y011080D01*
X016465Y011080D01*
X016533Y011069D01*
X016599Y011048D01*
X016610Y011042D01*
X016610Y012733D01*
X016506Y012837D01*
X016430Y013021D01*
X016430Y013739D01*
X016506Y013923D01*
X016610Y014027D01*
X016610Y014497D01*
X016159Y014949D01*
X016110Y015066D01*
X016110Y015733D01*
X016006Y015837D01*
X015930Y016021D01*
X015908Y015969D02*
X015952Y015969D01*
X016033Y015810D02*
X015827Y015810D01*
X015750Y015652D02*
X016110Y015652D01*
X016110Y015493D02*
X015750Y015493D01*
X015750Y015335D02*
X016110Y015335D01*
X016110Y015176D02*
X015837Y015176D01*
X015995Y015018D02*
X016130Y015018D01*
X016154Y014859D02*
X016248Y014859D01*
X016247Y014701D02*
X016407Y014701D01*
X016250Y014542D02*
X016565Y014542D01*
X016610Y014384D02*
X016250Y014384D01*
X016250Y014225D02*
X016610Y014225D01*
X016610Y014067D02*
X016250Y014067D01*
X016360Y013908D02*
X016500Y013908D01*
X016434Y013750D02*
X016426Y013750D01*
X016430Y013591D02*
X016430Y013591D01*
X016430Y013433D02*
X016430Y013433D01*
X016430Y013274D02*
X016430Y013274D01*
X016430Y013116D02*
X016430Y013116D01*
X016404Y012957D02*
X016456Y012957D01*
X016544Y012799D02*
X016316Y012799D01*
X016250Y012640D02*
X016610Y012640D01*
X016610Y012482D02*
X016250Y012482D01*
X016250Y012323D02*
X016610Y012323D01*
X016610Y012165D02*
X016250Y012165D01*
X016250Y012006D02*
X016610Y012006D01*
X016610Y011848D02*
X016250Y011848D01*
X016250Y011689D02*
X016610Y011689D01*
X016610Y011531D02*
X016250Y011531D01*
X016250Y011372D02*
X016610Y011372D01*
X016610Y011214D02*
X016250Y011214D01*
X016250Y011055D02*
X016283Y011055D01*
X016430Y011055D02*
X016430Y011055D01*
X016577Y011055D02*
X016610Y011055D01*
X016430Y010897D02*
X016430Y010897D01*
X016430Y010738D02*
X016430Y010738D01*
X016430Y010580D02*
X016430Y010580D01*
X016430Y010421D02*
X016430Y010421D01*
X016430Y010263D02*
X016430Y010263D01*
X016430Y010104D02*
X016430Y010104D01*
X016430Y009946D02*
X016430Y009946D01*
X016430Y009787D02*
X016430Y009787D01*
X016930Y009880D02*
X018430Y008380D01*
X017430Y008380D02*
X016680Y009130D01*
X015180Y009130D01*
X014930Y009380D01*
X014930Y013380D01*
X014930Y014630D01*
X014430Y015130D01*
X014430Y016380D01*
X014930Y016444D02*
X014930Y016444D01*
X014930Y016286D02*
X014930Y016286D01*
X014930Y016127D02*
X014930Y016127D01*
X014930Y016021D02*
X014930Y016739D01*
X014930Y016021D01*
X014854Y015837D01*
X014750Y015733D01*
X014750Y015263D01*
X015111Y014901D01*
X015111Y014901D01*
X015201Y014811D01*
X015250Y014694D01*
X015250Y014027D01*
X015354Y013923D01*
X015430Y013739D01*
X015430Y013021D01*
X015354Y012837D01*
X015250Y012733D01*
X015250Y011107D01*
X015331Y011140D01*
X015529Y011140D01*
X015610Y011107D01*
X015610Y012733D01*
X015506Y012837D01*
X015430Y013021D01*
X015430Y013739D01*
X015506Y013923D01*
X015610Y014027D01*
X015610Y014497D01*
X015159Y014949D01*
X015110Y015066D01*
X015110Y015733D01*
X015006Y015837D01*
X014930Y016021D01*
X014908Y015969D02*
X014952Y015969D01*
X015033Y015810D02*
X014827Y015810D01*
X014750Y015652D02*
X015110Y015652D01*
X015110Y015493D02*
X014750Y015493D01*
X014750Y015335D02*
X015110Y015335D01*
X015110Y015176D02*
X014837Y015176D01*
X014995Y015018D02*
X015130Y015018D01*
X015154Y014859D02*
X015248Y014859D01*
X015247Y014701D02*
X015407Y014701D01*
X015250Y014542D02*
X015565Y014542D01*
X015610Y014384D02*
X015250Y014384D01*
X015250Y014225D02*
X015610Y014225D01*
X015610Y014067D02*
X015250Y014067D01*
X015360Y013908D02*
X015500Y013908D01*
X015434Y013750D02*
X015426Y013750D01*
X015430Y013591D02*
X015430Y013591D01*
X015430Y013433D02*
X015430Y013433D01*
X015430Y013274D02*
X015430Y013274D01*
X015430Y013116D02*
X015430Y013116D01*
X015404Y012957D02*
X015456Y012957D01*
X015544Y012799D02*
X015316Y012799D01*
X015250Y012640D02*
X015610Y012640D01*
X015610Y012482D02*
X015250Y012482D01*
X015250Y012323D02*
X015610Y012323D01*
X015610Y012165D02*
X015250Y012165D01*
X015250Y012006D02*
X015610Y012006D01*
X015610Y011848D02*
X015250Y011848D01*
X015250Y011689D02*
X015610Y011689D01*
X015610Y011531D02*
X015250Y011531D01*
X015250Y011372D02*
X015610Y011372D01*
X015610Y011214D02*
X015250Y011214D01*
X014610Y011214D02*
X014250Y011214D01*
X014250Y011107D02*
X014250Y012733D01*
X014354Y012837D01*
X014430Y013021D01*
X014430Y013739D01*
X014354Y013923D01*
X014250Y014027D01*
X014250Y014694D01*
X014201Y014811D01*
X014111Y014901D01*
X013750Y015263D01*
X013750Y015733D01*
X013854Y015837D01*
X013930Y016021D01*
X013930Y016739D01*
X013930Y016021D01*
X014006Y015837D01*
X014110Y015733D01*
X014110Y015066D01*
X014159Y014949D01*
X014249Y014859D01*
X014610Y014497D01*
X014610Y014027D01*
X014506Y013923D01*
X014430Y013739D01*
X014430Y013021D01*
X014506Y012837D01*
X014610Y012733D01*
X014610Y011107D01*
X014529Y011140D01*
X014331Y011140D01*
X014250Y011107D01*
X013610Y011107D02*
X013529Y011140D01*
X013331Y011140D01*
X013250Y011107D01*
X013250Y012733D01*
X013354Y012837D01*
X013430Y013021D01*
X013430Y013739D01*
X013354Y013923D01*
X013250Y014027D01*
X013250Y014694D01*
X013201Y014811D01*
X012750Y015263D01*
X012750Y015733D01*
X012854Y015837D01*
X012930Y016021D01*
X012930Y016739D01*
X012930Y016021D01*
X013006Y015837D01*
X013110Y015733D01*
X013110Y015066D01*
X013159Y014949D01*
X013610Y014497D01*
X013610Y014027D01*
X013506Y013923D01*
X013430Y013739D01*
X013430Y013021D01*
X013506Y012837D01*
X013610Y012733D01*
X013610Y011107D01*
X013610Y011214D02*
X013250Y011214D01*
X013250Y011372D02*
X013610Y011372D01*
X013610Y011531D02*
X013250Y011531D01*
X013250Y011689D02*
X013610Y011689D01*
X013610Y011848D02*
X013250Y011848D01*
X013250Y012006D02*
X013610Y012006D01*
X013610Y012165D02*
X013250Y012165D01*
X013250Y012323D02*
X013610Y012323D01*
X013610Y012482D02*
X013250Y012482D01*
X013250Y012640D02*
X013610Y012640D01*
X013544Y012799D02*
X013316Y012799D01*
X013404Y012957D02*
X013456Y012957D01*
X013430Y013116D02*
X013430Y013116D01*
X013430Y013274D02*
X013430Y013274D01*
X013430Y013433D02*
X013430Y013433D01*
X013430Y013591D02*
X013430Y013591D01*
X013426Y013750D02*
X013434Y013750D01*
X013500Y013908D02*
X013360Y013908D01*
X013250Y014067D02*
X013610Y014067D01*
X013610Y014225D02*
X013250Y014225D01*
X013250Y014384D02*
X013610Y014384D01*
X013565Y014542D02*
X013250Y014542D01*
X013247Y014701D02*
X013407Y014701D01*
X013248Y014859D02*
X013154Y014859D01*
X013130Y015018D02*
X012995Y015018D01*
X013110Y015176D02*
X012837Y015176D01*
X012750Y015335D02*
X013110Y015335D01*
X013110Y015493D02*
X012750Y015493D01*
X012750Y015652D02*
X013110Y015652D01*
X013033Y015810D02*
X012827Y015810D01*
X012908Y015969D02*
X012952Y015969D01*
X012930Y016127D02*
X012930Y016127D01*
X012930Y016286D02*
X012930Y016286D01*
X012930Y016444D02*
X012930Y016444D01*
X012930Y016603D02*
X012930Y016603D01*
X012921Y016761D02*
X012939Y016761D01*
X013005Y016920D02*
X012855Y016920D01*
X012679Y017078D02*
X013181Y017078D01*
X013679Y017078D02*
X014181Y017078D01*
X014005Y016920D02*
X013855Y016920D01*
X013921Y016761D02*
X013939Y016761D01*
X013930Y016603D02*
X013930Y016603D01*
X013930Y016444D02*
X013930Y016444D01*
X013930Y016286D02*
X013930Y016286D01*
X013930Y016127D02*
X013930Y016127D01*
X013908Y015969D02*
X013952Y015969D01*
X014033Y015810D02*
X013827Y015810D01*
X013750Y015652D02*
X014110Y015652D01*
X014110Y015493D02*
X013750Y015493D01*
X013750Y015335D02*
X014110Y015335D01*
X014110Y015176D02*
X013837Y015176D01*
X013995Y015018D02*
X014130Y015018D01*
X014154Y014859D02*
X014248Y014859D01*
X014249Y014859D02*
X014249Y014859D01*
X014247Y014701D02*
X014407Y014701D01*
X014250Y014542D02*
X014565Y014542D01*
X014610Y014384D02*
X014250Y014384D01*
X014250Y014225D02*
X014610Y014225D01*
X014610Y014067D02*
X014250Y014067D01*
X014360Y013908D02*
X014500Y013908D01*
X014434Y013750D02*
X014426Y013750D01*
X014430Y013591D02*
X014430Y013591D01*
X014430Y013433D02*
X014430Y013433D01*
X014430Y013274D02*
X014430Y013274D01*
X014430Y013116D02*
X014430Y013116D01*
X014404Y012957D02*
X014456Y012957D01*
X014544Y012799D02*
X014316Y012799D01*
X014250Y012640D02*
X014610Y012640D01*
X014610Y012482D02*
X014250Y012482D01*
X014250Y012323D02*
X014610Y012323D01*
X014610Y012165D02*
X014250Y012165D01*
X014250Y012006D02*
X014610Y012006D01*
X014610Y011848D02*
X014250Y011848D01*
X014250Y011689D02*
X014610Y011689D01*
X014610Y011531D02*
X014250Y011531D01*
X014250Y011372D02*
X014610Y011372D01*
X012610Y011372D02*
X012250Y011372D01*
X012250Y011214D02*
X012610Y011214D01*
X012610Y011107D02*
X012529Y011140D01*
X012331Y011140D01*
X012250Y011107D01*
X012250Y012733D01*
X012354Y012837D01*
X012430Y013021D01*
X012430Y013739D01*
X012354Y013923D01*
X012250Y014027D01*
X012250Y014694D01*
X012201Y014811D01*
X011750Y015263D01*
X011750Y015733D01*
X011854Y015837D01*
X011930Y016021D01*
X011930Y016739D01*
X011930Y016021D01*
X012006Y015837D01*
X012110Y015733D01*
X012110Y015066D01*
X012159Y014949D01*
X012249Y014859D01*
X012610Y014497D01*
X012610Y014027D01*
X012506Y013923D01*
X012430Y013739D01*
X012430Y013021D01*
X012506Y012837D01*
X012610Y012733D01*
X012610Y011107D01*
X012610Y011531D02*
X012250Y011531D01*
X012250Y011689D02*
X012610Y011689D01*
X012610Y011848D02*
X012250Y011848D01*
X012250Y012006D02*
X012610Y012006D01*
X012610Y012165D02*
X012250Y012165D01*
X012250Y012323D02*
X012610Y012323D01*
X012610Y012482D02*
X012250Y012482D01*
X012250Y012640D02*
X012610Y012640D01*
X012544Y012799D02*
X012316Y012799D01*
X012404Y012957D02*
X012456Y012957D01*
X012430Y013116D02*
X012430Y013116D01*
X012430Y013274D02*
X012430Y013274D01*
X012430Y013433D02*
X012430Y013433D01*
X012430Y013591D02*
X012430Y013591D01*
X012426Y013750D02*
X012434Y013750D01*
X012500Y013908D02*
X012360Y013908D01*
X012250Y014067D02*
X012610Y014067D01*
X012610Y014225D02*
X012250Y014225D01*
X012250Y014384D02*
X012610Y014384D01*
X012565Y014542D02*
X012250Y014542D01*
X012247Y014701D02*
X012407Y014701D01*
X012248Y014859D02*
X012154Y014859D01*
X012130Y015018D02*
X011995Y015018D01*
X012110Y015176D02*
X011837Y015176D01*
X011750Y015335D02*
X012110Y015335D01*
X012110Y015493D02*
X011750Y015493D01*
X011750Y015652D02*
X012110Y015652D01*
X012033Y015810D02*
X011827Y015810D01*
X011908Y015969D02*
X011952Y015969D01*
X011930Y016127D02*
X011930Y016127D01*
X011930Y016286D02*
X011930Y016286D01*
X011930Y016444D02*
X011930Y016444D01*
X011930Y016603D02*
X011930Y016603D01*
X011921Y016761D02*
X011939Y016761D01*
X012005Y016920D02*
X011855Y016920D01*
X011679Y017078D02*
X012181Y017078D01*
X011181Y017078D02*
X007591Y017078D01*
X007625Y016920D02*
X011005Y016920D01*
X010939Y016761D02*
X007606Y016761D01*
X007523Y016603D02*
X010930Y016603D01*
X010930Y016444D02*
X007288Y016444D01*
X007243Y016394D02*
X007054Y016394D01*
X006879Y016321D01*
X006745Y016187D01*
X006672Y016012D01*
X006672Y015823D01*
X006745Y015648D01*
X006879Y015514D01*
X007054Y015441D01*
X007243Y015441D01*
X007418Y015514D01*
X007552Y015648D01*
X007625Y015823D01*
X007625Y016012D01*
X007552Y016187D01*
X007418Y016321D01*
X007243Y016394D01*
X007454Y016286D02*
X010930Y016286D01*
X010930Y016127D02*
X007577Y016127D01*
X007625Y015969D02*
X010952Y015969D01*
X011033Y015810D02*
X007619Y015810D01*
X007554Y015652D02*
X011110Y015652D01*
X011110Y015493D02*
X010189Y015493D01*
X010112Y015570D02*
X009930Y015570D01*
X009930Y015130D01*
X010370Y015130D01*
X010370Y015312D01*
X010112Y015570D01*
X009930Y015570D02*
X009748Y015570D01*
X009490Y015312D01*
X009490Y015130D01*
X009930Y015130D01*
X009930Y015130D01*
X009930Y015130D01*
X010370Y015130D01*
X010370Y014948D01*
X010112Y014690D01*
X009930Y014690D01*
X009930Y015130D01*
X009930Y015130D01*
X009930Y015130D01*
X009930Y015570D01*
X009930Y015493D02*
X009930Y015493D01*
X009930Y015335D02*
X009930Y015335D01*
X009930Y015176D02*
X009930Y015176D01*
X009930Y015130D02*
X009490Y015130D01*
X009490Y014948D01*
X009748Y014690D01*
X009930Y014690D01*
X009930Y015130D01*
X009930Y015018D02*
X009930Y015018D01*
X009930Y014859D02*
X009930Y014859D01*
X009930Y014701D02*
X009930Y014701D01*
X010123Y014701D02*
X011407Y014701D01*
X011248Y014859D02*
X010281Y014859D01*
X010370Y015018D02*
X011130Y015018D01*
X011110Y015176D02*
X010370Y015176D01*
X010348Y015335D02*
X011110Y015335D01*
X011430Y015130D02*
X011430Y016380D01*
X012430Y016380D02*
X012430Y015130D01*
X012930Y014630D01*
X012930Y013380D01*
X012930Y009130D01*
X013430Y008630D01*
X016180Y008630D01*
X016430Y008380D01*
X016430Y008880D02*
X014180Y008880D01*
X013930Y009130D01*
X013930Y013380D01*
X013930Y014630D01*
X013430Y015130D01*
X013430Y016380D01*
X014679Y017078D02*
X015181Y017078D01*
X015005Y016920D02*
X014855Y016920D01*
X014921Y016761D02*
X014939Y016761D01*
X014930Y016603D02*
X014930Y016603D01*
X015679Y017078D02*
X016181Y017078D01*
X016005Y016920D02*
X015855Y016920D01*
X015921Y016761D02*
X015939Y016761D01*
X015930Y016603D02*
X015930Y016603D01*
X016430Y016380D02*
X016430Y015130D01*
X016930Y014630D01*
X016930Y013380D01*
X016930Y009880D01*
X016430Y008880D02*
X017430Y007880D01*
X017430Y006880D01*
X018430Y005880D01*
X022680Y005880D01*
X022930Y005630D01*
X022930Y004630D01*
X021930Y004630D02*
X021930Y005380D01*
X021680Y005630D01*
X017680Y005630D01*
X016430Y006880D01*
X016430Y007880D01*
X015930Y008380D01*
X012680Y008380D01*
X011930Y009130D01*
X011930Y013380D01*
X011930Y014630D01*
X011430Y015130D01*
X011565Y014542D02*
X007649Y014542D01*
X007713Y014384D02*
X011610Y014384D01*
X011610Y014225D02*
X007713Y014225D01*
X007713Y014067D02*
X008653Y014067D01*
X008647Y014064D02*
X008506Y013923D01*
X008430Y013739D01*
X008430Y013021D01*
X008506Y012837D01*
X008647Y012696D01*
X008831Y012620D01*
X009029Y012620D01*
X009213Y012696D01*
X009354Y012837D01*
X009430Y013021D01*
X009430Y013739D01*
X009354Y013923D01*
X009213Y014064D01*
X009029Y014140D01*
X008831Y014140D01*
X008647Y014064D01*
X008500Y013908D02*
X007713Y013908D01*
X007713Y013750D02*
X008434Y013750D01*
X008430Y013591D02*
X007713Y013591D01*
X007680Y013433D02*
X008430Y013433D01*
X008430Y013274D02*
X007597Y013274D01*
X007469Y013116D02*
X008430Y013116D01*
X008456Y012957D02*
X007469Y012957D01*
X007469Y012799D02*
X008544Y012799D01*
X008782Y012640D02*
X007469Y012640D01*
X007469Y012482D02*
X010610Y012482D01*
X010610Y012640D02*
X010078Y012640D01*
X010316Y012799D02*
X010544Y012799D01*
X010456Y012957D02*
X010404Y012957D01*
X010430Y013116D02*
X010430Y013116D01*
X010430Y013274D02*
X010430Y013274D01*
X010430Y013433D02*
X010430Y013433D01*
X010430Y013591D02*
X010430Y013591D01*
X010426Y013750D02*
X010434Y013750D01*
X010500Y013908D02*
X010360Y013908D01*
X010207Y014067D02*
X010653Y014067D01*
X011207Y014067D02*
X011610Y014067D01*
X011500Y013908D02*
X011360Y013908D01*
X011426Y013750D02*
X011434Y013750D01*
X011430Y013739D02*
X011430Y013021D01*
X011430Y013739D01*
X011430Y013591D02*
X011430Y013591D01*
X011430Y013433D02*
X011430Y013433D01*
X011430Y013274D02*
X011430Y013274D01*
X011430Y013116D02*
X011430Y013116D01*
X011430Y013021D02*
X011354Y012837D01*
X011250Y012733D01*
X011250Y012263D01*
X011610Y011903D01*
X011610Y012733D01*
X011506Y012837D01*
X011430Y013021D01*
X011404Y012957D02*
X011456Y012957D01*
X011544Y012799D02*
X011316Y012799D01*
X011250Y012640D02*
X011610Y012640D01*
X011610Y012482D02*
X011250Y012482D01*
X011250Y012323D02*
X011610Y012323D01*
X011610Y012165D02*
X011348Y012165D01*
X011507Y012006D02*
X011610Y012006D01*
X011430Y011630D02*
X011430Y010380D01*
X011430Y009130D01*
X010680Y008380D01*
X008180Y008380D01*
X007180Y007380D01*
X006680Y007410D02*
X006430Y007410D01*
X006430Y007568D02*
X006680Y007568D01*
X006680Y007587D02*
X006680Y007173D01*
X006903Y006950D01*
X006563Y006950D01*
X006385Y007128D01*
X006430Y007173D01*
X006430Y007587D01*
X006137Y007880D01*
X005723Y007880D01*
X006137Y007880D01*
X006317Y008060D01*
X006793Y008060D01*
X006973Y007880D01*
X006680Y007587D01*
X006819Y007727D02*
X006291Y007727D01*
X006142Y007885D02*
X006968Y007885D01*
X006973Y007880D02*
X007227Y007880D01*
X006973Y007880D01*
X006809Y008044D02*
X006301Y008044D01*
X005930Y008380D02*
X007180Y008380D01*
X007590Y008678D02*
X008062Y008678D01*
X007866Y008519D02*
X007680Y008519D01*
X007680Y008361D02*
X007708Y008361D01*
X007431Y008836D02*
X010683Y008836D01*
X010842Y008995D02*
X006250Y008995D01*
X006250Y009153D02*
X011000Y009153D01*
X011110Y009312D02*
X006250Y009312D01*
X006250Y009470D02*
X011110Y009470D01*
X011110Y009629D02*
X007457Y009629D01*
X007616Y009787D02*
X011056Y009787D01*
X010961Y009946D02*
X007660Y009946D01*
X007660Y010104D02*
X010930Y010104D01*
X010930Y010263D02*
X007626Y010263D01*
X007550Y010421D02*
X010930Y010421D01*
X010930Y010580D02*
X007637Y010580D01*
X007660Y010738D02*
X010930Y010738D01*
X010995Y010897D02*
X007631Y010897D01*
X007534Y011055D02*
X011110Y011055D01*
X011110Y011214D02*
X007469Y011214D01*
X007469Y011372D02*
X011110Y011372D01*
X011077Y011531D02*
X007469Y011531D01*
X007469Y011689D02*
X010918Y011689D01*
X010760Y011848D02*
X007469Y011848D01*
X007469Y012006D02*
X010635Y012006D01*
X010610Y012165D02*
X007469Y012165D01*
X007469Y012323D02*
X010610Y012323D01*
X010930Y012130D02*
X011430Y011630D01*
X010930Y012130D02*
X010930Y013380D01*
X009782Y012640D02*
X009078Y012640D01*
X009316Y012799D02*
X009544Y012799D01*
X009456Y012957D02*
X009404Y012957D01*
X009430Y013116D02*
X009430Y013116D01*
X009430Y013274D02*
X009430Y013274D01*
X009430Y013433D02*
X009430Y013433D01*
X009430Y013591D02*
X009430Y013591D01*
X009426Y013750D02*
X009434Y013750D01*
X009500Y013908D02*
X009360Y013908D01*
X009207Y014067D02*
X009653Y014067D01*
X009137Y014630D02*
X008723Y014630D01*
X008430Y014923D01*
X008430Y015337D01*
X008723Y015630D01*
X009137Y015630D01*
X009430Y015337D01*
X009430Y014923D01*
X009137Y014630D01*
X009208Y014701D02*
X009737Y014701D01*
X009579Y014859D02*
X009366Y014859D01*
X009430Y015018D02*
X009490Y015018D01*
X009490Y015176D02*
X009430Y015176D01*
X009430Y015335D02*
X009512Y015335D01*
X009671Y015493D02*
X009274Y015493D01*
X008586Y015493D02*
X007368Y015493D01*
X006929Y015493D02*
X005780Y015493D01*
X005769Y015486D02*
X005834Y015532D01*
X005890Y015589D01*
X005937Y015653D01*
X005973Y015724D01*
X005997Y015799D01*
X006010Y015878D01*
X006010Y015889D01*
X005208Y015889D01*
X005208Y015413D01*
X005545Y015413D01*
X005623Y015425D01*
X005699Y015450D01*
X005769Y015486D01*
X005936Y015652D02*
X006743Y015652D01*
X006678Y015810D02*
X005999Y015810D01*
X006010Y015946D02*
X006010Y015957D01*
X005997Y016036D01*
X005973Y016111D01*
X005937Y016182D01*
X005890Y016246D01*
X005834Y016302D01*
X005769Y016349D01*
X005699Y016385D01*
X005623Y016410D01*
X005545Y016422D01*
X005208Y016422D01*
X005208Y015946D01*
X005152Y015946D01*
X005152Y016422D01*
X004815Y016422D01*
X004737Y016410D01*
X004661Y016385D01*
X004591Y016349D01*
X004526Y016302D01*
X004470Y016246D01*
X004423Y016182D01*
X004387Y016111D01*
X004363Y016036D01*
X004350Y015957D01*
X004350Y015946D01*
X005152Y015946D01*
X005152Y015889D01*
X005208Y015889D01*
X005208Y015946D01*
X006010Y015946D01*
X006008Y015969D02*
X006672Y015969D01*
X006720Y016127D02*
X005965Y016127D01*
X005851Y016286D02*
X006843Y016286D01*
X007009Y016444D02*
X003351Y016444D01*
X003306Y016394D02*
X003117Y016394D01*
X002942Y016321D01*
X002808Y016187D01*
X002735Y016012D01*
X002735Y015823D01*
X002808Y015648D01*
X002942Y015514D01*
X003117Y015441D01*
X003306Y015441D01*
X003481Y015514D01*
X003615Y015648D01*
X003688Y015823D01*
X003688Y016012D01*
X003615Y016187D01*
X003481Y016321D01*
X003306Y016394D01*
X003517Y016286D02*
X004509Y016286D01*
X004395Y016127D02*
X003640Y016127D01*
X003688Y015969D02*
X004352Y015969D01*
X004350Y015889D02*
X004350Y015878D01*
X004363Y015799D01*
X004387Y015724D01*
X004423Y015653D01*
X004470Y015589D01*
X004526Y015532D01*
X004591Y015486D01*
X004661Y015450D01*
X004737Y015425D01*
X004815Y015413D01*
X005152Y015413D01*
X005152Y015889D01*
X004350Y015889D01*
X004361Y015810D02*
X003682Y015810D01*
X003617Y015652D02*
X004424Y015652D01*
X004580Y015493D02*
X003431Y015493D01*
X002992Y015493D02*
X002420Y015493D01*
X002420Y015335D02*
X008430Y015335D01*
X008430Y015176D02*
X002420Y015176D01*
X002420Y015018D02*
X008430Y015018D01*
X008494Y014859D02*
X002420Y014859D01*
X002420Y014701D02*
X002840Y014701D01*
X002711Y014542D02*
X002420Y014542D01*
X002420Y014384D02*
X002647Y014384D01*
X002647Y014225D02*
X002420Y014225D01*
X002420Y014067D02*
X002647Y014067D01*
X002647Y013908D02*
X002420Y013908D01*
X002420Y013750D02*
X002647Y013750D01*
X002647Y013591D02*
X002420Y013591D01*
X002420Y013433D02*
X002680Y013433D01*
X002763Y013274D02*
X002420Y013274D01*
X002420Y013116D02*
X002891Y013116D01*
X002891Y012957D02*
X002420Y012957D01*
X002420Y012799D02*
X002891Y012799D01*
X002891Y012640D02*
X002420Y012640D01*
X002420Y012482D02*
X002891Y012482D01*
X002891Y012323D02*
X002420Y012323D01*
X002420Y012165D02*
X002891Y012165D01*
X002891Y012006D02*
X002420Y012006D01*
X002420Y011848D02*
X002891Y011848D01*
X002891Y011689D02*
X002420Y011689D01*
X002420Y011531D02*
X002891Y011531D01*
X002891Y011372D02*
X002420Y011372D01*
X002420Y011214D02*
X002891Y011214D01*
X002826Y011055D02*
X002420Y011055D01*
X002420Y010897D02*
X002729Y010897D01*
X002700Y010738D02*
X002420Y010738D01*
X002420Y010580D02*
X002723Y010580D01*
X002810Y010421D02*
X002420Y010421D01*
X002420Y010263D02*
X002734Y010263D01*
X002700Y010104D02*
X002420Y010104D01*
X002420Y009946D02*
X002700Y009946D01*
X002744Y009787D02*
X002420Y009787D01*
X002420Y009629D02*
X002903Y009629D01*
X003457Y009629D02*
X003974Y009629D01*
X004110Y009470D02*
X002420Y009470D01*
X002420Y009312D02*
X004110Y009312D01*
X004110Y009153D02*
X002420Y009153D01*
X002420Y008995D02*
X004110Y008995D01*
X004110Y008836D02*
X003431Y008836D01*
X002929Y008836D02*
X002420Y008836D01*
X002420Y008678D02*
X002770Y008678D01*
X002680Y008519D02*
X002420Y008519D01*
X002420Y008361D02*
X002680Y008361D01*
X002680Y008202D02*
X002420Y008202D01*
X002420Y008044D02*
X002809Y008044D01*
X002968Y007885D02*
X002420Y007885D01*
X002420Y007727D02*
X002819Y007727D01*
X002680Y007568D02*
X002420Y007568D01*
X002420Y007410D02*
X002680Y007410D01*
X002680Y007251D02*
X002420Y007251D01*
X002420Y007093D02*
X002760Y007093D01*
X002860Y006934D02*
X002420Y006934D01*
X002420Y006776D02*
X002860Y006776D01*
X002860Y006617D02*
X002420Y006617D01*
X002420Y006459D02*
X002860Y006459D01*
X002867Y006300D02*
X002420Y006300D01*
X002420Y006142D02*
X002966Y006142D01*
X003124Y005983D02*
X002420Y005983D01*
X002420Y005825D02*
X003283Y005825D01*
X003441Y005666D02*
X002420Y005666D01*
X002420Y005508D02*
X017350Y005508D01*
X017191Y005666D02*
X011419Y005666D01*
X011577Y005825D02*
X017033Y005825D01*
X016874Y005983D02*
X011736Y005983D01*
X011894Y006142D02*
X016716Y006142D01*
X016557Y006300D02*
X012053Y006300D01*
X012205Y006459D02*
X016399Y006459D01*
X016240Y006617D02*
X012250Y006617D01*
X012293Y006776D02*
X012567Y006776D01*
X012466Y006934D02*
X012394Y006934D01*
X012430Y007093D02*
X012430Y007093D01*
X012430Y007251D02*
X012430Y007251D01*
X012430Y007410D02*
X012430Y007410D01*
X012430Y007568D02*
X012430Y007568D01*
X012430Y007727D02*
X012430Y007727D01*
X012370Y007885D02*
X012490Y007885D01*
X012626Y008044D02*
X012234Y008044D01*
X012405Y008202D02*
X010955Y008202D01*
X011113Y008361D02*
X012247Y008361D01*
X012088Y008519D02*
X011272Y008519D01*
X011430Y008678D02*
X011930Y008678D01*
X011771Y008836D02*
X011589Y008836D01*
X011626Y008044D02*
X011234Y008044D01*
X011370Y007885D02*
X011490Y007885D01*
X011430Y007727D02*
X011430Y007727D01*
X011430Y007568D02*
X011430Y007568D01*
X011430Y007410D02*
X011430Y007410D01*
X011430Y007251D02*
X011430Y007251D01*
X011430Y007093D02*
X011430Y007093D01*
X011394Y006934D02*
X011466Y006934D01*
X011567Y006776D02*
X011293Y006776D01*
X011464Y006617D02*
X011120Y006617D01*
X010961Y006459D02*
X011306Y006459D01*
X011147Y006300D02*
X003713Y006300D01*
X003554Y006459D02*
X006149Y006459D01*
X005990Y006617D02*
X003500Y006617D01*
X003500Y006776D02*
X005832Y006776D01*
X005669Y006934D02*
X004691Y006934D01*
X004430Y007380D02*
X005930Y007380D01*
X005930Y007130D01*
X006430Y006630D01*
X010680Y006630D01*
X010930Y006880D01*
X010930Y007380D01*
X011930Y007380D02*
X011930Y006630D01*
X011180Y005880D01*
X003680Y005880D01*
X003180Y006380D01*
X003180Y007380D01*
X003680Y007410D02*
X003930Y007410D01*
X003930Y007568D02*
X003680Y007568D01*
X003541Y007727D02*
X004069Y007727D01*
X004218Y007885D02*
X003392Y007885D01*
X003551Y008044D02*
X004059Y008044D01*
X004430Y008380D02*
X003180Y008380D01*
X004430Y008380D02*
X004430Y009880D01*
X004280Y010030D01*
X003180Y010030D01*
X003550Y010421D02*
X006810Y010421D01*
X006723Y010580D02*
X006252Y010580D01*
X006370Y010698D02*
X006112Y010440D01*
X005930Y010440D01*
X005930Y010880D01*
X005930Y010880D01*
X005930Y011320D01*
X006112Y011320D01*
X006370Y011062D01*
X006370Y010880D01*
X005930Y010880D01*
X005930Y010880D01*
X005930Y010880D01*
X005490Y010880D01*
X005490Y011062D01*
X005748Y011320D01*
X005930Y011320D01*
X005930Y010880D01*
X006370Y010880D01*
X006370Y010698D01*
X006370Y010738D02*
X006700Y010738D01*
X006729Y010897D02*
X006370Y010897D01*
X006370Y011055D02*
X006826Y011055D01*
X006829Y011214D02*
X006219Y011214D01*
X005930Y011214D02*
X005930Y011214D01*
X005930Y011055D02*
X005930Y011055D01*
X005930Y010897D02*
X005930Y010897D01*
X005930Y010880D02*
X005490Y010880D01*
X005490Y010698D01*
X005748Y010440D01*
X005930Y010440D01*
X005930Y010880D01*
X005930Y010880D01*
X005930Y010738D02*
X005930Y010738D01*
X005930Y010580D02*
X005930Y010580D01*
X005608Y010580D02*
X004752Y010580D01*
X004870Y010698D02*
X004870Y010880D01*
X004870Y011062D01*
X004612Y011320D01*
X004430Y011320D01*
X004430Y010880D01*
X004430Y010880D01*
X004870Y010880D01*
X004430Y010880D01*
X004430Y010880D01*
X004430Y010880D01*
X003990Y010880D01*
X003990Y011062D01*
X004248Y011320D01*
X004430Y011320D01*
X004430Y010880D01*
X004430Y010440D01*
X004612Y010440D01*
X004870Y010698D01*
X004870Y010738D02*
X005490Y010738D01*
X005490Y010897D02*
X004870Y010897D01*
X004870Y011055D02*
X005490Y011055D01*
X005641Y011214D02*
X004719Y011214D01*
X004430Y011214D02*
X004430Y011214D01*
X004430Y011055D02*
X004430Y011055D01*
X004430Y010897D02*
X004430Y010897D01*
X004430Y010880D02*
X003990Y010880D01*
X003990Y010698D01*
X004248Y010440D01*
X004430Y010440D01*
X004430Y010880D01*
X004430Y010880D01*
X004430Y010738D02*
X004430Y010738D01*
X004430Y010580D02*
X004430Y010580D01*
X004108Y010580D02*
X003637Y010580D01*
X003660Y010738D02*
X003990Y010738D01*
X003990Y010897D02*
X003631Y010897D01*
X003534Y011055D02*
X003990Y011055D01*
X004141Y011214D02*
X003531Y011214D01*
X003531Y011372D02*
X006829Y011372D01*
X006829Y011531D02*
X003531Y011531D01*
X003531Y011689D02*
X006829Y011689D01*
X006829Y011848D02*
X003531Y011848D01*
X003531Y012006D02*
X006829Y012006D01*
X006829Y012165D02*
X003531Y012165D01*
X003531Y012323D02*
X006829Y012323D01*
X006829Y012482D02*
X003531Y012482D01*
X003531Y012640D02*
X006829Y012640D01*
X006829Y012799D02*
X003531Y012799D01*
X003531Y012957D02*
X006829Y012957D01*
X006829Y013116D02*
X006412Y013116D01*
X006613Y013274D02*
X006700Y013274D01*
X005916Y013116D02*
X004444Y013116D01*
X004644Y013274D02*
X005716Y013274D01*
X005632Y013433D02*
X004728Y013433D01*
X004761Y013591D02*
X004864Y013591D01*
X005496Y013591D02*
X005599Y013591D01*
X006164Y013949D02*
X007149Y013949D01*
X007149Y010761D01*
X007180Y010730D01*
X007180Y010030D02*
X006080Y010030D01*
X005930Y009880D01*
X005930Y008380D01*
X005430Y008361D02*
X004930Y008361D01*
X004930Y008519D02*
X005430Y008519D01*
X005520Y008678D02*
X004840Y008678D01*
X004750Y008836D02*
X005610Y008836D01*
X005610Y008995D02*
X004750Y008995D01*
X004750Y009153D02*
X005610Y009153D01*
X005610Y009312D02*
X004750Y009312D01*
X004750Y009470D02*
X005610Y009470D01*
X005474Y009629D02*
X004886Y009629D01*
X004930Y009787D02*
X005430Y009787D01*
X005430Y009946D02*
X004930Y009946D01*
X004913Y010104D02*
X005447Y010104D01*
X005605Y010263D02*
X004755Y010263D01*
X003211Y010761D02*
X003180Y010730D01*
X003211Y010761D02*
X003211Y013949D01*
X004196Y013949D01*
X004761Y014225D02*
X004783Y014225D01*
X004761Y014384D02*
X004985Y014384D01*
X004696Y014542D02*
X005664Y014542D01*
X005599Y014384D02*
X005375Y014384D01*
X005577Y014225D02*
X005599Y014225D01*
X005792Y014701D02*
X004568Y014701D01*
X003824Y014701D02*
X003583Y014701D01*
X005152Y015493D02*
X005208Y015493D01*
X005208Y015652D02*
X005152Y015652D01*
X005152Y015810D02*
X005208Y015810D01*
X005208Y015969D02*
X005152Y015969D01*
X005152Y016127D02*
X005208Y016127D01*
X005208Y016286D02*
X005152Y016286D01*
X003669Y016761D02*
X006691Y016761D01*
X006672Y016920D02*
X003688Y016920D01*
X003654Y017078D02*
X006706Y017078D01*
X006810Y017237D02*
X003550Y017237D01*
X002873Y017237D02*
X002420Y017237D01*
X002420Y017078D02*
X002769Y017078D01*
X002735Y016920D02*
X002420Y016920D01*
X002420Y016761D02*
X002754Y016761D01*
X002837Y016603D02*
X002420Y016603D01*
X002420Y016444D02*
X003072Y016444D01*
X002906Y016286D02*
X002420Y016286D01*
X002420Y016127D02*
X002783Y016127D01*
X002735Y015969D02*
X002420Y015969D01*
X002420Y015810D02*
X002741Y015810D01*
X002806Y015652D02*
X002420Y015652D01*
X003586Y016603D02*
X006774Y016603D01*
X007487Y017237D02*
X033682Y017237D01*
X033682Y017078D02*
X024679Y017078D01*
X024855Y016920D02*
X033682Y016920D01*
X033682Y016761D02*
X024921Y016761D01*
X025660Y016603D02*
X033682Y016603D01*
X033682Y016444D02*
X025819Y016444D01*
X025977Y016286D02*
X033682Y016286D01*
X033682Y016127D02*
X026136Y016127D01*
X026294Y015969D02*
X033682Y015969D01*
X033682Y015810D02*
X026453Y015810D01*
X026611Y015652D02*
X033682Y015652D01*
X033682Y015493D02*
X026770Y015493D01*
X026928Y015335D02*
X033682Y015335D01*
X033682Y014859D02*
X032073Y014859D01*
X032120Y014701D02*
X033682Y014701D01*
X033682Y014542D02*
X032120Y014542D01*
X032056Y014384D02*
X033682Y014384D01*
X032680Y013750D02*
X032680Y013750D01*
X032680Y013591D02*
X032680Y013591D01*
X032680Y013433D02*
X032680Y013433D01*
X032680Y013380D02*
X032680Y013380D01*
X032680Y013380D01*
X032680Y012940D01*
X032385Y012940D01*
X032317Y012951D01*
X032251Y012972D01*
X032189Y013004D01*
X032133Y013044D01*
X032084Y013093D01*
X032044Y013149D01*
X032012Y013211D01*
X031991Y013277D01*
X031980Y013345D01*
X031980Y013380D01*
X032680Y013380D01*
X032680Y013274D02*
X032680Y013274D01*
X032680Y013116D02*
X032680Y013116D01*
X032680Y012957D02*
X032680Y012957D01*
X032298Y012957D02*
X030224Y012957D01*
X030229Y012799D02*
X032131Y012799D01*
X031987Y012640D02*
X031373Y012640D01*
X031484Y012482D02*
X031921Y012482D01*
X031920Y012323D02*
X031500Y012323D01*
X031500Y012165D02*
X031968Y012165D01*
X032087Y012006D02*
X031500Y012006D01*
X031500Y011848D02*
X032242Y011848D01*
X032321Y011880D02*
X032360Y011880D01*
X032360Y011880D01*
X032321Y011880D01*
X032022Y011689D02*
X031500Y011689D01*
X031500Y011531D02*
X031941Y011531D01*
X031920Y011372D02*
X031500Y011372D01*
X031500Y011214D02*
X031948Y011214D01*
X032038Y011055D02*
X031500Y011055D01*
X031500Y010897D02*
X032281Y010897D01*
X032071Y010738D02*
X031500Y010738D01*
X031180Y010380D02*
X029680Y010380D01*
X030198Y009946D02*
X032162Y009946D01*
X032120Y009787D02*
X030240Y009787D01*
X030378Y009629D02*
X031982Y009629D01*
X031920Y009470D02*
X030440Y009470D01*
X030440Y009312D02*
X031920Y009312D01*
X032680Y009380D02*
X032680Y008880D01*
X026430Y008880D01*
X026012Y008836D02*
X020427Y008836D01*
X020268Y008995D02*
X023724Y008995D01*
X023566Y009153D02*
X020250Y009153D01*
X020250Y009312D02*
X023512Y009312D01*
X023512Y009470D02*
X020250Y009470D01*
X020250Y009629D02*
X020310Y009629D01*
X020550Y009629D02*
X021310Y009629D01*
X021550Y009629D02*
X022310Y009629D01*
X022550Y009629D02*
X023310Y009629D01*
X023550Y009629D02*
X023587Y009629D01*
X023930Y009380D02*
X029680Y009380D01*
X029120Y009787D02*
X024804Y009787D01*
X024899Y009946D02*
X029162Y009946D01*
X028993Y010104D02*
X024930Y010104D01*
X024930Y010263D02*
X028927Y010263D01*
X028920Y010421D02*
X024930Y010421D01*
X024930Y010580D02*
X028961Y010580D01*
X029071Y010738D02*
X024930Y010738D01*
X024865Y010897D02*
X029281Y010897D01*
X029038Y011055D02*
X024722Y011055D01*
X023143Y011060D02*
X023006Y010923D01*
X022930Y010739D01*
X022930Y010021D01*
X022930Y010739D01*
X022854Y010923D01*
X022717Y011060D01*
X023143Y011060D01*
X023138Y011055D02*
X022722Y011055D01*
X022865Y010897D02*
X022995Y010897D01*
X022930Y010738D02*
X022930Y010738D01*
X022930Y010580D02*
X022930Y010580D01*
X022930Y010421D02*
X022930Y010421D01*
X022930Y010263D02*
X022930Y010263D01*
X022930Y010104D02*
X022930Y010104D01*
X022899Y009946D02*
X022961Y009946D01*
X023056Y009787D02*
X022804Y009787D01*
X022056Y009787D02*
X021804Y009787D01*
X021899Y009946D02*
X021961Y009946D01*
X021930Y010104D02*
X021930Y010104D01*
X021930Y010263D02*
X021930Y010263D01*
X021930Y010421D02*
X021930Y010421D01*
X021930Y010580D02*
X021930Y010580D01*
X021930Y010738D02*
X021930Y010738D01*
X021865Y010897D02*
X021995Y010897D01*
X022138Y011055D02*
X021722Y011055D01*
X022144Y011214D02*
X020250Y011214D01*
X020250Y011372D02*
X021985Y011372D01*
X021827Y011531D02*
X020250Y011531D01*
X020250Y011689D02*
X021668Y011689D01*
X021610Y011848D02*
X020250Y011848D01*
X020250Y012006D02*
X021610Y012006D01*
X021610Y012165D02*
X020250Y012165D01*
X020250Y012323D02*
X021610Y012323D01*
X021610Y012482D02*
X020250Y012482D01*
X020250Y012640D02*
X020782Y012640D01*
X020544Y012799D02*
X020316Y012799D01*
X020404Y012957D02*
X020456Y012957D01*
X020430Y013116D02*
X020430Y013116D01*
X020430Y013274D02*
X020430Y013274D01*
X020430Y013433D02*
X020430Y013433D01*
X020430Y013591D02*
X020430Y013591D01*
X020426Y013750D02*
X020434Y013750D01*
X020500Y013908D02*
X020360Y013908D01*
X020250Y014067D02*
X020653Y014067D01*
X020250Y014225D02*
X021610Y014225D01*
X021610Y014067D02*
X021207Y014067D01*
X021360Y013908D02*
X021500Y013908D01*
X021434Y013750D02*
X021426Y013750D01*
X021430Y013591D02*
X021430Y013591D01*
X021430Y013433D02*
X021430Y013433D01*
X021430Y013274D02*
X021430Y013274D01*
X021430Y013116D02*
X021430Y013116D01*
X021404Y012957D02*
X021456Y012957D01*
X021544Y012799D02*
X021316Y012799D01*
X021078Y012640D02*
X021610Y012640D01*
X022250Y012482D02*
X028921Y012482D01*
X028920Y012323D02*
X022250Y012323D01*
X022250Y012165D02*
X028968Y012165D01*
X029087Y012006D02*
X022257Y012006D01*
X022415Y011848D02*
X029242Y011848D01*
X029680Y011380D02*
X022430Y011380D01*
X021930Y011880D01*
X021930Y013380D01*
X021930Y014630D01*
X021430Y015130D01*
X021430Y016380D01*
X020930Y016444D02*
X020930Y016444D01*
X020930Y016286D02*
X020930Y016286D01*
X020930Y016127D02*
X020930Y016127D01*
X020908Y015969D02*
X020952Y015969D01*
X021033Y015810D02*
X020827Y015810D01*
X020606Y015652D02*
X021110Y015652D01*
X021110Y015493D02*
X019750Y015493D01*
X019750Y015335D02*
X021110Y015335D01*
X021110Y015176D02*
X019837Y015176D01*
X019995Y015018D02*
X021130Y015018D01*
X021248Y014859D02*
X020154Y014859D01*
X020247Y014701D02*
X021407Y014701D01*
X021565Y014542D02*
X020250Y014542D01*
X020250Y014384D02*
X021610Y014384D01*
X019930Y014630D02*
X019930Y013380D01*
X019930Y008880D01*
X020804Y009787D02*
X021056Y009787D01*
X020961Y009946D02*
X020899Y009946D01*
X020930Y010104D02*
X020930Y010104D01*
X020930Y010263D02*
X020930Y010263D01*
X020930Y010421D02*
X020930Y010421D01*
X020930Y010580D02*
X020930Y010580D01*
X020930Y010738D02*
X020930Y010738D01*
X020865Y010897D02*
X020995Y010897D01*
X021138Y011055D02*
X020722Y011055D01*
X019610Y011107D02*
X019529Y011140D01*
X019331Y011140D01*
X019250Y011107D01*
X019250Y012733D01*
X019354Y012837D01*
X019430Y013021D01*
X019430Y013739D01*
X019354Y013923D01*
X019250Y014027D01*
X019250Y014694D01*
X019201Y014811D01*
X019111Y014901D01*
X018750Y015263D01*
X018750Y015733D01*
X018854Y015837D01*
X018930Y016021D01*
X018930Y016739D01*
X018930Y016021D01*
X019006Y015837D01*
X019110Y015733D01*
X019110Y015066D01*
X019159Y014949D01*
X019610Y014497D01*
X019610Y014027D01*
X019506Y013923D01*
X019430Y013739D01*
X019430Y013021D01*
X019506Y012837D01*
X019610Y012733D01*
X019610Y011107D01*
X019610Y011214D02*
X019250Y011214D01*
X019250Y011372D02*
X019610Y011372D01*
X019610Y011531D02*
X019250Y011531D01*
X019250Y011689D02*
X019610Y011689D01*
X019610Y011848D02*
X019250Y011848D01*
X019250Y012006D02*
X019610Y012006D01*
X019610Y012165D02*
X019250Y012165D01*
X019250Y012323D02*
X019610Y012323D01*
X019610Y012482D02*
X019250Y012482D01*
X019250Y012640D02*
X019610Y012640D01*
X019544Y012799D02*
X019316Y012799D01*
X019404Y012957D02*
X019456Y012957D01*
X019430Y013116D02*
X019430Y013116D01*
X019430Y013274D02*
X019430Y013274D01*
X019430Y013433D02*
X019430Y013433D01*
X019430Y013591D02*
X019430Y013591D01*
X019426Y013750D02*
X019434Y013750D01*
X019500Y013908D02*
X019360Y013908D01*
X019250Y014067D02*
X019610Y014067D01*
X019610Y014225D02*
X019250Y014225D01*
X019250Y014384D02*
X019610Y014384D01*
X019565Y014542D02*
X019250Y014542D01*
X019247Y014701D02*
X019407Y014701D01*
X019248Y014859D02*
X019154Y014859D01*
X019130Y015018D02*
X018995Y015018D01*
X019110Y015176D02*
X018837Y015176D01*
X018750Y015335D02*
X019110Y015335D01*
X019110Y015493D02*
X018750Y015493D01*
X018750Y015652D02*
X019110Y015652D01*
X019033Y015810D02*
X018827Y015810D01*
X018908Y015969D02*
X018952Y015969D01*
X018930Y016127D02*
X018930Y016127D01*
X018930Y016286D02*
X018930Y016286D01*
X018930Y016444D02*
X018930Y016444D01*
X018930Y016603D02*
X018930Y016603D01*
X018921Y016761D02*
X018939Y016761D01*
X019005Y016920D02*
X018855Y016920D01*
X018679Y017078D02*
X019181Y017078D01*
X019679Y017078D02*
X020181Y017078D01*
X020005Y016920D02*
X019855Y016920D01*
X019921Y016761D02*
X019939Y016761D01*
X019930Y016603D02*
X019930Y016603D01*
X019930Y016444D02*
X019930Y016444D01*
X019930Y016286D02*
X019930Y016286D01*
X019930Y016127D02*
X019930Y016127D01*
X019908Y015969D02*
X019952Y015969D01*
X020033Y015810D02*
X019827Y015810D01*
X019750Y015652D02*
X020254Y015652D01*
X019430Y015130D02*
X019930Y014630D01*
X019430Y015130D02*
X019430Y016380D01*
X020679Y017078D02*
X021181Y017078D01*
X021005Y016920D02*
X020855Y016920D01*
X020921Y016761D02*
X020939Y016761D01*
X020930Y016603D02*
X020930Y016603D01*
X023430Y016380D02*
X023430Y015880D01*
X023901Y015950D02*
X023930Y016021D01*
X023930Y016739D01*
X023930Y016021D01*
X023959Y015950D01*
X023901Y015950D01*
X023908Y015969D02*
X023952Y015969D01*
X023930Y016127D02*
X023930Y016127D01*
X023930Y016286D02*
X023930Y016286D01*
X023930Y016444D02*
X023930Y016444D01*
X023930Y016603D02*
X023930Y016603D01*
X023921Y016761D02*
X023939Y016761D01*
X024005Y016920D02*
X023855Y016920D01*
X023679Y017078D02*
X024181Y017078D01*
X028426Y013750D02*
X029082Y013750D01*
X028966Y013591D02*
X028430Y013591D01*
X028430Y013433D02*
X028920Y013433D01*
X028923Y013274D02*
X028430Y013274D01*
X028430Y013116D02*
X028988Y013116D01*
X029136Y012957D02*
X028404Y012957D01*
X028316Y012799D02*
X029131Y012799D01*
X028987Y012640D02*
X028078Y012640D01*
X027782Y012640D02*
X027078Y012640D01*
X027316Y012799D02*
X027544Y012799D01*
X027456Y012957D02*
X027404Y012957D01*
X027430Y013116D02*
X027430Y013116D01*
X027430Y013274D02*
X027430Y013274D01*
X026782Y012640D02*
X026078Y012640D01*
X026316Y012799D02*
X026544Y012799D01*
X026456Y012957D02*
X026404Y012957D01*
X026430Y013116D02*
X026430Y013116D01*
X026430Y013274D02*
X026430Y013274D01*
X029680Y012380D02*
X031180Y012380D01*
X031180Y010380D01*
X032680Y010380D01*
X030860Y010738D02*
X030289Y010738D01*
X030079Y010897D02*
X030860Y010897D01*
X030860Y011055D02*
X030322Y011055D01*
X030412Y011214D02*
X030860Y011214D01*
X030860Y011372D02*
X030440Y011372D01*
X030419Y011531D02*
X030860Y011531D01*
X030860Y011689D02*
X030338Y011689D01*
X030118Y011848D02*
X030860Y011848D01*
X030860Y012006D02*
X030273Y012006D01*
X030372Y013116D02*
X032068Y013116D01*
X031992Y013274D02*
X030437Y013274D01*
X030440Y013433D02*
X031983Y013433D01*
X032034Y013591D02*
X030394Y013591D01*
X030278Y013750D02*
X032180Y013750D01*
X031463Y014225D02*
X030982Y014225D01*
X031141Y014384D02*
X031304Y014384D01*
X031240Y014542D02*
X031180Y014542D01*
X031180Y014701D02*
X031240Y014701D01*
X031287Y014859D02*
X031158Y014859D01*
X031000Y015018D02*
X031445Y015018D01*
X032680Y012380D02*
X032680Y011380D01*
X032680Y008880D02*
X032680Y008380D01*
X033000Y008880D02*
X033000Y008880D01*
X033039Y008880D01*
X033000Y008880D01*
X026012Y008995D02*
X024136Y008995D01*
X017522Y005349D02*
X002420Y005349D01*
X002420Y005191D02*
X021610Y005191D01*
X021568Y005032D02*
X021292Y005032D01*
X020568Y005032D02*
X020292Y005032D01*
X019568Y005032D02*
X019292Y005032D01*
X018568Y005032D02*
X018292Y005032D01*
X017568Y005032D02*
X017292Y005032D01*
X016568Y005032D02*
X016292Y005032D01*
X015568Y005032D02*
X015292Y005032D01*
X014568Y005032D02*
X014292Y005032D01*
X013568Y005032D02*
X013292Y005032D01*
X012568Y005032D02*
X002420Y005032D01*
X002420Y004874D02*
X012410Y004874D01*
X012390Y004715D02*
X002420Y004715D01*
X002420Y004557D02*
X012390Y004557D01*
X012398Y004398D02*
X002420Y004398D01*
X002420Y004240D02*
X012557Y004240D01*
X012617Y004081D02*
X002420Y004081D01*
X002420Y003923D02*
X012459Y003923D01*
X012390Y003764D02*
X002420Y003764D01*
X002420Y003606D02*
X012390Y003606D01*
X012390Y003447D02*
X002420Y003447D01*
X003500Y006934D02*
X004169Y006934D01*
X004010Y007093D02*
X003600Y007093D01*
X003680Y007251D02*
X003930Y007251D01*
X004791Y007727D02*
X005569Y007727D01*
X005718Y007885D02*
X004642Y007885D01*
X004801Y008044D02*
X005559Y008044D01*
X005430Y008202D02*
X004930Y008202D01*
X006250Y008836D02*
X006929Y008836D01*
X006903Y009629D02*
X006386Y009629D01*
X008296Y008044D02*
X008753Y008044D01*
X008761Y008048D02*
X008699Y008016D01*
X008643Y007976D01*
X008594Y007927D01*
X008554Y007871D01*
X008522Y007809D01*
X008501Y007743D01*
X008490Y007675D01*
X008490Y007380D01*
X008930Y007380D01*
X008930Y008060D01*
X008930Y008060D01*
X008930Y007380D01*
X008930Y007380D01*
X009370Y007380D01*
X009370Y007675D01*
X009359Y007743D01*
X009338Y007809D01*
X009306Y007871D01*
X009266Y007927D01*
X009217Y007976D01*
X009161Y008016D01*
X009099Y008048D01*
X009061Y008060D01*
X009643Y008060D01*
X009506Y007923D01*
X009430Y007739D01*
X009430Y007021D01*
X009459Y006950D01*
X009337Y006950D01*
X009338Y006951D01*
X009359Y007017D01*
X009370Y007085D01*
X009370Y007380D01*
X008930Y007380D01*
X008930Y007380D01*
X008930Y007380D01*
X008930Y006950D01*
X008930Y006950D01*
X008930Y007380D01*
X008930Y007380D01*
X008490Y007380D01*
X008490Y007085D01*
X008501Y007017D01*
X008522Y006951D01*
X008523Y006950D01*
X007457Y006950D01*
X007680Y007173D01*
X007680Y007427D01*
X008313Y008060D01*
X008799Y008060D01*
X008761Y008048D01*
X008930Y008044D02*
X008930Y008044D01*
X008930Y007885D02*
X008930Y007885D01*
X008930Y007727D02*
X008930Y007727D01*
X008930Y007568D02*
X008930Y007568D01*
X008930Y007410D02*
X008930Y007410D01*
X008930Y007251D02*
X008930Y007251D01*
X008930Y007093D02*
X008930Y007093D01*
X009370Y007093D02*
X009430Y007093D01*
X009430Y007251D02*
X009370Y007251D01*
X009370Y007410D02*
X009430Y007410D01*
X009430Y007568D02*
X009370Y007568D01*
X009362Y007727D02*
X009430Y007727D01*
X009490Y007885D02*
X009296Y007885D01*
X009107Y008044D02*
X009626Y008044D01*
X008564Y007885D02*
X008138Y007885D01*
X007979Y007727D02*
X008498Y007727D01*
X008490Y007568D02*
X007821Y007568D01*
X007680Y007410D02*
X008490Y007410D01*
X008490Y007251D02*
X007680Y007251D01*
X007600Y007093D02*
X008490Y007093D01*
X007227Y007880D02*
X007227Y007880D01*
X006680Y007251D02*
X006430Y007251D01*
X006420Y007093D02*
X006760Y007093D01*
X013217Y008060D02*
X013643Y008060D01*
X013506Y007923D01*
X013430Y007739D01*
X013430Y007021D01*
X013430Y007739D01*
X013354Y007923D01*
X013217Y008060D01*
X013234Y008044D02*
X013626Y008044D01*
X013490Y007885D02*
X013370Y007885D01*
X013430Y007727D02*
X013430Y007727D01*
X013430Y007568D02*
X013430Y007568D01*
X013430Y007410D02*
X013430Y007410D01*
X013430Y007251D02*
X013430Y007251D01*
X013430Y007093D02*
X013430Y007093D01*
X013394Y006934D02*
X013466Y006934D01*
X013567Y006776D02*
X013293Y006776D01*
X014293Y006776D02*
X014567Y006776D01*
X014466Y006934D02*
X014394Y006934D01*
X014430Y007021D02*
X014430Y007739D01*
X014430Y007021D01*
X014430Y007093D02*
X014430Y007093D01*
X014430Y007251D02*
X014430Y007251D01*
X014430Y007410D02*
X014430Y007410D01*
X014430Y007568D02*
X014430Y007568D01*
X014430Y007727D02*
X014430Y007727D01*
X014430Y007739D02*
X014506Y007923D01*
X014643Y008060D01*
X014217Y008060D01*
X014354Y007923D01*
X014430Y007739D01*
X014370Y007885D02*
X014490Y007885D01*
X014626Y008044D02*
X014234Y008044D01*
X015217Y008060D02*
X015643Y008060D01*
X015506Y007923D01*
X015430Y007739D01*
X015430Y007021D01*
X015430Y007739D01*
X015354Y007923D01*
X015217Y008060D01*
X015234Y008044D02*
X015626Y008044D01*
X015490Y007885D02*
X015370Y007885D01*
X015430Y007727D02*
X015430Y007727D01*
X015430Y007568D02*
X015430Y007568D01*
X015430Y007410D02*
X015430Y007410D01*
X015430Y007251D02*
X015430Y007251D01*
X015430Y007093D02*
X015430Y007093D01*
X015394Y006934D02*
X015466Y006934D01*
X015567Y006776D02*
X015293Y006776D01*
X003948Y013116D02*
X003531Y013116D01*
X003660Y013274D02*
X003747Y013274D01*
X006536Y014701D02*
X006777Y014701D01*
X007520Y014701D02*
X008652Y014701D01*
D19*
X006430Y015130D03*
X006430Y015880D03*
X005180Y015130D03*
X003930Y015130D03*
X003930Y015880D03*
X003930Y016880D03*
X005180Y016880D03*
X006430Y016880D03*
X006430Y012380D03*
X005180Y012380D03*
X003930Y012380D03*
X003180Y009130D03*
X005180Y009130D03*
X007180Y009130D03*
X005180Y006380D03*
X004680Y005130D03*
X003680Y005130D03*
X002680Y005130D03*
X003180Y004380D03*
X004180Y004380D03*
X005180Y004380D03*
X006180Y004380D03*
X007180Y004380D03*
X006680Y003630D03*
X005680Y003630D03*
X004680Y003630D03*
X003680Y003630D03*
X002680Y003630D03*
X005680Y005130D03*
X006680Y005130D03*
X007680Y005130D03*
X007680Y003630D03*
X026680Y010380D03*
X027930Y010380D03*
D20*
X026430Y008880D03*
X023930Y009380D03*
X019430Y008380D03*
X018430Y008380D03*
X017430Y008380D03*
X016430Y008380D03*
M02*
