G75*
G70*
%OFA0B0*%
%FSLAX24Y24*%
%IPPOS*%
%LPD*%
%AMOC8*
5,1,8,0,0,1.08239X$1,22.5*
%
%ADD10C,0.0000*%
%ADD11C,0.0110*%
%ADD12C,0.0060*%
%ADD13C,0.0080*%
%ADD14C,0.0030*%
%ADD15C,0.0240*%
%ADD16C,0.0120*%
%ADD17C,0.0050*%
%ADD18R,0.0260X0.0320*%
%ADD19R,0.0260X0.0680*%
%ADD20R,0.0260X0.0460*%
%ADD21R,0.0800X0.0200*%
D10*
X002180Y003130D02*
X002180Y017500D01*
X033922Y017500D01*
X033922Y003130D01*
X002180Y003130D01*
X004944Y013949D02*
X004946Y013979D01*
X004952Y014009D01*
X004961Y014038D01*
X004974Y014065D01*
X004991Y014090D01*
X005010Y014113D01*
X005033Y014134D01*
X005058Y014151D01*
X005084Y014165D01*
X005113Y014175D01*
X005142Y014182D01*
X005172Y014185D01*
X005203Y014184D01*
X005233Y014179D01*
X005262Y014170D01*
X005289Y014158D01*
X005315Y014143D01*
X005339Y014124D01*
X005360Y014102D01*
X005378Y014078D01*
X005393Y014051D01*
X005404Y014023D01*
X005412Y013994D01*
X005416Y013964D01*
X005416Y013934D01*
X005412Y013904D01*
X005404Y013875D01*
X005393Y013847D01*
X005378Y013820D01*
X005360Y013796D01*
X005339Y013774D01*
X005315Y013755D01*
X005289Y013740D01*
X005262Y013728D01*
X005233Y013719D01*
X005203Y013714D01*
X005172Y013713D01*
X005142Y013716D01*
X005113Y013723D01*
X005084Y013733D01*
X005058Y013747D01*
X005033Y013764D01*
X005010Y013785D01*
X004991Y013808D01*
X004974Y013833D01*
X004961Y013860D01*
X004952Y013889D01*
X004946Y013919D01*
X004944Y013949D01*
X002975Y015917D02*
X002977Y015947D01*
X002983Y015977D01*
X002992Y016006D01*
X003005Y016033D01*
X003022Y016058D01*
X003041Y016081D01*
X003064Y016102D01*
X003089Y016119D01*
X003115Y016133D01*
X003144Y016143D01*
X003173Y016150D01*
X003203Y016153D01*
X003234Y016152D01*
X003264Y016147D01*
X003293Y016138D01*
X003320Y016126D01*
X003346Y016111D01*
X003370Y016092D01*
X003391Y016070D01*
X003409Y016046D01*
X003424Y016019D01*
X003435Y015991D01*
X003443Y015962D01*
X003447Y015932D01*
X003447Y015902D01*
X003443Y015872D01*
X003435Y015843D01*
X003424Y015815D01*
X003409Y015788D01*
X003391Y015764D01*
X003370Y015742D01*
X003346Y015723D01*
X003320Y015708D01*
X003293Y015696D01*
X003264Y015687D01*
X003234Y015682D01*
X003203Y015681D01*
X003173Y015684D01*
X003144Y015691D01*
X003115Y015701D01*
X003089Y015715D01*
X003064Y015732D01*
X003041Y015753D01*
X003022Y015776D01*
X003005Y015801D01*
X002992Y015828D01*
X002983Y015857D01*
X002977Y015887D01*
X002975Y015917D01*
X002975Y016902D02*
X002977Y016932D01*
X002983Y016962D01*
X002992Y016991D01*
X003005Y017018D01*
X003022Y017043D01*
X003041Y017066D01*
X003064Y017087D01*
X003089Y017104D01*
X003115Y017118D01*
X003144Y017128D01*
X003173Y017135D01*
X003203Y017138D01*
X003234Y017137D01*
X003264Y017132D01*
X003293Y017123D01*
X003320Y017111D01*
X003346Y017096D01*
X003370Y017077D01*
X003391Y017055D01*
X003409Y017031D01*
X003424Y017004D01*
X003435Y016976D01*
X003443Y016947D01*
X003447Y016917D01*
X003447Y016887D01*
X003443Y016857D01*
X003435Y016828D01*
X003424Y016800D01*
X003409Y016773D01*
X003391Y016749D01*
X003370Y016727D01*
X003346Y016708D01*
X003320Y016693D01*
X003293Y016681D01*
X003264Y016672D01*
X003234Y016667D01*
X003203Y016666D01*
X003173Y016669D01*
X003144Y016676D01*
X003115Y016686D01*
X003089Y016700D01*
X003064Y016717D01*
X003041Y016738D01*
X003022Y016761D01*
X003005Y016786D01*
X002992Y016813D01*
X002983Y016842D01*
X002977Y016872D01*
X002975Y016902D01*
X006913Y016902D02*
X006915Y016932D01*
X006921Y016962D01*
X006930Y016991D01*
X006943Y017018D01*
X006960Y017043D01*
X006979Y017066D01*
X007002Y017087D01*
X007027Y017104D01*
X007053Y017118D01*
X007082Y017128D01*
X007111Y017135D01*
X007141Y017138D01*
X007172Y017137D01*
X007202Y017132D01*
X007231Y017123D01*
X007258Y017111D01*
X007284Y017096D01*
X007308Y017077D01*
X007329Y017055D01*
X007347Y017031D01*
X007362Y017004D01*
X007373Y016976D01*
X007381Y016947D01*
X007385Y016917D01*
X007385Y016887D01*
X007381Y016857D01*
X007373Y016828D01*
X007362Y016800D01*
X007347Y016773D01*
X007329Y016749D01*
X007308Y016727D01*
X007284Y016708D01*
X007258Y016693D01*
X007231Y016681D01*
X007202Y016672D01*
X007172Y016667D01*
X007141Y016666D01*
X007111Y016669D01*
X007082Y016676D01*
X007053Y016686D01*
X007027Y016700D01*
X007002Y016717D01*
X006979Y016738D01*
X006960Y016761D01*
X006943Y016786D01*
X006930Y016813D01*
X006921Y016842D01*
X006915Y016872D01*
X006913Y016902D01*
X006913Y015917D02*
X006915Y015947D01*
X006921Y015977D01*
X006930Y016006D01*
X006943Y016033D01*
X006960Y016058D01*
X006979Y016081D01*
X007002Y016102D01*
X007027Y016119D01*
X007053Y016133D01*
X007082Y016143D01*
X007111Y016150D01*
X007141Y016153D01*
X007172Y016152D01*
X007202Y016147D01*
X007231Y016138D01*
X007258Y016126D01*
X007284Y016111D01*
X007308Y016092D01*
X007329Y016070D01*
X007347Y016046D01*
X007362Y016019D01*
X007373Y015991D01*
X007381Y015962D01*
X007385Y015932D01*
X007385Y015902D01*
X007381Y015872D01*
X007373Y015843D01*
X007362Y015815D01*
X007347Y015788D01*
X007329Y015764D01*
X007308Y015742D01*
X007284Y015723D01*
X007258Y015708D01*
X007231Y015696D01*
X007202Y015687D01*
X007172Y015682D01*
X007141Y015681D01*
X007111Y015684D01*
X007082Y015691D01*
X007053Y015701D01*
X007027Y015715D01*
X007002Y015732D01*
X006979Y015753D01*
X006960Y015776D01*
X006943Y015801D01*
X006930Y015828D01*
X006921Y015857D01*
X006915Y015887D01*
X006913Y015917D01*
D11*
X013836Y012164D02*
X014053Y012381D01*
X014270Y012164D01*
X014270Y011730D01*
X014270Y012055D02*
X013836Y012055D01*
X013836Y012164D02*
X013836Y011730D01*
X014536Y012272D02*
X014753Y012055D01*
X014753Y011730D01*
X014753Y012055D02*
X014969Y012272D01*
X014969Y012381D01*
X014536Y012381D02*
X014536Y012272D01*
X015236Y012055D02*
X015669Y012055D01*
X015935Y011838D02*
X016044Y011730D01*
X016261Y011730D01*
X016369Y011838D01*
X016369Y011947D01*
X016261Y012055D01*
X016152Y012055D01*
X016261Y012055D02*
X016369Y012164D01*
X016369Y012272D01*
X016261Y012381D01*
X016044Y012381D01*
X015935Y012272D01*
X016635Y012055D02*
X017069Y012055D01*
X017335Y011947D02*
X017335Y011838D01*
X017443Y011730D01*
X017660Y011730D01*
X017769Y011838D01*
X017769Y011947D01*
X017660Y012055D01*
X017443Y012055D01*
X017335Y012164D01*
X017335Y012272D01*
X017443Y012381D01*
X017660Y012381D01*
X017769Y012272D01*
X017769Y012164D01*
X017660Y012055D01*
X017443Y012055D02*
X017335Y011947D01*
X018035Y011838D02*
X018143Y011730D01*
X018360Y011730D01*
X018468Y011838D01*
X018468Y012272D01*
X018360Y012381D01*
X018143Y012381D01*
X018035Y012272D01*
X018035Y012164D01*
X018143Y012055D01*
X018468Y012055D01*
X018734Y012164D02*
X018951Y012381D01*
X018951Y011730D01*
X018734Y011730D02*
X019168Y011730D01*
X019434Y011730D02*
X019868Y012164D01*
X019868Y012272D01*
X019760Y012381D01*
X019543Y012381D01*
X019434Y012272D01*
X019434Y011730D02*
X019868Y011730D01*
X019868Y009531D02*
X019868Y008880D01*
X020134Y008880D02*
X020568Y009314D01*
X020568Y009422D01*
X020459Y009531D01*
X020243Y009531D01*
X020134Y009422D01*
X019868Y009531D02*
X019651Y009314D01*
X019434Y009531D01*
X019434Y008880D01*
X018951Y008880D02*
X018951Y009205D01*
X019168Y009422D01*
X019168Y009531D01*
X018951Y009205D02*
X018734Y009422D01*
X018734Y009531D01*
X017769Y009531D02*
X017335Y008880D01*
X016369Y008988D02*
X016369Y009422D01*
X015935Y008988D01*
X016044Y008880D01*
X016261Y008880D01*
X016369Y008988D01*
X015935Y008988D02*
X015935Y009422D01*
X016044Y009531D01*
X016261Y009531D01*
X016369Y009422D01*
X015452Y009531D02*
X015452Y008880D01*
X015235Y008880D02*
X015669Y008880D01*
X014969Y008988D02*
X014861Y008880D01*
X014644Y008880D01*
X014536Y008988D01*
X014644Y009205D02*
X014969Y009205D01*
X014969Y008988D02*
X014969Y009422D01*
X014861Y009531D01*
X014644Y009531D01*
X014536Y009422D01*
X014536Y009314D01*
X014644Y009205D01*
X015235Y009314D02*
X015452Y009531D01*
X014270Y009422D02*
X014270Y009314D01*
X014161Y009205D01*
X013944Y009205D01*
X013836Y009314D01*
X013836Y009422D01*
X013944Y009531D01*
X014161Y009531D01*
X014270Y009422D01*
X014161Y009205D02*
X014270Y009097D01*
X014270Y008988D01*
X014161Y008880D01*
X013944Y008880D01*
X013836Y008988D01*
X013836Y009097D01*
X013944Y009205D01*
X013570Y009205D02*
X013136Y009205D01*
X012870Y009097D02*
X012870Y008988D01*
X012762Y008880D01*
X012545Y008880D01*
X012436Y008988D01*
X012653Y009205D02*
X012762Y009205D01*
X012870Y009097D01*
X012762Y009205D02*
X012870Y009314D01*
X012870Y009422D01*
X012762Y009531D01*
X012545Y009531D01*
X012436Y009422D01*
X012170Y009205D02*
X011737Y009205D01*
X011470Y009422D02*
X011470Y009531D01*
X011470Y009422D02*
X011254Y009205D01*
X011254Y008880D01*
X011254Y009205D02*
X011037Y009422D01*
X011037Y009531D01*
X010771Y009314D02*
X010771Y008880D01*
X010337Y008880D02*
X010337Y009314D01*
X010554Y009531D01*
X010771Y009314D01*
X010771Y009205D02*
X010337Y009205D01*
X011212Y006206D02*
X011104Y006097D01*
X011104Y005663D01*
X011212Y005555D01*
X011429Y005555D01*
X011537Y005663D01*
X011537Y005880D01*
X011321Y005880D01*
X011537Y006097D02*
X011429Y006206D01*
X011212Y006206D01*
X011803Y005989D02*
X012020Y006206D01*
X012237Y005989D01*
X012237Y005555D01*
X012503Y005555D02*
X012937Y005555D01*
X013203Y005555D02*
X013203Y005989D01*
X013420Y006206D01*
X013637Y005989D01*
X013637Y005555D01*
X013903Y005555D02*
X013903Y006206D01*
X014011Y005880D02*
X014337Y005555D01*
X014603Y005663D02*
X014711Y005555D01*
X014928Y005555D01*
X015036Y005663D01*
X015036Y005772D01*
X014928Y005880D01*
X014711Y005880D01*
X014603Y005989D01*
X014603Y006097D01*
X014711Y006206D01*
X014928Y006206D01*
X015036Y006097D01*
X015302Y006206D02*
X015519Y006206D01*
X015411Y006206D02*
X015411Y005555D01*
X015519Y005555D02*
X015302Y005555D01*
X015769Y005663D02*
X015877Y005555D01*
X015986Y005555D01*
X016094Y005663D01*
X016094Y006206D01*
X015986Y006206D02*
X016203Y006206D01*
X016469Y005989D02*
X016686Y006206D01*
X016902Y005989D01*
X016902Y005555D01*
X016469Y005555D02*
X016469Y005989D01*
X016469Y005880D02*
X016902Y005880D01*
X017868Y005989D02*
X017977Y005880D01*
X018194Y005880D01*
X018302Y005772D01*
X018302Y005663D01*
X018194Y005555D01*
X017977Y005555D01*
X017868Y005663D01*
X017868Y005989D02*
X017868Y006097D01*
X017977Y006206D01*
X018194Y006206D01*
X018302Y006097D01*
X018568Y006097D02*
X018677Y006206D01*
X018893Y006206D01*
X019002Y006097D01*
X019002Y005663D01*
X018893Y005555D01*
X018677Y005555D01*
X018568Y005663D01*
X018568Y006097D01*
X019268Y006206D02*
X019268Y005663D01*
X019376Y005555D01*
X019593Y005555D01*
X019702Y005663D01*
X019702Y006206D01*
X019968Y006206D02*
X020401Y005555D01*
X020401Y006206D01*
X020668Y006206D02*
X020993Y006206D01*
X021101Y006097D01*
X021101Y005663D01*
X020993Y005555D01*
X020668Y005555D01*
X020668Y006206D01*
X019968Y006206D02*
X019968Y005555D01*
X022067Y005663D02*
X022176Y005555D01*
X022392Y005555D01*
X022501Y005663D01*
X022767Y005555D02*
X022767Y005989D01*
X022984Y006206D01*
X023201Y005989D01*
X023201Y005555D01*
X023467Y005555D02*
X023467Y006206D01*
X023792Y006206D01*
X023900Y006097D01*
X023900Y005880D01*
X023792Y005772D01*
X023467Y005772D01*
X023684Y005772D02*
X023900Y005555D01*
X024167Y005555D02*
X024492Y005555D01*
X024600Y005663D01*
X024600Y006097D01*
X024492Y006206D01*
X024167Y006206D01*
X024167Y005555D01*
X023201Y005880D02*
X022767Y005880D01*
X022501Y006097D02*
X022392Y006206D01*
X022176Y006206D01*
X022067Y006097D01*
X022067Y005663D01*
X021859Y008880D02*
X021859Y009531D01*
X021534Y009205D01*
X021967Y009205D01*
X022233Y009314D02*
X022342Y009205D01*
X022667Y009205D01*
X022667Y008988D02*
X022667Y009422D01*
X022559Y009531D01*
X022342Y009531D01*
X022233Y009422D01*
X022233Y009314D01*
X022233Y008988D02*
X022342Y008880D01*
X022559Y008880D01*
X022667Y008988D01*
X022933Y008880D02*
X022933Y009531D01*
X023367Y009531D01*
X023150Y009205D02*
X022933Y009205D01*
X021268Y008880D02*
X020834Y008880D01*
X021051Y008880D02*
X021051Y009531D01*
X020834Y009314D01*
X020568Y008880D02*
X020134Y008880D01*
X014337Y006206D02*
X013903Y005772D01*
X013637Y005880D02*
X013203Y005880D01*
X012503Y005555D02*
X012503Y006206D01*
X012237Y005880D02*
X011803Y005880D01*
X011803Y005989D02*
X011803Y005555D01*
X030143Y015838D02*
X030143Y016489D01*
X030468Y016489D01*
X030577Y016380D01*
X030577Y016163D01*
X030468Y016055D01*
X030143Y016055D01*
X029894Y016055D02*
X029677Y016055D01*
X029785Y016055D02*
X029785Y016489D01*
X029677Y016489D01*
X029411Y016380D02*
X029411Y016055D01*
X028977Y016055D02*
X028977Y016706D01*
X029085Y016489D02*
X029302Y016489D01*
X029411Y016380D01*
X029085Y016489D02*
X028977Y016380D01*
X028711Y016489D02*
X028386Y016489D01*
X028277Y016380D01*
X028277Y016163D01*
X028386Y016055D01*
X028711Y016055D01*
X028027Y016055D02*
X027919Y016163D01*
X027919Y016597D01*
X027811Y016489D02*
X028027Y016489D01*
X027452Y016489D02*
X027452Y016055D01*
X027344Y016055D02*
X027561Y016055D01*
X027452Y016489D02*
X027344Y016489D01*
X027078Y016380D02*
X027078Y016163D01*
X026970Y016055D01*
X026644Y016055D01*
X026644Y016706D01*
X026378Y016597D02*
X026378Y016489D01*
X026270Y016380D01*
X026053Y016380D01*
X025944Y016489D01*
X025944Y016597D01*
X026053Y016706D01*
X026270Y016706D01*
X026378Y016597D01*
X026270Y016380D02*
X026378Y016272D01*
X026378Y016163D01*
X026270Y016055D01*
X026053Y016055D01*
X025944Y016163D01*
X025944Y016272D01*
X026053Y016380D01*
X026644Y016489D02*
X026970Y016489D01*
X027078Y016380D01*
X027452Y016706D02*
X027452Y016814D01*
X029785Y016814D02*
X029785Y016706D01*
X030843Y016163D02*
X030951Y016163D01*
X030951Y016055D01*
X030843Y016055D01*
X030843Y016163D01*
X031193Y016055D02*
X031410Y016055D01*
X031301Y016055D02*
X031301Y016489D01*
X031193Y016489D01*
X031659Y016489D02*
X031985Y016489D01*
X032093Y016380D01*
X032093Y016055D01*
X032468Y016055D02*
X032468Y016597D01*
X032576Y016706D01*
X032576Y016380D02*
X032359Y016380D01*
X032826Y016380D02*
X032826Y016163D01*
X032934Y016055D01*
X033151Y016055D01*
X033259Y016163D01*
X033259Y016380D01*
X033151Y016489D01*
X032934Y016489D01*
X032826Y016380D01*
X031659Y016489D02*
X031659Y016055D01*
X031301Y016706D02*
X031301Y016814D01*
D12*
X031830Y015080D02*
X030530Y015080D01*
X030504Y015078D01*
X030478Y015073D01*
X030453Y015065D01*
X030430Y015053D01*
X030408Y015039D01*
X030389Y015021D01*
X030371Y015002D01*
X030357Y014980D01*
X030345Y014957D01*
X030337Y014932D01*
X030332Y014906D01*
X030330Y014880D01*
X030330Y014380D01*
X030332Y014354D01*
X030337Y014328D01*
X030345Y014303D01*
X030357Y014280D01*
X030371Y014258D01*
X030389Y014239D01*
X030408Y014221D01*
X030430Y014207D01*
X030453Y014195D01*
X030478Y014187D01*
X030504Y014182D01*
X030530Y014180D01*
X031830Y014180D01*
X031856Y014182D01*
X031882Y014187D01*
X031907Y014195D01*
X031930Y014207D01*
X031952Y014221D01*
X031971Y014239D01*
X031989Y014258D01*
X032003Y014280D01*
X032015Y014303D01*
X032023Y014328D01*
X032028Y014354D01*
X032030Y014380D01*
X032030Y014880D01*
X032028Y014906D01*
X032023Y014932D01*
X032015Y014957D01*
X032003Y014980D01*
X031989Y015002D01*
X031971Y015021D01*
X031952Y015039D01*
X031930Y015053D01*
X031907Y015065D01*
X031882Y015073D01*
X031856Y015078D01*
X031830Y015080D01*
X031680Y014630D02*
X031310Y014630D01*
X031060Y014630D02*
X030680Y014630D01*
X030030Y013880D02*
X032330Y013880D01*
X032330Y006880D01*
X031580Y006880D01*
X031578Y006919D01*
X031572Y006958D01*
X031563Y006996D01*
X031550Y007033D01*
X031533Y007069D01*
X031513Y007102D01*
X031489Y007134D01*
X031463Y007163D01*
X031434Y007189D01*
X031402Y007213D01*
X031369Y007233D01*
X031333Y007250D01*
X031296Y007263D01*
X031258Y007272D01*
X031219Y007278D01*
X031180Y007280D01*
X031141Y007278D01*
X031102Y007272D01*
X031064Y007263D01*
X031027Y007250D01*
X030991Y007233D01*
X030958Y007213D01*
X030926Y007189D01*
X030897Y007163D01*
X030871Y007134D01*
X030847Y007102D01*
X030827Y007069D01*
X030810Y007033D01*
X030797Y006996D01*
X030788Y006958D01*
X030782Y006919D01*
X030780Y006880D01*
X030030Y006880D01*
X030030Y013880D01*
X028330Y012980D02*
X008530Y012980D01*
X008530Y010880D01*
X007830Y010680D02*
X007630Y010680D01*
X007580Y010680D02*
X007180Y010680D01*
X006780Y010680D01*
X006780Y010480D01*
X007580Y010480D01*
X007580Y010680D01*
X007730Y010780D02*
X007730Y010580D01*
X007180Y010680D02*
X007180Y010980D01*
X006380Y010380D02*
X006382Y010436D01*
X006388Y010493D01*
X006398Y010548D01*
X006412Y010603D01*
X006429Y010657D01*
X006451Y010709D01*
X006476Y010759D01*
X006504Y010808D01*
X006536Y010855D01*
X006571Y010899D01*
X006609Y010941D01*
X006650Y010980D01*
X006694Y011015D01*
X006740Y011048D01*
X006788Y011077D01*
X006838Y011103D01*
X006890Y011126D01*
X006944Y011144D01*
X006998Y011159D01*
X007053Y011170D01*
X007109Y011177D01*
X007166Y011180D01*
X007222Y011179D01*
X007279Y011174D01*
X007334Y011165D01*
X007389Y011152D01*
X007443Y011135D01*
X007496Y011115D01*
X007547Y011091D01*
X007596Y011063D01*
X007643Y011032D01*
X007688Y010998D01*
X007731Y010960D01*
X007770Y010920D01*
X007807Y010877D01*
X007840Y010832D01*
X007870Y010784D01*
X007897Y010734D01*
X007920Y010683D01*
X007940Y010630D01*
X007956Y010576D01*
X007968Y010520D01*
X007976Y010465D01*
X007980Y010408D01*
X007980Y010352D01*
X007976Y010295D01*
X007968Y010240D01*
X007956Y010184D01*
X007940Y010130D01*
X007920Y010077D01*
X007897Y010026D01*
X007870Y009976D01*
X007840Y009928D01*
X007807Y009883D01*
X007770Y009840D01*
X007731Y009800D01*
X007688Y009762D01*
X007643Y009728D01*
X007596Y009697D01*
X007547Y009669D01*
X007496Y009645D01*
X007443Y009625D01*
X007389Y009608D01*
X007334Y009595D01*
X007279Y009586D01*
X007222Y009581D01*
X007166Y009580D01*
X007109Y009583D01*
X007053Y009590D01*
X006998Y009601D01*
X006944Y009616D01*
X006890Y009634D01*
X006838Y009657D01*
X006788Y009683D01*
X006740Y009712D01*
X006694Y009745D01*
X006650Y009780D01*
X006609Y009819D01*
X006571Y009861D01*
X006536Y009905D01*
X006504Y009952D01*
X006476Y010001D01*
X006451Y010051D01*
X006429Y010103D01*
X006412Y010157D01*
X006398Y010212D01*
X006388Y010267D01*
X006382Y010324D01*
X006380Y010380D01*
X005530Y009880D02*
X005532Y009920D01*
X005538Y009959D01*
X005548Y009998D01*
X005561Y010035D01*
X005579Y010071D01*
X005600Y010105D01*
X005624Y010137D01*
X005651Y010166D01*
X005681Y010193D01*
X005713Y010216D01*
X005748Y010236D01*
X005784Y010252D01*
X005822Y010265D01*
X005861Y010274D01*
X005900Y010279D01*
X005940Y010280D01*
X005980Y010277D01*
X006019Y010270D01*
X006057Y010259D01*
X006095Y010245D01*
X006130Y010226D01*
X006163Y010205D01*
X006195Y010180D01*
X006223Y010152D01*
X006249Y010122D01*
X006271Y010089D01*
X006290Y010054D01*
X006306Y010017D01*
X006318Y009979D01*
X006326Y009940D01*
X006330Y009900D01*
X006330Y009860D01*
X006326Y009820D01*
X006318Y009781D01*
X006306Y009743D01*
X006290Y009706D01*
X006271Y009671D01*
X006249Y009638D01*
X006223Y009608D01*
X006195Y009580D01*
X006163Y009555D01*
X006130Y009534D01*
X006095Y009515D01*
X006057Y009501D01*
X006019Y009490D01*
X005980Y009483D01*
X005940Y009480D01*
X005900Y009481D01*
X005861Y009486D01*
X005822Y009495D01*
X005784Y009508D01*
X005748Y009524D01*
X005713Y009544D01*
X005681Y009567D01*
X005651Y009594D01*
X005624Y009623D01*
X005600Y009655D01*
X005579Y009689D01*
X005561Y009725D01*
X005548Y009762D01*
X005538Y009801D01*
X005532Y009840D01*
X005530Y009880D01*
X005430Y009880D02*
X005432Y009924D01*
X005438Y009968D01*
X005448Y010011D01*
X005461Y010053D01*
X005478Y010094D01*
X005499Y010133D01*
X005523Y010170D01*
X005550Y010205D01*
X005580Y010237D01*
X005613Y010267D01*
X005649Y010293D01*
X005686Y010317D01*
X005726Y010336D01*
X005767Y010353D01*
X005810Y010365D01*
X005853Y010374D01*
X005897Y010379D01*
X005941Y010380D01*
X005985Y010377D01*
X006029Y010370D01*
X006072Y010359D01*
X006114Y010345D01*
X006154Y010327D01*
X006193Y010305D01*
X006229Y010281D01*
X006263Y010253D01*
X006295Y010222D01*
X006324Y010188D01*
X006350Y010152D01*
X006372Y010114D01*
X006391Y010074D01*
X006406Y010032D01*
X006418Y009990D01*
X006426Y009946D01*
X006430Y009902D01*
X006430Y009858D01*
X006426Y009814D01*
X006418Y009770D01*
X006406Y009728D01*
X006391Y009686D01*
X006372Y009646D01*
X006350Y009608D01*
X006324Y009572D01*
X006295Y009538D01*
X006263Y009507D01*
X006229Y009479D01*
X006193Y009455D01*
X006154Y009433D01*
X006114Y009415D01*
X006072Y009401D01*
X006029Y009390D01*
X005985Y009383D01*
X005941Y009380D01*
X005897Y009381D01*
X005853Y009386D01*
X005810Y009395D01*
X005767Y009407D01*
X005726Y009424D01*
X005686Y009443D01*
X005649Y009467D01*
X005613Y009493D01*
X005580Y009523D01*
X005550Y009555D01*
X005523Y009590D01*
X005499Y009627D01*
X005478Y009666D01*
X005461Y009707D01*
X005448Y009749D01*
X005438Y009792D01*
X005432Y009836D01*
X005430Y009880D01*
X004030Y009880D02*
X004032Y009920D01*
X004038Y009959D01*
X004048Y009998D01*
X004061Y010035D01*
X004079Y010071D01*
X004100Y010105D01*
X004124Y010137D01*
X004151Y010166D01*
X004181Y010193D01*
X004213Y010216D01*
X004248Y010236D01*
X004284Y010252D01*
X004322Y010265D01*
X004361Y010274D01*
X004400Y010279D01*
X004440Y010280D01*
X004480Y010277D01*
X004519Y010270D01*
X004557Y010259D01*
X004595Y010245D01*
X004630Y010226D01*
X004663Y010205D01*
X004695Y010180D01*
X004723Y010152D01*
X004749Y010122D01*
X004771Y010089D01*
X004790Y010054D01*
X004806Y010017D01*
X004818Y009979D01*
X004826Y009940D01*
X004830Y009900D01*
X004830Y009860D01*
X004826Y009820D01*
X004818Y009781D01*
X004806Y009743D01*
X004790Y009706D01*
X004771Y009671D01*
X004749Y009638D01*
X004723Y009608D01*
X004695Y009580D01*
X004663Y009555D01*
X004630Y009534D01*
X004595Y009515D01*
X004557Y009501D01*
X004519Y009490D01*
X004480Y009483D01*
X004440Y009480D01*
X004400Y009481D01*
X004361Y009486D01*
X004322Y009495D01*
X004284Y009508D01*
X004248Y009524D01*
X004213Y009544D01*
X004181Y009567D01*
X004151Y009594D01*
X004124Y009623D01*
X004100Y009655D01*
X004079Y009689D01*
X004061Y009725D01*
X004048Y009762D01*
X004038Y009801D01*
X004032Y009840D01*
X004030Y009880D01*
X003930Y009880D02*
X003932Y009924D01*
X003938Y009968D01*
X003948Y010011D01*
X003961Y010053D01*
X003978Y010094D01*
X003999Y010133D01*
X004023Y010170D01*
X004050Y010205D01*
X004080Y010237D01*
X004113Y010267D01*
X004149Y010293D01*
X004186Y010317D01*
X004226Y010336D01*
X004267Y010353D01*
X004310Y010365D01*
X004353Y010374D01*
X004397Y010379D01*
X004441Y010380D01*
X004485Y010377D01*
X004529Y010370D01*
X004572Y010359D01*
X004614Y010345D01*
X004654Y010327D01*
X004693Y010305D01*
X004729Y010281D01*
X004763Y010253D01*
X004795Y010222D01*
X004824Y010188D01*
X004850Y010152D01*
X004872Y010114D01*
X004891Y010074D01*
X004906Y010032D01*
X004918Y009990D01*
X004926Y009946D01*
X004930Y009902D01*
X004930Y009858D01*
X004926Y009814D01*
X004918Y009770D01*
X004906Y009728D01*
X004891Y009686D01*
X004872Y009646D01*
X004850Y009608D01*
X004824Y009572D01*
X004795Y009538D01*
X004763Y009507D01*
X004729Y009479D01*
X004693Y009455D01*
X004654Y009433D01*
X004614Y009415D01*
X004572Y009401D01*
X004529Y009390D01*
X004485Y009383D01*
X004441Y009380D01*
X004397Y009381D01*
X004353Y009386D01*
X004310Y009395D01*
X004267Y009407D01*
X004226Y009424D01*
X004186Y009443D01*
X004149Y009467D01*
X004113Y009493D01*
X004080Y009523D01*
X004050Y009555D01*
X004023Y009590D01*
X003999Y009627D01*
X003978Y009666D01*
X003961Y009707D01*
X003948Y009749D01*
X003938Y009792D01*
X003932Y009836D01*
X003930Y009880D01*
X003180Y009780D02*
X003180Y010130D01*
X002380Y010380D02*
X002382Y010436D01*
X002388Y010493D01*
X002398Y010548D01*
X002412Y010603D01*
X002429Y010657D01*
X002451Y010709D01*
X002476Y010759D01*
X002504Y010808D01*
X002536Y010855D01*
X002571Y010899D01*
X002609Y010941D01*
X002650Y010980D01*
X002694Y011015D01*
X002740Y011048D01*
X002788Y011077D01*
X002838Y011103D01*
X002890Y011126D01*
X002944Y011144D01*
X002998Y011159D01*
X003053Y011170D01*
X003109Y011177D01*
X003166Y011180D01*
X003222Y011179D01*
X003279Y011174D01*
X003334Y011165D01*
X003389Y011152D01*
X003443Y011135D01*
X003496Y011115D01*
X003547Y011091D01*
X003596Y011063D01*
X003643Y011032D01*
X003688Y010998D01*
X003731Y010960D01*
X003770Y010920D01*
X003807Y010877D01*
X003840Y010832D01*
X003870Y010784D01*
X003897Y010734D01*
X003920Y010683D01*
X003940Y010630D01*
X003956Y010576D01*
X003968Y010520D01*
X003976Y010465D01*
X003980Y010408D01*
X003980Y010352D01*
X003976Y010295D01*
X003968Y010240D01*
X003956Y010184D01*
X003940Y010130D01*
X003920Y010077D01*
X003897Y010026D01*
X003870Y009976D01*
X003840Y009928D01*
X003807Y009883D01*
X003770Y009840D01*
X003731Y009800D01*
X003688Y009762D01*
X003643Y009728D01*
X003596Y009697D01*
X003547Y009669D01*
X003496Y009645D01*
X003443Y009625D01*
X003389Y009608D01*
X003334Y009595D01*
X003279Y009586D01*
X003222Y009581D01*
X003166Y009580D01*
X003109Y009583D01*
X003053Y009590D01*
X002998Y009601D01*
X002944Y009616D01*
X002890Y009634D01*
X002838Y009657D01*
X002788Y009683D01*
X002740Y009712D01*
X002694Y009745D01*
X002650Y009780D01*
X002609Y009819D01*
X002571Y009861D01*
X002536Y009905D01*
X002504Y009952D01*
X002476Y010001D01*
X002451Y010051D01*
X002429Y010103D01*
X002412Y010157D01*
X002398Y010212D01*
X002388Y010267D01*
X002382Y010324D01*
X002380Y010380D01*
X002780Y010480D02*
X003580Y010480D01*
X003580Y010680D01*
X003180Y010680D01*
X002780Y010680D01*
X002780Y010480D01*
X003180Y010680D02*
X003180Y010980D01*
X003730Y010780D02*
X003730Y010580D01*
X003630Y010680D02*
X003830Y010680D01*
X007180Y010130D02*
X007180Y009780D01*
X008530Y009880D02*
X008530Y007780D01*
X028330Y007780D01*
X028330Y012980D01*
X024880Y010780D02*
X010980Y010780D01*
X010980Y012880D01*
X011024Y012882D01*
X011067Y012888D01*
X011109Y012897D01*
X011151Y012910D01*
X011191Y012927D01*
X011230Y012947D01*
X011267Y012970D01*
X011301Y012997D01*
X011334Y013026D01*
X011363Y013059D01*
X011390Y013093D01*
X011413Y013130D01*
X011433Y013169D01*
X011450Y013209D01*
X011463Y013251D01*
X011472Y013293D01*
X011478Y013336D01*
X011480Y013380D01*
X011478Y013424D01*
X011472Y013467D01*
X011463Y013509D01*
X011450Y013551D01*
X011433Y013591D01*
X011413Y013630D01*
X011390Y013667D01*
X011363Y013701D01*
X011334Y013734D01*
X011301Y013763D01*
X011267Y013790D01*
X011230Y013813D01*
X011191Y013833D01*
X011151Y013850D01*
X011109Y013863D01*
X011067Y013872D01*
X011024Y013878D01*
X010980Y013880D01*
X010980Y015980D01*
X024880Y015980D01*
X024880Y010780D01*
X030280Y005880D02*
X030282Y005920D01*
X030288Y005959D01*
X030298Y005998D01*
X030311Y006035D01*
X030329Y006071D01*
X030350Y006105D01*
X030374Y006137D01*
X030401Y006166D01*
X030431Y006193D01*
X030463Y006216D01*
X030498Y006236D01*
X030534Y006252D01*
X030572Y006265D01*
X030611Y006274D01*
X030650Y006279D01*
X030690Y006280D01*
X030730Y006277D01*
X030769Y006270D01*
X030807Y006259D01*
X030845Y006245D01*
X030880Y006226D01*
X030913Y006205D01*
X030945Y006180D01*
X030973Y006152D01*
X030999Y006122D01*
X031021Y006089D01*
X031040Y006054D01*
X031056Y006017D01*
X031068Y005979D01*
X031076Y005940D01*
X031080Y005900D01*
X031080Y005860D01*
X031076Y005820D01*
X031068Y005781D01*
X031056Y005743D01*
X031040Y005706D01*
X031021Y005671D01*
X030999Y005638D01*
X030973Y005608D01*
X030945Y005580D01*
X030913Y005555D01*
X030880Y005534D01*
X030845Y005515D01*
X030807Y005501D01*
X030769Y005490D01*
X030730Y005483D01*
X030690Y005480D01*
X030650Y005481D01*
X030611Y005486D01*
X030572Y005495D01*
X030534Y005508D01*
X030498Y005524D01*
X030463Y005544D01*
X030431Y005567D01*
X030401Y005594D01*
X030374Y005623D01*
X030350Y005655D01*
X030329Y005689D01*
X030311Y005725D01*
X030298Y005762D01*
X030288Y005801D01*
X030282Y005840D01*
X030280Y005880D01*
X030180Y005880D02*
X030182Y005924D01*
X030188Y005968D01*
X030198Y006011D01*
X030211Y006053D01*
X030228Y006094D01*
X030249Y006133D01*
X030273Y006170D01*
X030300Y006205D01*
X030330Y006237D01*
X030363Y006267D01*
X030399Y006293D01*
X030436Y006317D01*
X030476Y006336D01*
X030517Y006353D01*
X030560Y006365D01*
X030603Y006374D01*
X030647Y006379D01*
X030691Y006380D01*
X030735Y006377D01*
X030779Y006370D01*
X030822Y006359D01*
X030864Y006345D01*
X030904Y006327D01*
X030943Y006305D01*
X030979Y006281D01*
X031013Y006253D01*
X031045Y006222D01*
X031074Y006188D01*
X031100Y006152D01*
X031122Y006114D01*
X031141Y006074D01*
X031156Y006032D01*
X031168Y005990D01*
X031176Y005946D01*
X031180Y005902D01*
X031180Y005858D01*
X031176Y005814D01*
X031168Y005770D01*
X031156Y005728D01*
X031141Y005686D01*
X031122Y005646D01*
X031100Y005608D01*
X031074Y005572D01*
X031045Y005538D01*
X031013Y005507D01*
X030979Y005479D01*
X030943Y005455D01*
X030904Y005433D01*
X030864Y005415D01*
X030822Y005401D01*
X030779Y005390D01*
X030735Y005383D01*
X030691Y005380D01*
X030647Y005381D01*
X030603Y005386D01*
X030560Y005395D01*
X030517Y005407D01*
X030476Y005424D01*
X030436Y005443D01*
X030399Y005467D01*
X030363Y005493D01*
X030330Y005523D01*
X030300Y005555D01*
X030273Y005590D01*
X030249Y005627D01*
X030228Y005666D01*
X030211Y005707D01*
X030198Y005749D01*
X030188Y005792D01*
X030182Y005836D01*
X030180Y005880D01*
X031280Y005880D02*
X031282Y005920D01*
X031288Y005959D01*
X031298Y005998D01*
X031311Y006035D01*
X031329Y006071D01*
X031350Y006105D01*
X031374Y006137D01*
X031401Y006166D01*
X031431Y006193D01*
X031463Y006216D01*
X031498Y006236D01*
X031534Y006252D01*
X031572Y006265D01*
X031611Y006274D01*
X031650Y006279D01*
X031690Y006280D01*
X031730Y006277D01*
X031769Y006270D01*
X031807Y006259D01*
X031845Y006245D01*
X031880Y006226D01*
X031913Y006205D01*
X031945Y006180D01*
X031973Y006152D01*
X031999Y006122D01*
X032021Y006089D01*
X032040Y006054D01*
X032056Y006017D01*
X032068Y005979D01*
X032076Y005940D01*
X032080Y005900D01*
X032080Y005860D01*
X032076Y005820D01*
X032068Y005781D01*
X032056Y005743D01*
X032040Y005706D01*
X032021Y005671D01*
X031999Y005638D01*
X031973Y005608D01*
X031945Y005580D01*
X031913Y005555D01*
X031880Y005534D01*
X031845Y005515D01*
X031807Y005501D01*
X031769Y005490D01*
X031730Y005483D01*
X031690Y005480D01*
X031650Y005481D01*
X031611Y005486D01*
X031572Y005495D01*
X031534Y005508D01*
X031498Y005524D01*
X031463Y005544D01*
X031431Y005567D01*
X031401Y005594D01*
X031374Y005623D01*
X031350Y005655D01*
X031329Y005689D01*
X031311Y005725D01*
X031298Y005762D01*
X031288Y005801D01*
X031282Y005840D01*
X031280Y005880D01*
X031180Y005880D02*
X031182Y005924D01*
X031188Y005968D01*
X031198Y006011D01*
X031211Y006053D01*
X031228Y006094D01*
X031249Y006133D01*
X031273Y006170D01*
X031300Y006205D01*
X031330Y006237D01*
X031363Y006267D01*
X031399Y006293D01*
X031436Y006317D01*
X031476Y006336D01*
X031517Y006353D01*
X031560Y006365D01*
X031603Y006374D01*
X031647Y006379D01*
X031691Y006380D01*
X031735Y006377D01*
X031779Y006370D01*
X031822Y006359D01*
X031864Y006345D01*
X031904Y006327D01*
X031943Y006305D01*
X031979Y006281D01*
X032013Y006253D01*
X032045Y006222D01*
X032074Y006188D01*
X032100Y006152D01*
X032122Y006114D01*
X032141Y006074D01*
X032156Y006032D01*
X032168Y005990D01*
X032176Y005946D01*
X032180Y005902D01*
X032180Y005858D01*
X032176Y005814D01*
X032168Y005770D01*
X032156Y005728D01*
X032141Y005686D01*
X032122Y005646D01*
X032100Y005608D01*
X032074Y005572D01*
X032045Y005538D01*
X032013Y005507D01*
X031979Y005479D01*
X031943Y005455D01*
X031904Y005433D01*
X031864Y005415D01*
X031822Y005401D01*
X031779Y005390D01*
X031735Y005383D01*
X031691Y005380D01*
X031647Y005381D01*
X031603Y005386D01*
X031560Y005395D01*
X031517Y005407D01*
X031476Y005424D01*
X031436Y005443D01*
X031399Y005467D01*
X031363Y005493D01*
X031330Y005523D01*
X031300Y005555D01*
X031273Y005590D01*
X031249Y005627D01*
X031228Y005666D01*
X031211Y005707D01*
X031198Y005749D01*
X031188Y005792D01*
X031182Y005836D01*
X031180Y005880D01*
X032380Y005580D02*
X032680Y005580D01*
X032680Y005880D01*
X032680Y005580D02*
X032980Y005580D01*
X032680Y005580D02*
X032380Y005180D01*
X032980Y005180D01*
X032680Y005580D01*
X032680Y005180D02*
X032680Y004880D01*
X032380Y004430D02*
X032380Y003830D01*
X031980Y004130D01*
X031980Y003830D01*
X031980Y004130D02*
X031680Y004130D01*
X031980Y004130D02*
X031980Y004430D01*
X031980Y004130D02*
X032380Y004430D01*
X032380Y004130D02*
X032680Y004130D01*
X031130Y003480D02*
X031130Y004780D01*
X031128Y004806D01*
X031123Y004832D01*
X031115Y004857D01*
X031103Y004880D01*
X031089Y004902D01*
X031071Y004921D01*
X031052Y004939D01*
X031030Y004953D01*
X031007Y004965D01*
X030982Y004973D01*
X030956Y004978D01*
X030930Y004980D01*
X030430Y004980D01*
X030404Y004978D01*
X030378Y004973D01*
X030353Y004965D01*
X030330Y004953D01*
X030308Y004939D01*
X030289Y004921D01*
X030271Y004902D01*
X030257Y004880D01*
X030245Y004857D01*
X030237Y004832D01*
X030232Y004806D01*
X030230Y004780D01*
X030230Y003480D01*
X030232Y003454D01*
X030237Y003428D01*
X030245Y003403D01*
X030257Y003380D01*
X030271Y003358D01*
X030289Y003339D01*
X030308Y003321D01*
X030330Y003307D01*
X030353Y003295D01*
X030378Y003287D01*
X030404Y003282D01*
X030430Y003280D01*
X030930Y003280D01*
X030956Y003282D01*
X030982Y003287D01*
X031007Y003295D01*
X031030Y003307D01*
X031052Y003321D01*
X031071Y003339D01*
X031089Y003358D01*
X031103Y003380D01*
X031115Y003403D01*
X031123Y003428D01*
X031128Y003454D01*
X031130Y003480D01*
X030680Y003630D02*
X030680Y004000D01*
X030680Y004250D02*
X030680Y004630D01*
X029430Y003280D02*
X028430Y003280D01*
X028430Y000130D01*
X027430Y000130D01*
X027430Y003280D01*
X028430Y003280D01*
X027430Y003280D02*
X026430Y003280D01*
X025430Y003280D01*
X025430Y000130D01*
X026430Y000130D01*
X027430Y000130D01*
X026430Y000130D02*
X026430Y003280D01*
X025430Y003280D02*
X024430Y003280D01*
X024430Y000130D01*
X025430Y000130D01*
X024430Y000130D02*
X023430Y000130D01*
X022430Y000130D01*
X021430Y000130D01*
X020430Y000130D01*
X020430Y003280D01*
X021430Y003280D01*
X022430Y003280D01*
X023430Y003280D01*
X024430Y003280D01*
X023430Y003280D02*
X023430Y000130D01*
X022430Y000130D02*
X022430Y003280D01*
X021430Y003280D02*
X021430Y000130D01*
X020430Y000130D02*
X019430Y000130D01*
X018430Y000130D01*
X017430Y000130D01*
X017430Y003280D01*
X018430Y003280D01*
X019430Y003280D01*
X020430Y003280D01*
X019430Y003280D02*
X019430Y000130D01*
X018430Y000130D02*
X018430Y003280D01*
X017430Y003280D02*
X016430Y003280D01*
X015430Y003280D01*
X015430Y000130D01*
X016430Y000130D01*
X017430Y000130D01*
X016430Y000130D02*
X016430Y003280D01*
X015430Y003280D02*
X014430Y003280D01*
X014430Y000130D01*
X015430Y000130D01*
X014430Y000130D02*
X013430Y000130D01*
X012430Y000130D01*
X012430Y003280D01*
X013430Y003280D01*
X014430Y003280D01*
X013430Y003280D02*
X013430Y000130D01*
X006780Y007380D02*
X006782Y007420D01*
X006788Y007459D01*
X006798Y007498D01*
X006811Y007535D01*
X006829Y007571D01*
X006850Y007605D01*
X006874Y007637D01*
X006901Y007666D01*
X006931Y007693D01*
X006963Y007716D01*
X006998Y007736D01*
X007034Y007752D01*
X007072Y007765D01*
X007111Y007774D01*
X007150Y007779D01*
X007190Y007780D01*
X007230Y007777D01*
X007269Y007770D01*
X007307Y007759D01*
X007345Y007745D01*
X007380Y007726D01*
X007413Y007705D01*
X007445Y007680D01*
X007473Y007652D01*
X007499Y007622D01*
X007521Y007589D01*
X007540Y007554D01*
X007556Y007517D01*
X007568Y007479D01*
X007576Y007440D01*
X007580Y007400D01*
X007580Y007360D01*
X007576Y007320D01*
X007568Y007281D01*
X007556Y007243D01*
X007540Y007206D01*
X007521Y007171D01*
X007499Y007138D01*
X007473Y007108D01*
X007445Y007080D01*
X007413Y007055D01*
X007380Y007034D01*
X007345Y007015D01*
X007307Y007001D01*
X007269Y006990D01*
X007230Y006983D01*
X007190Y006980D01*
X007150Y006981D01*
X007111Y006986D01*
X007072Y006995D01*
X007034Y007008D01*
X006998Y007024D01*
X006963Y007044D01*
X006931Y007067D01*
X006901Y007094D01*
X006874Y007123D01*
X006850Y007155D01*
X006829Y007189D01*
X006811Y007225D01*
X006798Y007262D01*
X006788Y007301D01*
X006782Y007340D01*
X006780Y007380D01*
X006680Y007380D02*
X006682Y007424D01*
X006688Y007468D01*
X006698Y007511D01*
X006711Y007553D01*
X006728Y007594D01*
X006749Y007633D01*
X006773Y007670D01*
X006800Y007705D01*
X006830Y007737D01*
X006863Y007767D01*
X006899Y007793D01*
X006936Y007817D01*
X006976Y007836D01*
X007017Y007853D01*
X007060Y007865D01*
X007103Y007874D01*
X007147Y007879D01*
X007191Y007880D01*
X007235Y007877D01*
X007279Y007870D01*
X007322Y007859D01*
X007364Y007845D01*
X007404Y007827D01*
X007443Y007805D01*
X007479Y007781D01*
X007513Y007753D01*
X007545Y007722D01*
X007574Y007688D01*
X007600Y007652D01*
X007622Y007614D01*
X007641Y007574D01*
X007656Y007532D01*
X007668Y007490D01*
X007676Y007446D01*
X007680Y007402D01*
X007680Y007358D01*
X007676Y007314D01*
X007668Y007270D01*
X007656Y007228D01*
X007641Y007186D01*
X007622Y007146D01*
X007600Y007108D01*
X007574Y007072D01*
X007545Y007038D01*
X007513Y007007D01*
X007479Y006979D01*
X007443Y006955D01*
X007404Y006933D01*
X007364Y006915D01*
X007322Y006901D01*
X007279Y006890D01*
X007235Y006883D01*
X007191Y006880D01*
X007147Y006881D01*
X007103Y006886D01*
X007060Y006895D01*
X007017Y006907D01*
X006976Y006924D01*
X006936Y006943D01*
X006899Y006967D01*
X006863Y006993D01*
X006830Y007023D01*
X006800Y007055D01*
X006773Y007090D01*
X006749Y007127D01*
X006728Y007166D01*
X006711Y007207D01*
X006698Y007249D01*
X006688Y007292D01*
X006682Y007336D01*
X006680Y007380D01*
X005530Y007380D02*
X005532Y007420D01*
X005538Y007459D01*
X005548Y007498D01*
X005561Y007535D01*
X005579Y007571D01*
X005600Y007605D01*
X005624Y007637D01*
X005651Y007666D01*
X005681Y007693D01*
X005713Y007716D01*
X005748Y007736D01*
X005784Y007752D01*
X005822Y007765D01*
X005861Y007774D01*
X005900Y007779D01*
X005940Y007780D01*
X005980Y007777D01*
X006019Y007770D01*
X006057Y007759D01*
X006095Y007745D01*
X006130Y007726D01*
X006163Y007705D01*
X006195Y007680D01*
X006223Y007652D01*
X006249Y007622D01*
X006271Y007589D01*
X006290Y007554D01*
X006306Y007517D01*
X006318Y007479D01*
X006326Y007440D01*
X006330Y007400D01*
X006330Y007360D01*
X006326Y007320D01*
X006318Y007281D01*
X006306Y007243D01*
X006290Y007206D01*
X006271Y007171D01*
X006249Y007138D01*
X006223Y007108D01*
X006195Y007080D01*
X006163Y007055D01*
X006130Y007034D01*
X006095Y007015D01*
X006057Y007001D01*
X006019Y006990D01*
X005980Y006983D01*
X005940Y006980D01*
X005900Y006981D01*
X005861Y006986D01*
X005822Y006995D01*
X005784Y007008D01*
X005748Y007024D01*
X005713Y007044D01*
X005681Y007067D01*
X005651Y007094D01*
X005624Y007123D01*
X005600Y007155D01*
X005579Y007189D01*
X005561Y007225D01*
X005548Y007262D01*
X005538Y007301D01*
X005532Y007340D01*
X005530Y007380D01*
X005430Y007380D02*
X005432Y007424D01*
X005438Y007468D01*
X005448Y007511D01*
X005461Y007553D01*
X005478Y007594D01*
X005499Y007633D01*
X005523Y007670D01*
X005550Y007705D01*
X005580Y007737D01*
X005613Y007767D01*
X005649Y007793D01*
X005686Y007817D01*
X005726Y007836D01*
X005767Y007853D01*
X005810Y007865D01*
X005853Y007874D01*
X005897Y007879D01*
X005941Y007880D01*
X005985Y007877D01*
X006029Y007870D01*
X006072Y007859D01*
X006114Y007845D01*
X006154Y007827D01*
X006193Y007805D01*
X006229Y007781D01*
X006263Y007753D01*
X006295Y007722D01*
X006324Y007688D01*
X006350Y007652D01*
X006372Y007614D01*
X006391Y007574D01*
X006406Y007532D01*
X006418Y007490D01*
X006426Y007446D01*
X006430Y007402D01*
X006430Y007358D01*
X006426Y007314D01*
X006418Y007270D01*
X006406Y007228D01*
X006391Y007186D01*
X006372Y007146D01*
X006350Y007108D01*
X006324Y007072D01*
X006295Y007038D01*
X006263Y007007D01*
X006229Y006979D01*
X006193Y006955D01*
X006154Y006933D01*
X006114Y006915D01*
X006072Y006901D01*
X006029Y006890D01*
X005985Y006883D01*
X005941Y006880D01*
X005897Y006881D01*
X005853Y006886D01*
X005810Y006895D01*
X005767Y006907D01*
X005726Y006924D01*
X005686Y006943D01*
X005649Y006967D01*
X005613Y006993D01*
X005580Y007023D01*
X005550Y007055D01*
X005523Y007090D01*
X005499Y007127D01*
X005478Y007166D01*
X005461Y007207D01*
X005448Y007249D01*
X005438Y007292D01*
X005432Y007336D01*
X005430Y007380D01*
X004030Y007380D02*
X004032Y007420D01*
X004038Y007459D01*
X004048Y007498D01*
X004061Y007535D01*
X004079Y007571D01*
X004100Y007605D01*
X004124Y007637D01*
X004151Y007666D01*
X004181Y007693D01*
X004213Y007716D01*
X004248Y007736D01*
X004284Y007752D01*
X004322Y007765D01*
X004361Y007774D01*
X004400Y007779D01*
X004440Y007780D01*
X004480Y007777D01*
X004519Y007770D01*
X004557Y007759D01*
X004595Y007745D01*
X004630Y007726D01*
X004663Y007705D01*
X004695Y007680D01*
X004723Y007652D01*
X004749Y007622D01*
X004771Y007589D01*
X004790Y007554D01*
X004806Y007517D01*
X004818Y007479D01*
X004826Y007440D01*
X004830Y007400D01*
X004830Y007360D01*
X004826Y007320D01*
X004818Y007281D01*
X004806Y007243D01*
X004790Y007206D01*
X004771Y007171D01*
X004749Y007138D01*
X004723Y007108D01*
X004695Y007080D01*
X004663Y007055D01*
X004630Y007034D01*
X004595Y007015D01*
X004557Y007001D01*
X004519Y006990D01*
X004480Y006983D01*
X004440Y006980D01*
X004400Y006981D01*
X004361Y006986D01*
X004322Y006995D01*
X004284Y007008D01*
X004248Y007024D01*
X004213Y007044D01*
X004181Y007067D01*
X004151Y007094D01*
X004124Y007123D01*
X004100Y007155D01*
X004079Y007189D01*
X004061Y007225D01*
X004048Y007262D01*
X004038Y007301D01*
X004032Y007340D01*
X004030Y007380D01*
X003930Y007380D02*
X003932Y007424D01*
X003938Y007468D01*
X003948Y007511D01*
X003961Y007553D01*
X003978Y007594D01*
X003999Y007633D01*
X004023Y007670D01*
X004050Y007705D01*
X004080Y007737D01*
X004113Y007767D01*
X004149Y007793D01*
X004186Y007817D01*
X004226Y007836D01*
X004267Y007853D01*
X004310Y007865D01*
X004353Y007874D01*
X004397Y007879D01*
X004441Y007880D01*
X004485Y007877D01*
X004529Y007870D01*
X004572Y007859D01*
X004614Y007845D01*
X004654Y007827D01*
X004693Y007805D01*
X004729Y007781D01*
X004763Y007753D01*
X004795Y007722D01*
X004824Y007688D01*
X004850Y007652D01*
X004872Y007614D01*
X004891Y007574D01*
X004906Y007532D01*
X004918Y007490D01*
X004926Y007446D01*
X004930Y007402D01*
X004930Y007358D01*
X004926Y007314D01*
X004918Y007270D01*
X004906Y007228D01*
X004891Y007186D01*
X004872Y007146D01*
X004850Y007108D01*
X004824Y007072D01*
X004795Y007038D01*
X004763Y007007D01*
X004729Y006979D01*
X004693Y006955D01*
X004654Y006933D01*
X004614Y006915D01*
X004572Y006901D01*
X004529Y006890D01*
X004485Y006883D01*
X004441Y006880D01*
X004397Y006881D01*
X004353Y006886D01*
X004310Y006895D01*
X004267Y006907D01*
X004226Y006924D01*
X004186Y006943D01*
X004149Y006967D01*
X004113Y006993D01*
X004080Y007023D01*
X004050Y007055D01*
X004023Y007090D01*
X003999Y007127D01*
X003978Y007166D01*
X003961Y007207D01*
X003948Y007249D01*
X003938Y007292D01*
X003932Y007336D01*
X003930Y007380D01*
X002780Y007380D02*
X002782Y007420D01*
X002788Y007459D01*
X002798Y007498D01*
X002811Y007535D01*
X002829Y007571D01*
X002850Y007605D01*
X002874Y007637D01*
X002901Y007666D01*
X002931Y007693D01*
X002963Y007716D01*
X002998Y007736D01*
X003034Y007752D01*
X003072Y007765D01*
X003111Y007774D01*
X003150Y007779D01*
X003190Y007780D01*
X003230Y007777D01*
X003269Y007770D01*
X003307Y007759D01*
X003345Y007745D01*
X003380Y007726D01*
X003413Y007705D01*
X003445Y007680D01*
X003473Y007652D01*
X003499Y007622D01*
X003521Y007589D01*
X003540Y007554D01*
X003556Y007517D01*
X003568Y007479D01*
X003576Y007440D01*
X003580Y007400D01*
X003580Y007360D01*
X003576Y007320D01*
X003568Y007281D01*
X003556Y007243D01*
X003540Y007206D01*
X003521Y007171D01*
X003499Y007138D01*
X003473Y007108D01*
X003445Y007080D01*
X003413Y007055D01*
X003380Y007034D01*
X003345Y007015D01*
X003307Y007001D01*
X003269Y006990D01*
X003230Y006983D01*
X003190Y006980D01*
X003150Y006981D01*
X003111Y006986D01*
X003072Y006995D01*
X003034Y007008D01*
X002998Y007024D01*
X002963Y007044D01*
X002931Y007067D01*
X002901Y007094D01*
X002874Y007123D01*
X002850Y007155D01*
X002829Y007189D01*
X002811Y007225D01*
X002798Y007262D01*
X002788Y007301D01*
X002782Y007340D01*
X002780Y007380D01*
X002680Y007380D02*
X002682Y007424D01*
X002688Y007468D01*
X002698Y007511D01*
X002711Y007553D01*
X002728Y007594D01*
X002749Y007633D01*
X002773Y007670D01*
X002800Y007705D01*
X002830Y007737D01*
X002863Y007767D01*
X002899Y007793D01*
X002936Y007817D01*
X002976Y007836D01*
X003017Y007853D01*
X003060Y007865D01*
X003103Y007874D01*
X003147Y007879D01*
X003191Y007880D01*
X003235Y007877D01*
X003279Y007870D01*
X003322Y007859D01*
X003364Y007845D01*
X003404Y007827D01*
X003443Y007805D01*
X003479Y007781D01*
X003513Y007753D01*
X003545Y007722D01*
X003574Y007688D01*
X003600Y007652D01*
X003622Y007614D01*
X003641Y007574D01*
X003656Y007532D01*
X003668Y007490D01*
X003676Y007446D01*
X003680Y007402D01*
X003680Y007358D01*
X003676Y007314D01*
X003668Y007270D01*
X003656Y007228D01*
X003641Y007186D01*
X003622Y007146D01*
X003600Y007108D01*
X003574Y007072D01*
X003545Y007038D01*
X003513Y007007D01*
X003479Y006979D01*
X003443Y006955D01*
X003404Y006933D01*
X003364Y006915D01*
X003322Y006901D01*
X003279Y006890D01*
X003235Y006883D01*
X003191Y006880D01*
X003147Y006881D01*
X003103Y006886D01*
X003060Y006895D01*
X003017Y006907D01*
X002976Y006924D01*
X002936Y006943D01*
X002899Y006967D01*
X002863Y006993D01*
X002830Y007023D01*
X002800Y007055D01*
X002773Y007090D01*
X002749Y007127D01*
X002728Y007166D01*
X002711Y007207D01*
X002698Y007249D01*
X002688Y007292D01*
X002682Y007336D01*
X002680Y007380D01*
X008530Y009880D02*
X008574Y009882D01*
X008617Y009888D01*
X008659Y009897D01*
X008701Y009910D01*
X008741Y009927D01*
X008780Y009947D01*
X008817Y009970D01*
X008851Y009997D01*
X008884Y010026D01*
X008913Y010059D01*
X008940Y010093D01*
X008963Y010130D01*
X008983Y010169D01*
X009000Y010209D01*
X009013Y010251D01*
X009022Y010293D01*
X009028Y010336D01*
X009030Y010380D01*
X009028Y010424D01*
X009022Y010467D01*
X009013Y010509D01*
X009000Y010551D01*
X008983Y010591D01*
X008963Y010630D01*
X008940Y010667D01*
X008913Y010701D01*
X008884Y010734D01*
X008851Y010763D01*
X008817Y010790D01*
X008780Y010813D01*
X008741Y010833D01*
X008701Y010850D01*
X008659Y010863D01*
X008617Y010872D01*
X008574Y010878D01*
X008530Y010880D01*
X008780Y014680D02*
X010080Y014680D01*
X010106Y014682D01*
X010132Y014687D01*
X010157Y014695D01*
X010180Y014707D01*
X010202Y014721D01*
X010221Y014739D01*
X010239Y014758D01*
X010253Y014780D01*
X010265Y014803D01*
X010273Y014828D01*
X010278Y014854D01*
X010280Y014880D01*
X010280Y015380D01*
X010278Y015406D01*
X010273Y015432D01*
X010265Y015457D01*
X010253Y015480D01*
X010239Y015502D01*
X010221Y015521D01*
X010202Y015539D01*
X010180Y015553D01*
X010157Y015565D01*
X010132Y015573D01*
X010106Y015578D01*
X010080Y015580D01*
X008780Y015580D01*
X008754Y015578D01*
X008728Y015573D01*
X008703Y015565D01*
X008680Y015553D01*
X008658Y015539D01*
X008639Y015521D01*
X008621Y015502D01*
X008607Y015480D01*
X008595Y015457D01*
X008587Y015432D01*
X008582Y015406D01*
X008580Y015380D01*
X008580Y014880D01*
X008582Y014854D01*
X008587Y014828D01*
X008595Y014803D01*
X008607Y014780D01*
X008621Y014758D01*
X008639Y014739D01*
X008658Y014721D01*
X008680Y014707D01*
X008703Y014695D01*
X008728Y014687D01*
X008754Y014682D01*
X008780Y014680D01*
X008930Y015130D02*
X009310Y015130D01*
X009560Y015130D02*
X009930Y015130D01*
X029430Y003280D02*
X029430Y000130D01*
X028430Y000130D01*
D13*
X030890Y008293D02*
X030890Y008680D01*
X030986Y008680D01*
X031373Y008293D01*
X031470Y008293D01*
X031180Y008901D02*
X031180Y009288D01*
X031470Y009191D02*
X030890Y009191D01*
X031180Y008901D01*
X030890Y009508D02*
X031470Y009508D01*
X031470Y009895D01*
X031373Y010116D02*
X031470Y010213D01*
X031470Y010406D01*
X031373Y010503D01*
X031277Y010503D01*
X031180Y010406D01*
X031180Y010213D01*
X031083Y010116D01*
X030986Y010116D01*
X030890Y010213D01*
X030890Y010406D01*
X030986Y010503D01*
X030986Y010724D02*
X030890Y010821D01*
X030890Y011014D01*
X030986Y011111D01*
X031373Y010724D01*
X031470Y010821D01*
X031470Y011014D01*
X031373Y011111D01*
X030986Y011111D01*
X030986Y011332D02*
X030890Y011428D01*
X030890Y011622D01*
X030986Y011719D01*
X031083Y011719D01*
X031470Y011332D01*
X031470Y011719D01*
X031470Y011939D02*
X030890Y011939D01*
X031470Y012326D01*
X030890Y012326D01*
X030986Y010724D02*
X031373Y010724D01*
D14*
X030162Y006775D02*
X030162Y006485D01*
X030162Y006582D02*
X030307Y006485D01*
X030162Y006582D02*
X030307Y006678D01*
X030060Y006727D02*
X030060Y006533D01*
X030012Y006485D01*
X029915Y006485D01*
X029867Y006533D01*
X030060Y006727D01*
X030012Y006775D01*
X029915Y006775D01*
X029867Y006727D01*
X029867Y006533D01*
X029766Y006485D02*
X029572Y006485D01*
X029669Y006485D02*
X029669Y006775D01*
X029572Y006678D01*
X029471Y006678D02*
X029278Y006485D01*
X029176Y006485D02*
X028983Y006485D01*
X029176Y006678D01*
X029176Y006727D01*
X029128Y006775D01*
X029031Y006775D01*
X028983Y006727D01*
X029278Y006678D02*
X029471Y006485D01*
X029930Y004633D02*
X030075Y004633D01*
X029930Y004633D02*
X029882Y004585D01*
X029882Y004440D01*
X030075Y004440D01*
X030027Y004338D02*
X030075Y004290D01*
X030075Y004193D01*
X030027Y004145D01*
X029833Y004338D01*
X030027Y004338D01*
X030027Y004145D02*
X029833Y004145D01*
X029785Y004193D01*
X029785Y004290D01*
X029833Y004338D01*
X029833Y004044D02*
X030027Y003850D01*
X030075Y003899D01*
X030075Y003995D01*
X030027Y004044D01*
X029833Y004044D01*
X029785Y003995D01*
X029785Y003899D01*
X029833Y003850D01*
X030027Y003850D01*
X030075Y003749D02*
X030075Y003556D01*
X030075Y003652D02*
X029785Y003652D01*
X029882Y003556D01*
X033285Y003765D02*
X033333Y003716D01*
X033285Y003765D02*
X033285Y003862D01*
X033333Y003910D01*
X033382Y003910D01*
X033575Y003716D01*
X033575Y003910D01*
X033575Y004011D02*
X033382Y004205D01*
X033382Y004306D02*
X033285Y004402D01*
X033575Y004402D01*
X033575Y004306D02*
X033575Y004499D01*
X033575Y004600D02*
X033285Y004600D01*
X033575Y004794D01*
X033285Y004794D01*
X033430Y004895D02*
X033430Y005088D01*
X033382Y005190D02*
X033285Y005286D01*
X033575Y005286D01*
X033575Y005190D02*
X033575Y005383D01*
X033430Y005484D02*
X033430Y005678D01*
X033478Y005779D02*
X033430Y005827D01*
X033430Y005924D01*
X033478Y005972D01*
X033527Y005972D01*
X033575Y005924D01*
X033575Y005827D01*
X033527Y005779D01*
X033478Y005779D01*
X033430Y005827D02*
X033382Y005779D01*
X033333Y005779D01*
X033285Y005827D01*
X033285Y005924D01*
X033333Y005972D01*
X033382Y005972D01*
X033430Y005924D01*
X033575Y005629D02*
X033285Y005629D01*
X033430Y005484D01*
X033575Y005040D02*
X033285Y005040D01*
X033430Y004895D01*
X033575Y004205D02*
X033382Y004011D01*
X031683Y015235D02*
X031683Y015380D01*
X031635Y015428D01*
X031490Y015428D01*
X031490Y015235D01*
X031388Y015283D02*
X031340Y015235D01*
X031243Y015235D01*
X031195Y015283D01*
X031388Y015477D01*
X031388Y015283D01*
X031195Y015283D02*
X031195Y015477D01*
X031243Y015525D01*
X031340Y015525D01*
X031388Y015477D01*
X031094Y015477D02*
X031094Y015283D01*
X031045Y015235D01*
X030949Y015235D01*
X030900Y015283D01*
X031094Y015477D01*
X031045Y015525D01*
X030949Y015525D01*
X030900Y015477D01*
X030900Y015283D01*
X030799Y015235D02*
X030606Y015235D01*
X030702Y015235D02*
X030702Y015525D01*
X030606Y015428D01*
X009933Y015735D02*
X009933Y015880D01*
X009885Y015928D01*
X009740Y015928D01*
X009740Y015735D01*
X009638Y015783D02*
X009590Y015735D01*
X009493Y015735D01*
X009445Y015783D01*
X009638Y015977D01*
X009638Y015783D01*
X009445Y015783D02*
X009445Y015977D01*
X009493Y016025D01*
X009590Y016025D01*
X009638Y015977D01*
X009344Y015977D02*
X009150Y015783D01*
X009199Y015735D01*
X009295Y015735D01*
X009344Y015783D01*
X009344Y015977D01*
X009295Y016025D01*
X009199Y016025D01*
X009150Y015977D01*
X009150Y015783D01*
X009049Y015735D02*
X008856Y015735D01*
X008952Y015735D02*
X008952Y016025D01*
X008856Y015928D01*
X007325Y012236D02*
X007132Y012236D01*
X007325Y012236D02*
X007325Y012091D01*
X007277Y012042D01*
X007132Y012042D01*
X007083Y011941D02*
X007277Y011748D01*
X007325Y011796D01*
X007325Y011893D01*
X007277Y011941D01*
X007083Y011941D01*
X007035Y011893D01*
X007035Y011796D01*
X007083Y011748D01*
X007277Y011748D01*
X007325Y011647D02*
X007325Y011453D01*
X007325Y011550D02*
X007035Y011550D01*
X007132Y011453D01*
X006075Y011625D02*
X006075Y011818D01*
X006075Y011722D02*
X005785Y011722D01*
X005882Y011625D01*
X005978Y011920D02*
X005882Y012065D01*
X005978Y011920D02*
X006075Y012065D01*
X006075Y011920D02*
X005785Y011920D01*
X004575Y011920D02*
X004285Y011920D01*
X004382Y012065D02*
X004478Y011920D01*
X004575Y012065D01*
X004575Y011818D02*
X004575Y011625D01*
X004575Y011722D02*
X004285Y011722D01*
X004382Y011625D01*
X003325Y011647D02*
X003325Y011453D01*
X003325Y011550D02*
X003035Y011550D01*
X003132Y011453D01*
X003083Y011748D02*
X003035Y011796D01*
X003035Y011893D01*
X003083Y011941D01*
X003277Y011748D01*
X003325Y011796D01*
X003325Y011893D01*
X003277Y011941D01*
X003083Y011941D01*
X003132Y012042D02*
X003277Y012042D01*
X003325Y012091D01*
X003325Y012236D01*
X003132Y012236D01*
X003083Y011748D02*
X003277Y011748D01*
X003277Y006711D02*
X003325Y006663D01*
X003325Y006566D01*
X003277Y006518D01*
X003180Y006518D02*
X003132Y006615D01*
X003132Y006663D01*
X003180Y006711D01*
X003277Y006711D01*
X003180Y006518D02*
X003035Y006518D01*
X003035Y006711D01*
X003132Y006417D02*
X003228Y006272D01*
X003325Y006417D01*
X003325Y006272D02*
X003035Y006272D01*
X003035Y006074D02*
X003325Y006074D01*
X003325Y005978D02*
X003325Y006171D01*
X003132Y005978D02*
X003035Y006074D01*
X004285Y006173D02*
X004285Y006270D01*
X004333Y006318D01*
X004382Y006318D01*
X004430Y006270D01*
X004478Y006318D01*
X004527Y006318D01*
X004575Y006270D01*
X004575Y006173D01*
X004527Y006125D01*
X004430Y006222D02*
X004430Y006270D01*
X004478Y006420D02*
X004382Y006565D01*
X004478Y006420D02*
X004575Y006565D01*
X004575Y006420D02*
X004285Y006420D01*
X004285Y006173D02*
X004333Y006125D01*
X005785Y006173D02*
X005785Y006270D01*
X005833Y006318D01*
X005882Y006318D01*
X005930Y006270D01*
X005978Y006318D01*
X006027Y006318D01*
X006075Y006270D01*
X006075Y006173D01*
X006027Y006125D01*
X005930Y006222D02*
X005930Y006270D01*
X005978Y006420D02*
X005882Y006565D01*
X005978Y006420D02*
X006075Y006565D01*
X006075Y006420D02*
X005785Y006420D01*
X005785Y006173D02*
X005833Y006125D01*
X007035Y006074D02*
X007325Y006074D01*
X007325Y005978D02*
X007325Y006171D01*
X007325Y006272D02*
X007035Y006272D01*
X007132Y006417D02*
X007228Y006272D01*
X007325Y006417D01*
X007277Y006518D02*
X007325Y006566D01*
X007325Y006663D01*
X007277Y006711D01*
X007180Y006711D01*
X007132Y006663D01*
X007132Y006615D01*
X007180Y006518D01*
X007035Y006518D01*
X007035Y006711D01*
X007035Y006074D02*
X007132Y005978D01*
D15*
X007180Y007380D02*
X007180Y007730D01*
X007180Y007780D02*
X007180Y007980D01*
X007180Y008030D02*
X007180Y008380D01*
X005930Y008380D02*
X005930Y008030D01*
X005930Y007980D02*
X005930Y007780D01*
X005930Y007730D02*
X005930Y007380D01*
X004430Y007380D02*
X004430Y007730D01*
X004430Y007780D02*
X004430Y007980D01*
X004430Y008030D02*
X004430Y008380D01*
X003180Y008380D02*
X003180Y008030D01*
X003180Y007980D02*
X003180Y007780D01*
X003180Y007730D02*
X003180Y007380D01*
X004430Y009880D02*
X004430Y010230D01*
X004430Y010280D02*
X004430Y010480D01*
X004430Y010530D02*
X004430Y010880D01*
X005930Y010880D02*
X005930Y010530D01*
X005930Y010480D02*
X005930Y010280D01*
X005930Y010230D02*
X005930Y009880D01*
X029680Y005880D02*
X030030Y005880D01*
X030080Y005880D02*
X030280Y005880D01*
X030330Y005880D02*
X030680Y005880D01*
X031680Y005880D02*
X031680Y005530D01*
X031680Y005480D02*
X031680Y005280D01*
X031680Y005230D02*
X031680Y004880D01*
D16*
X030980Y004250D02*
X030380Y004250D01*
X030380Y004000D02*
X030980Y004000D01*
X031060Y014330D02*
X031060Y014930D01*
X031310Y014930D02*
X031310Y014330D01*
X009560Y014830D02*
X009560Y015430D01*
X009310Y015430D02*
X009310Y014830D01*
D17*
X007542Y012965D02*
X007542Y017295D01*
X002818Y017295D01*
X002818Y012965D01*
X007542Y012965D01*
X016780Y001166D02*
X017080Y000865D01*
X017155Y000940D01*
X017155Y001091D01*
X017080Y001166D01*
X016780Y001166D01*
X016705Y001091D01*
X016705Y000940D01*
X016780Y000865D01*
X017080Y000865D01*
X017155Y000705D02*
X017155Y000405D01*
X017155Y000555D02*
X016705Y000555D01*
X016855Y000405D01*
X016155Y000580D02*
X016080Y000505D01*
X016005Y000505D01*
X015930Y000580D01*
X015930Y000730D01*
X016005Y000805D01*
X016080Y000805D01*
X016155Y000730D01*
X016155Y000580D01*
X015930Y000580D02*
X015855Y000505D01*
X015780Y000505D01*
X015705Y000580D01*
X015705Y000730D01*
X015780Y000805D01*
X015855Y000805D01*
X015930Y000730D01*
X015155Y000730D02*
X015080Y000805D01*
X015005Y000805D01*
X014930Y000730D01*
X014930Y000505D01*
X015080Y000505D01*
X015155Y000580D01*
X015155Y000730D01*
X014930Y000505D02*
X014780Y000655D01*
X014705Y000805D01*
X014155Y000730D02*
X013705Y000730D01*
X013930Y000505D01*
X013930Y000805D01*
X013155Y000805D02*
X013155Y000505D01*
X012855Y000805D01*
X012780Y000805D01*
X012705Y000730D01*
X012705Y000580D01*
X012780Y000505D01*
X017705Y000555D02*
X018155Y000555D01*
X018155Y000405D02*
X018155Y000705D01*
X018155Y000865D02*
X017855Y001166D01*
X017780Y001166D01*
X017705Y001091D01*
X017705Y000940D01*
X017780Y000865D01*
X018155Y000865D02*
X018155Y001166D01*
X018705Y001091D02*
X018930Y000865D01*
X018930Y001166D01*
X019155Y001091D02*
X018705Y001091D01*
X019155Y000705D02*
X019155Y000405D01*
X019155Y000555D02*
X018705Y000555D01*
X018855Y000405D01*
X019705Y000555D02*
X020155Y000555D01*
X020155Y000405D02*
X020155Y000705D01*
X020080Y000865D02*
X020155Y000940D01*
X020155Y001091D01*
X020080Y001166D01*
X020005Y001166D01*
X019930Y001091D01*
X019930Y000865D01*
X020080Y000865D01*
X019930Y000865D02*
X019780Y001016D01*
X019705Y001166D01*
X020705Y001091D02*
X020780Y001166D01*
X020855Y001166D01*
X020930Y001091D01*
X020930Y000940D01*
X020855Y000865D01*
X020780Y000865D01*
X020705Y000940D01*
X020705Y001091D01*
X020930Y001091D02*
X021005Y001166D01*
X021080Y001166D01*
X021155Y001091D01*
X021155Y000940D01*
X021080Y000865D01*
X021005Y000865D01*
X020930Y000940D01*
X021155Y000705D02*
X021155Y000405D01*
X021155Y000555D02*
X020705Y000555D01*
X020855Y000405D01*
X021705Y000530D02*
X021780Y000455D01*
X021705Y000530D02*
X021705Y000680D01*
X021780Y000755D01*
X021855Y000755D01*
X022155Y000455D01*
X022155Y000755D01*
X022080Y000915D02*
X021780Y001216D01*
X022080Y001216D01*
X022155Y001141D01*
X022155Y000990D01*
X022080Y000915D01*
X021780Y000915D01*
X021705Y000990D01*
X021705Y001141D01*
X021780Y001216D01*
X022705Y001141D02*
X022705Y000990D01*
X022780Y000915D01*
X022780Y000755D02*
X022705Y000680D01*
X022705Y000530D01*
X022780Y000455D01*
X022855Y000755D02*
X023155Y000455D01*
X023155Y000755D01*
X023155Y000915D02*
X022855Y001216D01*
X022780Y001216D01*
X022705Y001141D01*
X023155Y001216D02*
X023155Y000915D01*
X022855Y000755D02*
X022780Y000755D01*
X023705Y000680D02*
X023705Y000530D01*
X023780Y000455D01*
X023705Y000680D02*
X023780Y000755D01*
X023855Y000755D01*
X024155Y000455D01*
X024155Y000755D01*
X023930Y000915D02*
X023930Y001216D01*
X024155Y001141D02*
X023705Y001141D01*
X023930Y000915D01*
X024705Y000680D02*
X024705Y000530D01*
X024780Y000455D01*
X024705Y000680D02*
X024780Y000755D01*
X024855Y000755D01*
X025155Y000455D01*
X025155Y000755D01*
X025080Y000915D02*
X025155Y000990D01*
X025155Y001141D01*
X025080Y001216D01*
X025005Y001216D01*
X024930Y001141D01*
X024930Y000915D01*
X025080Y000915D01*
X024930Y000915D02*
X024780Y001066D01*
X024705Y001216D01*
X025705Y001141D02*
X025705Y000990D01*
X025780Y000915D01*
X025855Y000915D01*
X025930Y000990D01*
X025930Y001141D01*
X026005Y001216D01*
X026080Y001216D01*
X026155Y001141D01*
X026155Y000990D01*
X026080Y000915D01*
X026005Y000915D01*
X025930Y000990D01*
X025930Y001141D02*
X025855Y001216D01*
X025780Y001216D01*
X025705Y001141D01*
X025780Y000755D02*
X025705Y000680D01*
X025705Y000530D01*
X025780Y000455D01*
X025780Y000755D02*
X025855Y000755D01*
X026155Y000455D01*
X026155Y000755D01*
X026705Y000680D02*
X026780Y000755D01*
X026855Y000755D01*
X026930Y000680D01*
X027005Y000755D01*
X027080Y000755D01*
X027155Y000680D01*
X027155Y000530D01*
X027080Y000455D01*
X026930Y000605D02*
X026930Y000680D01*
X026705Y000680D02*
X026705Y000530D01*
X026780Y000455D01*
X026780Y000915D02*
X026705Y000990D01*
X026705Y001141D01*
X026780Y001216D01*
X027080Y000915D01*
X027155Y000990D01*
X027155Y001141D01*
X027080Y001216D01*
X026780Y001216D01*
X026780Y000915D02*
X027080Y000915D01*
X027705Y000990D02*
X027705Y001141D01*
X027780Y001216D01*
X027855Y001216D01*
X028155Y000915D01*
X028155Y001216D01*
X027780Y000915D02*
X027705Y000990D01*
X027780Y000755D02*
X027855Y000755D01*
X027930Y000680D01*
X028005Y000755D01*
X028080Y000755D01*
X028155Y000680D01*
X028155Y000530D01*
X028080Y000455D01*
X027930Y000605D02*
X027930Y000680D01*
X027780Y000755D02*
X027705Y000680D01*
X027705Y000530D01*
X027780Y000455D01*
X028705Y000530D02*
X028705Y000680D01*
X028780Y000755D01*
X028855Y000755D01*
X028930Y000680D01*
X029005Y000755D01*
X029080Y000755D01*
X029155Y000680D01*
X029155Y000530D01*
X029080Y000455D01*
X028930Y000605D02*
X028930Y000680D01*
X028930Y000915D02*
X028930Y001216D01*
X029155Y001141D02*
X028705Y001141D01*
X028930Y000915D01*
X028705Y000530D02*
X028780Y000455D01*
X019855Y000405D02*
X019705Y000555D01*
X017855Y000405D02*
X017705Y000555D01*
D18*
X017930Y004130D03*
X016930Y004130D03*
X015930Y004130D03*
X014930Y004130D03*
X013930Y004130D03*
X012930Y004130D03*
X018930Y004130D03*
X019930Y004130D03*
X020930Y004130D03*
X021930Y004130D03*
X022930Y004130D03*
X023930Y004130D03*
X024930Y004130D03*
X025930Y004130D03*
X026930Y004130D03*
X027930Y004130D03*
X028930Y004130D03*
D19*
X028930Y003630D03*
X027930Y003630D03*
X026930Y003630D03*
X025930Y003630D03*
X024930Y003630D03*
X023930Y003630D03*
X022930Y003630D03*
X021930Y003630D03*
X020930Y003630D03*
X019930Y003630D03*
X018930Y003630D03*
X017930Y003630D03*
X016930Y003630D03*
X015930Y003630D03*
X014930Y003630D03*
X013930Y003630D03*
X012930Y003630D03*
D20*
X012930Y004520D03*
X013930Y004520D03*
X014930Y004520D03*
X015930Y004520D03*
X016930Y004520D03*
X017930Y004520D03*
X018930Y004520D03*
X019930Y004520D03*
X020930Y004520D03*
X021930Y004520D03*
X022930Y004520D03*
X023930Y004520D03*
X024930Y004520D03*
X025930Y004520D03*
X026930Y004520D03*
X027930Y004520D03*
X028930Y004520D03*
D21*
X007180Y010180D03*
X003180Y010180D03*
M02*
