G75*
G70*
%OFA0B0*%
%FSLAX24Y24*%
%IPPOS*%
%LPD*%
%AMOC8*
5,1,8,0,0,1.08239X$1,22.5*
%
%ADD10C,0.0000*%
%ADD11C,0.0560*%
%ADD12OC8,0.0560*%
%ADD13OC8,0.0640*%
%ADD14C,0.0690*%
%ADD15C,0.0512*%
%ADD16OC8,0.0520*%
%ADD17C,0.0520*%
%ADD18OC8,0.0512*%
D10*
X002180Y003130D02*
X002180Y017500D01*
X033922Y017500D01*
X033922Y003130D01*
X002180Y003130D01*
X004944Y013949D02*
X004946Y013979D01*
X004952Y014009D01*
X004961Y014038D01*
X004974Y014065D01*
X004991Y014090D01*
X005010Y014113D01*
X005033Y014134D01*
X005058Y014151D01*
X005084Y014165D01*
X005113Y014175D01*
X005142Y014182D01*
X005172Y014185D01*
X005203Y014184D01*
X005233Y014179D01*
X005262Y014170D01*
X005289Y014158D01*
X005315Y014143D01*
X005339Y014124D01*
X005360Y014102D01*
X005378Y014078D01*
X005393Y014051D01*
X005404Y014023D01*
X005412Y013994D01*
X005416Y013964D01*
X005416Y013934D01*
X005412Y013904D01*
X005404Y013875D01*
X005393Y013847D01*
X005378Y013820D01*
X005360Y013796D01*
X005339Y013774D01*
X005315Y013755D01*
X005289Y013740D01*
X005262Y013728D01*
X005233Y013719D01*
X005203Y013714D01*
X005172Y013713D01*
X005142Y013716D01*
X005113Y013723D01*
X005084Y013733D01*
X005058Y013747D01*
X005033Y013764D01*
X005010Y013785D01*
X004991Y013808D01*
X004974Y013833D01*
X004961Y013860D01*
X004952Y013889D01*
X004946Y013919D01*
X004944Y013949D01*
X002975Y015917D02*
X002977Y015947D01*
X002983Y015977D01*
X002992Y016006D01*
X003005Y016033D01*
X003022Y016058D01*
X003041Y016081D01*
X003064Y016102D01*
X003089Y016119D01*
X003115Y016133D01*
X003144Y016143D01*
X003173Y016150D01*
X003203Y016153D01*
X003234Y016152D01*
X003264Y016147D01*
X003293Y016138D01*
X003320Y016126D01*
X003346Y016111D01*
X003370Y016092D01*
X003391Y016070D01*
X003409Y016046D01*
X003424Y016019D01*
X003435Y015991D01*
X003443Y015962D01*
X003447Y015932D01*
X003447Y015902D01*
X003443Y015872D01*
X003435Y015843D01*
X003424Y015815D01*
X003409Y015788D01*
X003391Y015764D01*
X003370Y015742D01*
X003346Y015723D01*
X003320Y015708D01*
X003293Y015696D01*
X003264Y015687D01*
X003234Y015682D01*
X003203Y015681D01*
X003173Y015684D01*
X003144Y015691D01*
X003115Y015701D01*
X003089Y015715D01*
X003064Y015732D01*
X003041Y015753D01*
X003022Y015776D01*
X003005Y015801D01*
X002992Y015828D01*
X002983Y015857D01*
X002977Y015887D01*
X002975Y015917D01*
X002975Y016902D02*
X002977Y016932D01*
X002983Y016962D01*
X002992Y016991D01*
X003005Y017018D01*
X003022Y017043D01*
X003041Y017066D01*
X003064Y017087D01*
X003089Y017104D01*
X003115Y017118D01*
X003144Y017128D01*
X003173Y017135D01*
X003203Y017138D01*
X003234Y017137D01*
X003264Y017132D01*
X003293Y017123D01*
X003320Y017111D01*
X003346Y017096D01*
X003370Y017077D01*
X003391Y017055D01*
X003409Y017031D01*
X003424Y017004D01*
X003435Y016976D01*
X003443Y016947D01*
X003447Y016917D01*
X003447Y016887D01*
X003443Y016857D01*
X003435Y016828D01*
X003424Y016800D01*
X003409Y016773D01*
X003391Y016749D01*
X003370Y016727D01*
X003346Y016708D01*
X003320Y016693D01*
X003293Y016681D01*
X003264Y016672D01*
X003234Y016667D01*
X003203Y016666D01*
X003173Y016669D01*
X003144Y016676D01*
X003115Y016686D01*
X003089Y016700D01*
X003064Y016717D01*
X003041Y016738D01*
X003022Y016761D01*
X003005Y016786D01*
X002992Y016813D01*
X002983Y016842D01*
X002977Y016872D01*
X002975Y016902D01*
X006913Y016902D02*
X006915Y016932D01*
X006921Y016962D01*
X006930Y016991D01*
X006943Y017018D01*
X006960Y017043D01*
X006979Y017066D01*
X007002Y017087D01*
X007027Y017104D01*
X007053Y017118D01*
X007082Y017128D01*
X007111Y017135D01*
X007141Y017138D01*
X007172Y017137D01*
X007202Y017132D01*
X007231Y017123D01*
X007258Y017111D01*
X007284Y017096D01*
X007308Y017077D01*
X007329Y017055D01*
X007347Y017031D01*
X007362Y017004D01*
X007373Y016976D01*
X007381Y016947D01*
X007385Y016917D01*
X007385Y016887D01*
X007381Y016857D01*
X007373Y016828D01*
X007362Y016800D01*
X007347Y016773D01*
X007329Y016749D01*
X007308Y016727D01*
X007284Y016708D01*
X007258Y016693D01*
X007231Y016681D01*
X007202Y016672D01*
X007172Y016667D01*
X007141Y016666D01*
X007111Y016669D01*
X007082Y016676D01*
X007053Y016686D01*
X007027Y016700D01*
X007002Y016717D01*
X006979Y016738D01*
X006960Y016761D01*
X006943Y016786D01*
X006930Y016813D01*
X006921Y016842D01*
X006915Y016872D01*
X006913Y016902D01*
X006913Y015917D02*
X006915Y015947D01*
X006921Y015977D01*
X006930Y016006D01*
X006943Y016033D01*
X006960Y016058D01*
X006979Y016081D01*
X007002Y016102D01*
X007027Y016119D01*
X007053Y016133D01*
X007082Y016143D01*
X007111Y016150D01*
X007141Y016153D01*
X007172Y016152D01*
X007202Y016147D01*
X007231Y016138D01*
X007258Y016126D01*
X007284Y016111D01*
X007308Y016092D01*
X007329Y016070D01*
X007347Y016046D01*
X007362Y016019D01*
X007373Y015991D01*
X007381Y015962D01*
X007385Y015932D01*
X007385Y015902D01*
X007381Y015872D01*
X007373Y015843D01*
X007362Y015815D01*
X007347Y015788D01*
X007329Y015764D01*
X007308Y015742D01*
X007284Y015723D01*
X007258Y015708D01*
X007231Y015696D01*
X007202Y015687D01*
X007172Y015682D01*
X007141Y015681D01*
X007111Y015684D01*
X007082Y015691D01*
X007053Y015701D01*
X007027Y015715D01*
X007002Y015732D01*
X006979Y015753D01*
X006960Y015776D01*
X006943Y015801D01*
X006930Y015828D01*
X006921Y015857D01*
X006915Y015887D01*
X006913Y015917D01*
D11*
X008930Y013640D02*
X008930Y013120D01*
X009930Y013120D02*
X009930Y013640D01*
X010930Y013640D02*
X010930Y013120D01*
X011930Y013120D02*
X011930Y013640D01*
X012930Y013640D02*
X012930Y013120D01*
X013930Y013120D02*
X013930Y013640D01*
X014930Y013640D02*
X014930Y013120D01*
X015930Y013120D02*
X015930Y013640D01*
X016930Y013640D02*
X016930Y013120D01*
X017930Y013120D02*
X017930Y013640D01*
X018930Y013640D02*
X018930Y013120D01*
X019930Y013120D02*
X019930Y013640D01*
X020930Y013640D02*
X020930Y013120D01*
X021930Y013120D02*
X021930Y013640D01*
X022930Y013640D02*
X022930Y013120D01*
X023930Y013120D02*
X023930Y013640D01*
X024930Y013640D02*
X024930Y013120D01*
X025930Y013120D02*
X025930Y013640D01*
X026930Y013640D02*
X026930Y013120D01*
X027930Y013120D02*
X027930Y013640D01*
X029420Y013380D02*
X029940Y013380D01*
X029940Y012380D02*
X029420Y012380D01*
X029420Y011380D02*
X029940Y011380D01*
X029940Y010380D02*
X029420Y010380D01*
X029420Y009380D02*
X029940Y009380D01*
X029940Y008380D02*
X029420Y008380D01*
X027930Y007640D02*
X027930Y007120D01*
X026930Y007120D02*
X026930Y007640D01*
X025930Y007640D02*
X025930Y007120D01*
X024930Y007120D02*
X024930Y007640D01*
X023930Y007640D02*
X023930Y007120D01*
X022930Y007120D02*
X022930Y007640D01*
X021930Y007640D02*
X021930Y007120D01*
X020930Y007120D02*
X020930Y007640D01*
X019930Y007640D02*
X019930Y007120D01*
X018930Y007120D02*
X018930Y007640D01*
X017930Y007640D02*
X017930Y007120D01*
X016930Y007120D02*
X016930Y007640D01*
X015930Y007640D02*
X015930Y007120D01*
X014930Y007120D02*
X014930Y007640D01*
X013930Y007640D02*
X013930Y007120D01*
X012930Y007120D02*
X012930Y007640D01*
X011930Y007640D02*
X011930Y007120D01*
X010930Y007120D02*
X010930Y007640D01*
X009930Y007640D02*
X009930Y007120D01*
X008930Y007120D02*
X008930Y007640D01*
X011430Y010120D02*
X011430Y010640D01*
X012430Y010640D02*
X012430Y010120D01*
X013430Y010120D02*
X013430Y010640D01*
X014430Y010640D02*
X014430Y010120D01*
X015430Y010120D02*
X015430Y010640D01*
X016430Y010640D02*
X016430Y010120D01*
X017430Y010120D02*
X017430Y010640D01*
X018430Y010640D02*
X018430Y010120D01*
X019430Y010120D02*
X019430Y010640D01*
X020430Y010640D02*
X020430Y010120D01*
X021430Y010120D02*
X021430Y010640D01*
X022430Y010640D02*
X022430Y010120D01*
X023430Y010120D02*
X023430Y010640D01*
X024430Y010640D02*
X024430Y010120D01*
X029420Y007380D02*
X029940Y007380D01*
X032420Y007380D02*
X032940Y007380D01*
X032940Y008380D02*
X032420Y008380D01*
X032420Y009380D02*
X032940Y009380D01*
X032940Y010380D02*
X032420Y010380D01*
X032420Y011380D02*
X032940Y011380D01*
X032940Y012380D02*
X032420Y012380D01*
X032420Y013380D02*
X032940Y013380D01*
X024430Y016120D02*
X024430Y016640D01*
X023430Y016640D02*
X023430Y016120D01*
X022430Y016120D02*
X022430Y016640D01*
X021430Y016640D02*
X021430Y016120D01*
X020430Y016120D02*
X020430Y016640D01*
X019430Y016640D02*
X019430Y016120D01*
X018430Y016120D02*
X018430Y016640D01*
X017430Y016640D02*
X017430Y016120D01*
X016430Y016120D02*
X016430Y016640D01*
X015430Y016640D02*
X015430Y016120D01*
X014430Y016120D02*
X014430Y016640D01*
X013430Y016640D02*
X013430Y016120D01*
X012430Y016120D02*
X012430Y016640D01*
X011430Y016640D02*
X011430Y016120D01*
D12*
X009930Y015130D03*
X008930Y015130D03*
X005930Y010880D03*
X005930Y009880D03*
X004430Y009880D03*
X004430Y010880D03*
X004430Y008380D03*
X003180Y008380D03*
X003180Y007380D03*
X004430Y007380D03*
X005930Y007380D03*
X007180Y007380D03*
X007180Y008380D03*
X005930Y008380D03*
X029680Y005880D03*
X030680Y005880D03*
X031680Y005880D03*
X032680Y005880D03*
X032680Y004880D03*
X031680Y004880D03*
X030680Y004630D03*
X031680Y004130D03*
X032680Y004130D03*
X030680Y003630D03*
X030680Y014630D03*
X031680Y014630D03*
D13*
X028930Y004630D03*
X027930Y004630D03*
X026930Y004630D03*
X025930Y004630D03*
X024930Y004630D03*
X023930Y004630D03*
X022930Y004630D03*
X021930Y004630D03*
X020930Y004630D03*
X019930Y004630D03*
X018930Y004630D03*
X017930Y004630D03*
X016930Y004630D03*
X015930Y004630D03*
X014930Y004630D03*
X013930Y004630D03*
X012930Y004630D03*
X012930Y003630D03*
X013930Y003630D03*
X014930Y003630D03*
X015930Y003630D03*
X016930Y003630D03*
X017930Y003630D03*
X018930Y003630D03*
X019930Y003630D03*
X020930Y003630D03*
X021930Y003630D03*
X022930Y003630D03*
X023930Y003630D03*
X024930Y003630D03*
X025930Y003630D03*
X026930Y003630D03*
X027930Y003630D03*
X028930Y003630D03*
D14*
X007149Y013624D02*
X007149Y014274D01*
X006164Y014274D02*
X006164Y013624D01*
X004196Y013624D02*
X004196Y014274D01*
X003211Y014274D02*
X003211Y013624D01*
X004855Y015917D02*
X005505Y015917D01*
D15*
X007149Y015917D03*
X007149Y016902D03*
X003211Y016902D03*
X003211Y015917D03*
X005180Y013949D03*
D16*
X003180Y010030D03*
X007180Y010030D03*
D17*
X007180Y010730D03*
X003180Y010730D03*
D18*
X003180Y009130D03*
X005180Y009130D03*
X007180Y009130D03*
X005180Y006380D03*
X004680Y005130D03*
X003680Y005130D03*
X002680Y005130D03*
X003180Y004380D03*
X004180Y004380D03*
X005180Y004380D03*
X006180Y004380D03*
X007180Y004380D03*
X006680Y003630D03*
X005680Y003630D03*
X004680Y003630D03*
X003680Y003630D03*
X002680Y003630D03*
X005680Y005130D03*
X006680Y005130D03*
X007680Y005130D03*
X007680Y003630D03*
X006430Y012380D03*
X005180Y012380D03*
X003930Y012380D03*
X003930Y015130D03*
X005180Y015130D03*
X006430Y015130D03*
X006430Y015880D03*
X006430Y016880D03*
X005180Y016880D03*
X003930Y016880D03*
X003930Y015880D03*
X026680Y010380D03*
X027930Y010380D03*
M02*
